<?xml version="1.0" encoding="UTF-8" standalone="no"?>
<svg version="1.1" xmlns="http://www.w3.org/2000/svg" xmlns:xlink="http://www.w3.org/1999/xlink" width="77.0467" height="43.608">
	<g id="dp_dp001" transform="matrix(1,0,0,1,-219.972,-394.676)">
		<path id="dp_path002" fill="#e3f4fb" fill-rule="evenodd" stroke="none" stroke-width="0" d="M 252.603,403.821 C 271.295,387.515 292.967,401.939 292.833,417.317 C 292.737,428.395 276.752,437.375 256.913,437.375 C 237.075,437.375 223.173,428.184 220.992,417.317 C 219.124,408.011 225.167,427.756 252.603,403.821 Z "/>
		<path id="dp_path003" fill="#00dba4" stroke="none" stroke-width="0" d="M 248.631,429.932 L 245.185,425.597 L 262.747,419.372 L 280.196,426.375 L 278.14,430.432 L 250.521,433.821 Z "/>
		<path id="dp_path004" fill="black" stroke="none" stroke-width="0" d="M 250.535,434.001 L 248.6,430.02 L 245.02,425.517 L 262.857,419.195 L 280.531,426.288 L 278.352,430.587 L 278.264,430.597 Z M 245.572,425.676 L 248.884,429.841 L 250.728,433.64 L 278.141,430.276 L 280.076,426.464 L 262.857,419.552 Z "/>
		<path id="dp_path005" fill="#977e71" stroke="none" stroke-width="0" d="M 255.189,403.923 C 255.189,403.701 254.188,400.811 256.856,398.588 C 256.856,398.588 258.301,397.255 257.968,394.809 C 257.968,394.809 257.856,397.699 264.303,397.699 C 264.303,397.699 269.396,396.921 269.396,404.091"/>
		<path id="dp_path006" fill="#ebd9c7" stroke="none" stroke-width="0" d="M 267.415,403.979 L 256.892,403.979 C 256.969,403.38 257.353,401.148 258.809,400.779 C 259.98,401.345 262.133,401.827 265.748,400.923 C 265.748,400.923 267.956,401.799 267.415,403.979 Z "/>
		<path id="dp_path007" fill="#e2c4b2" stroke="none" stroke-width="0" d="M 266.157,401.159 C 266.104,401.191 266.047,401.22 265.996,401.249 C 263.888,402.36 261.407,402.536 259.164,401.735 C 259.032,401.671 258.885,401.647 258.741,401.664 C 258.509,401.719 258.396,401.972 258.296,402.189 C 258.001,402.856 257.565,403.451 257.017,403.932 C 257.128,403.189 257.553,401.212 258.916,400.867 C 260.092,401.431 262.244,401.913 265.859,401.011 C 265.961,401.055 266.061,401.104 266.157,401.159 Z "/>
		<path id="dp_path008" fill="#e1e6e9" fill-rule="evenodd" stroke="none" stroke-width="0" d="M 236.461,432.099 L 289.716,432.099 L 289.716,438.1 L 236.461,438.1 Z "/>
		<path id="dp_path009" fill="#cbd2dc" fill-rule="evenodd" stroke="none" stroke-width="0" d="M 236.555,432.209 L 289.811,432.209 L 289.811,433.543 L 236.555,433.543 Z "/>
		<path id="dp_path010" fill="black" stroke="none" stroke-width="0" d="M 289.883,438.268 L 236.295,438.268 L 236.295,431.932 L 289.883,431.932 Z M 236.628,437.933 L 289.549,437.933 L 289.549,432.265 L 236.628,432.265 Z "/>
		<path id="dp_path011" fill="#e1e6e9" fill-rule="evenodd" fill-opacity="0.2" stroke="none" stroke-width="0" d="M 283.253,421.205 L 290.021,421.205 L 290.021,422.983 L 283.253,422.983 Z "/>
		<path id="dp_path012" fill="#cbd2dc" fill-rule="evenodd" fill-opacity="0.2" stroke="none" stroke-width="0" d="M 283.265,421.239 L 290.033,421.239 L 290.033,421.633 L 283.265,421.633 Z "/>
		<path id="dp_path013" fill="black" fill-opacity="0.2" stroke="none" stroke-width="0" d="M 290.188,423.149 L 283.087,423.149 L 283.087,421.037 L 290.188,421.037 Z M 283.42,422.816 L 289.855,422.816 L 289.855,421.371 L 283.42,421.371 Z "/>
		<path id="dp_path014" fill="#e1e6e9" fill-rule="evenodd" fill-opacity="0.2" stroke="none" stroke-width="0" d="M 290.033,421.205 L 296.8,421.205 L 296.8,422.983 L 290.033,422.983 Z "/>
		<path id="dp_path015" fill="#cbd2dc" fill-rule="evenodd" fill-opacity="0.2" stroke="none" stroke-width="0" d="M 290.045,421.239 L 296.813,421.239 L 296.813,421.633 L 290.045,421.633 Z "/>
		<path id="dp_path016" fill="black" fill-opacity="0.2" stroke="none" stroke-width="0" d="M 296.968,423.149 L 289.867,423.149 L 289.867,421.037 L 296.968,421.037 Z M 290.2,422.816 L 296.633,422.816 L 296.633,421.371 L 290.2,421.371 Z "/>
		<path id="dp_path017" fill="#e1e6e9" fill-rule="evenodd" fill-opacity="0.2" stroke="none" stroke-width="0" d="M 286.724,422.983 L 293.492,422.983 L 293.492,424.759 L 286.724,424.759 Z "/>
		<path id="dp_path018" fill="#cbd2dc" fill-rule="evenodd" fill-opacity="0.2" stroke="none" stroke-width="0" d="M 286.735,423.015 L 293.503,423.015 L 293.503,423.409 L 286.735,423.409 Z "/>
		<path id="dp_path019" fill="black" fill-opacity="0.2" stroke="none" stroke-width="0" d="M 293.659,424.924 L 286.557,424.924 L 286.557,422.812 L 293.659,422.812 Z M 286.891,424.591 L 293.325,424.591 L 293.325,423.147 L 286.891,423.147 Z "/>
		<path id="dp_path020" fill="#e1e6e9" fill-rule="evenodd" fill-opacity="0.2" stroke="none" stroke-width="0" d="M 229.792,398.643 L 236.56,398.643 L 236.56,400.419 L 229.792,400.419 Z "/>
		<path id="dp_path021" fill="#cbd2dc" fill-rule="evenodd" fill-opacity="0.2" stroke="none" stroke-width="0" d="M 229.804,398.676 L 236.572,398.676 L 236.572,399.071 L 229.804,399.071 Z "/>
		<path id="dp_path022" fill="black" fill-opacity="0.2" stroke="none" stroke-width="0" d="M 236.727,400.587 L 229.625,400.587 L 229.625,398.475 L 236.727,398.475 Z M 229.959,400.253 L 236.393,400.253 L 236.393,398.808 L 229.959,398.808 Z "/>
		<path id="dp_path023" fill="#e1e6e9" fill-rule="evenodd" fill-opacity="0.2" stroke="none" stroke-width="0" d="M 236.572,398.643 L 243.34,398.643 L 243.34,400.419 L 236.572,400.419 Z "/>
		<path id="dp_path024" fill="#cbd2dc" fill-rule="evenodd" fill-opacity="0.2" stroke="none" stroke-width="0" d="M 236.584,398.676 L 243.352,398.676 L 243.352,399.071 L 236.584,399.071 Z "/>
		<path id="dp_path025" fill="black" fill-opacity="0.2" stroke="none" stroke-width="0" d="M 243.507,400.587 L 236.405,400.587 L 236.405,398.475 L 243.507,398.475 Z M 236.739,400.253 L 243.173,400.253 L 243.173,398.808 L 236.739,398.808 Z "/>
		<path id="dp_path026" fill="#e1e6e9" fill-rule="evenodd" fill-opacity="0.2" stroke="none" stroke-width="0" d="M 233.263,400.419 L 240.031,400.419 L 240.031,402.195 L 233.263,402.195 Z "/>
		<path id="dp_path027" fill="#cbd2dc" fill-rule="evenodd" fill-opacity="0.2" stroke="none" stroke-width="0" d="M 233.275,400.452 L 240.041,400.452 L 240.041,400.847 L 233.275,400.847 Z "/>
		<path id="dp_path028" fill="black" fill-opacity="0.2" stroke="none" stroke-width="0" d="M 240.197,402.361 L 233.096,402.361 L 233.096,400.249 L 240.197,400.249 Z M 233.429,402.028 L 239.864,402.028 L 239.864,400.584 L 233.429,400.584 Z "/>
		<path id="dp_path029" fill="#e1e6e9" fill-rule="evenodd" fill-opacity="0.2" stroke="none" stroke-width="0" d="M 227.013,422.871 L 233.781,422.871 L 233.781,424.647 L 227.013,424.647 Z "/>
		<path id="dp_path030" fill="#cbd2dc" fill-rule="evenodd" fill-opacity="0.2" stroke="none" stroke-width="0" d="M 227.025,424.219 L 233.793,424.219 L 233.793,424.613 L 227.025,424.613 Z "/>
		<path id="dp_path031" fill="black" fill-opacity="0.2" stroke="none" stroke-width="0" d="M 233.948,424.813 L 226.847,424.813 L 226.847,422.701 L 233.948,422.701 Z M 227.18,424.48 L 233.615,424.48 L 233.615,423.035 L 227.18,423.035 Z "/>
		<path id="dp_path032" fill="#e1e6e9" fill-rule="evenodd" fill-opacity="0.2" stroke="none" stroke-width="0" d="M 233.793,422.871 L 240.561,422.871 L 240.561,424.647 L 233.793,424.647 Z "/>
		<path id="dp_path033" fill="#cbd2dc" fill-rule="evenodd" fill-opacity="0.2" stroke="none" stroke-width="0" d="M 233.805,424.219 L 240.573,424.219 L 240.573,424.613 L 233.805,424.613 Z "/>
		<path id="dp_path034" fill="black" fill-opacity="0.2" stroke="none" stroke-width="0" d="M 240.728,424.813 L 233.627,424.813 L 233.627,422.701 L 240.728,422.701 Z M 233.96,424.48 L 240.395,424.48 L 240.395,423.035 L 233.96,423.035 Z "/>
		<path id="dp_path035" fill="#e1e6e9" fill-rule="evenodd" fill-opacity="0.2" stroke="none" stroke-width="0" d="M 230.484,421.095 L 237.252,421.095 L 237.252,422.871 L 230.484,422.871 Z "/>
		<path id="dp_path036" fill="#cbd2dc" fill-rule="evenodd" fill-opacity="0.2" stroke="none" stroke-width="0" d="M 230.496,422.443 L 237.263,422.443 L 237.263,422.837 L 230.496,422.837 Z "/>
		<path id="dp_path037" fill="black" fill-opacity="0.2" stroke="none" stroke-width="0" d="M 237.419,423.039 L 230.317,423.039 L 230.317,420.927 L 237.419,420.927 Z M 230.651,422.705 L 237.085,422.705 L 237.085,421.26 L 230.651,421.26 Z "/>
		<path id="dp_path038" fill="#e1e6e9" fill-rule="evenodd" fill-opacity="0.2" stroke="none" stroke-width="0" d="M 273.805,399.641 L 280.573,399.641 L 280.573,401.417 L 273.805,401.417 Z "/>
		<path id="dp_path039" fill="#cbd2dc" fill-rule="evenodd" fill-opacity="0.2" stroke="none" stroke-width="0" d="M 273.817,400.989 L 280.585,400.989 L 280.585,401.384 L 273.817,401.384 Z "/>
		<path id="dp_path040" fill="black" fill-opacity="0.2" stroke="none" stroke-width="0" d="M 280.74,401.584 L 273.639,401.584 L 273.639,399.472 L 280.74,399.472 Z M 273.972,401.251 L 280.407,401.251 L 280.407,399.805 L 273.972,399.805 Z "/>
		<path id="dp_path041" fill="#e1e6e9" fill-rule="evenodd" fill-opacity="0.2" stroke="none" stroke-width="0" d="M 280.585,399.641 L 287.353,399.641 L 287.353,401.417 L 280.585,401.417 Z "/>
		<path id="dp_path042" fill="#cbd2dc" fill-rule="evenodd" fill-opacity="0.2" stroke="none" stroke-width="0" d="M 280.597,400.989 L 287.365,400.989 L 287.365,401.384 L 280.597,401.384 Z "/>
		<path id="dp_path043" fill="black" fill-opacity="0.2" stroke="none" stroke-width="0" d="M 287.52,401.584 L 280.419,401.584 L 280.419,399.472 L 287.52,399.472 Z M 280.752,401.251 L 287.187,401.251 L 287.187,399.805 L 280.752,399.805 Z "/>
		<path id="dp_path044" fill="#e1e6e9" fill-rule="evenodd" fill-opacity="0.2" stroke="none" stroke-width="0" d="M 277.277,397.865 L 284.044,397.865 L 284.044,399.641 L 277.277,399.641 Z "/>
		<path id="dp_path045" fill="#cbd2dc" fill-rule="evenodd" fill-opacity="0.2" stroke="none" stroke-width="0" d="M 277.288,399.213 L 284.056,399.213 L 284.056,399.608 L 277.288,399.608 Z "/>
		<path id="dp_path046" fill="black" fill-opacity="0.2" stroke="none" stroke-width="0" d="M 284.211,399.809 L 277.111,399.809 L 277.111,397.697 L 284.211,397.697 Z M 277.444,399.475 L 283.877,399.475 L 283.877,398.031 L 277.444,398.031 Z "/>
		<path id="dp_path047" fill="white" fill-rule="evenodd" stroke="none" stroke-width="0" d="M 280.141,422.596 C 280.417,422.596 280.641,422.82 280.641,423.096 C 280.641,423.372 280.417,423.596 280.141,423.596 C 279.865,423.596 279.641,423.372 279.641,423.096 C 279.641,422.82 279.865,422.596 280.141,422.596 Z "/>
		<path id="dp_path048" fill="black" stroke="none" stroke-width="0" d="M 280.141,423.763 C 279.775,423.763 279.475,423.461 279.475,423.096 C 279.475,422.731 279.775,422.429 280.141,422.429 C 280.507,422.429 280.808,422.731 280.808,423.096 C 280.808,423.461 280.507,423.763 280.141,423.763 Z M 280.141,422.763 C 279.959,422.763 279.808,422.913 279.808,423.096 C 279.808,423.279 279.959,423.429 280.141,423.429 C 280.324,423.429 280.475,423.279 280.475,423.096 C 280.475,422.913 280.324,422.763 280.141,422.763 Z "/>
		<path id="dp_path049" fill="#e1e6e9" fill-rule="evenodd" stroke="none" stroke-width="0" d="M 255.911,429.208 L 270.804,429.208 L 270.804,430.431 L 255.911,430.431 Z "/>
		<path id="dp_path050" fill="white" fill-rule="evenodd" stroke="none" stroke-width="0" d="M 255.8,429.208 L 270.693,429.208 L 270.693,429.653 L 255.8,429.653 Z "/>
		<path id="dp_path051" fill="black" stroke="none" stroke-width="0" d="M 270.916,430.543 L 255.689,430.543 L 255.689,428.987 L 270.916,428.987 Z M 256.023,430.209 L 270.583,430.209 L 270.583,429.32 L 256.023,429.32 Z "/>
		<path id="dp_path052" fill="#e1e6e9" fill-rule="evenodd" stroke="none" stroke-width="0" d="M 281.585,405.424 C 281.585,404.688 280.988,404.091 280.252,404.091 L 246.019,404.091 C 245.283,404.091 244.685,404.688 244.685,405.424 L 244.685,426.431 C 244.685,427.167 245.283,427.764 246.019,427.764 L 280.252,427.764 C 280.988,427.764 281.585,427.167 281.585,426.431 Z "/>
		<path id="dp_path053" fill="white" stroke="none" stroke-width="0" d="M 280.252,404.091 L 246.019,404.091 C 245.288,404.091 244.685,404.692 244.685,405.424 L 244.685,406.757 C 244.685,406.025 245.288,405.424 246.019,405.424 L 280.252,405.424 C 280.984,405.424 281.585,406.025 281.585,406.757 L 281.585,405.424 C 281.585,404.692 280.984,404.091 280.252,404.091 Z "/>
		<path id="dp_path054" fill="black" stroke="none" stroke-width="0" d="M 280.252,427.931 L 246.019,427.931 C 245.196,427.929 244.52,427.253 244.519,426.431 L 244.519,405.424 C 244.52,404.601 245.196,403.924 246.019,403.923 L 280.252,403.923 C 281.075,403.924 281.752,404.601 281.752,405.424 L 281.752,426.431 C 281.752,427.253 281.075,427.929 280.252,427.931 Z M 246.019,404.257 C 245.379,404.257 244.853,404.784 244.852,405.424 L 244.852,426.431 C 244.853,427.071 245.379,427.597 246.019,427.597 L 280.252,427.597 C 280.892,427.597 281.419,427.071 281.419,426.431 L 281.419,405.424 C 281.419,404.784 280.892,404.257 280.252,404.257 Z "/>
		<path id="dp_path055" fill="black" fill-rule="evenodd" stroke="none" stroke-width="0" d="M 259.745,417.871 L 266.525,417.871 L 266.525,418.205 L 259.745,418.205 Z "/>
		<path id="dp_path056" fill="#e1e6e9" stroke="none" stroke-width="0" d="M 265.192,417.983 L 260.968,417.983 L 259.745,430.209 L 266.415,430.209 Z "/>
		<path id="dp_path057" fill="white" fill-rule="evenodd" stroke="none" stroke-width="0" d="M 261.08,418.093 L 265.303,418.093 L 265.303,419.095 L 261.08,419.095 Z "/>
		<path id="dp_path058" fill="#ccd0da" stroke="none" stroke-width="0" d="M 266.581,430.209 L 259.912,430.209 L 260.024,429.431 L 266.471,429.431 Z "/>
		<path id="dp_path059" fill="black" stroke="none" stroke-width="0" d="M 266.711,430.487 L 259.672,430.487 L 260.928,417.928 L 265.453,417.928 Z M 260.041,430.153 L 266.341,430.153 L 265.152,418.261 L 261.231,418.261 Z "/>
		<path id="dp_path060" fill="white" fill-rule="evenodd" stroke="none" stroke-width="0" d="M 248.019,425.596 C 248.172,425.596 248.296,425.72 248.296,425.873 C 248.296,426.027 248.172,426.151 248.019,426.151 C 247.865,426.151 247.741,426.027 247.741,425.873 C 247.741,425.72 247.865,425.596 248.019,425.596 Z "/>
		<path id="dp_path061" fill="black" stroke="none" stroke-width="0" d="M 248.02,426.264 C 247.807,426.264 247.631,426.088 247.631,425.875 C 247.631,425.661 247.807,425.485 248.02,425.485 C 248.233,425.485 248.409,425.661 248.409,425.875 C 248.409,426.088 248.233,426.264 248.02,426.264 Z M 248.02,425.708 C 247.928,425.708 247.853,425.783 247.853,425.875 C 247.853,425.967 247.928,426.041 248.02,426.041 C 248.112,426.041 248.187,425.967 248.187,425.875 C 248.187,425.783 248.112,425.708 248.02,425.708 Z "/>
		<path id="dp_path062" fill="white" fill-rule="evenodd" stroke="none" stroke-width="0" d="M 279.085,425.319 C 279.423,425.319 279.696,425.592 279.696,425.929 C 279.696,426.267 279.423,426.54 279.085,426.54 C 278.748,426.54 278.475,426.267 278.475,425.929 C 278.475,425.592 278.748,425.319 279.085,425.319 Z "/>
		<path id="dp_path063" fill="black" stroke="none" stroke-width="0" d="M 279.085,426.652 C 278.689,426.652 278.363,426.327 278.363,425.931 C 278.363,425.533 278.689,425.208 279.085,425.208 C 279.481,425.208 279.808,425.533 279.808,425.931 C 279.807,426.327 279.481,426.652 279.085,426.652 Z M 279.085,425.431 C 278.811,425.431 278.585,425.656 278.585,425.931 C 278.585,426.204 278.811,426.431 279.085,426.431 C 279.36,426.431 279.585,426.204 279.585,425.931 C 279.585,425.656 279.36,425.431 279.085,425.431 Z "/>
		<path id="dp_path064" fill="black" stroke="none" stroke-width="0" d="M 263.164,423.096 C 262.584,423.096 262.108,422.62 262.108,422.04 C 262.108,421.461 262.584,420.984 263.164,420.984 C 263.743,420.984 264.22,421.461 264.22,422.04 C 264.219,422.619 263.743,423.096 263.164,423.096 Z M 263.164,421.207 C 262.707,421.207 262.329,421.583 262.329,422.04 C 262.329,422.497 262.707,422.873 263.164,422.873 C 263.621,422.873 263.997,422.497 263.997,422.04 C 263.996,421.583 263.62,421.207 263.164,421.207 Z "/>
		<path id="dp_path065" fill="white" fill-rule="evenodd" stroke="none" stroke-width="0" d="M 262.857,421.735 C 263.027,421.565 263.301,421.565 263.471,421.735 C 263.639,421.903 263.639,422.179 263.471,422.347 C 263.301,422.516 263.027,422.516 262.857,422.347 C 262.689,422.179 262.689,421.903 262.857,421.735 Z "/>
		<path id="dp_path066" fill="black" stroke="none" stroke-width="0" d="M 263.164,422.584 C 262.865,422.584 262.62,422.339 262.62,422.04 C 262.62,421.741 262.865,421.496 263.164,421.496 C 263.463,421.496 263.708,421.741 263.708,422.04 C 263.708,422.184 263.651,422.323 263.548,422.425 C 263.447,422.527 263.308,422.584 263.164,422.584 Z M 263.164,421.717 C 263.161,421.717 263.159,421.717 263.157,421.717 C 262.98,421.717 262.835,421.863 262.835,422.04 C 262.835,422.217 262.98,422.363 263.157,422.363 C 263.243,422.363 263.325,422.328 263.385,422.267 C 263.445,422.207 263.479,422.125 263.479,422.04 C 263.479,421.865 263.337,421.721 263.164,421.717 Z "/>
		<path id="dp_path067" fill="white" fill-rule="evenodd" stroke="none" stroke-width="0" d="M 248.964,425.207 L 249.465,425.207 L 249.465,426.337 L 248.964,426.337 Z "/>
		<path id="dp_path068" fill="black" stroke="none" stroke-width="0" d="M 249.576,426.449 L 248.853,426.449 L 248.853,425.096 L 249.576,425.096 Z M 249.076,426.227 L 249.353,426.227 L 249.353,425.319 L 249.076,425.319 Z "/>
		<path id="dp_path069" fill="black" fill-rule="evenodd" fill-opacity="0.501961" stroke="none" stroke-width="0" d="M 249.02,425.207 L 249.132,425.207 L 249.132,426.429 L 249.02,426.429 Z "/>
		<path id="dp_path070" fill="white" fill-rule="evenodd" stroke="none" stroke-width="0" d="M 249.853,425.207 L 250.353,425.207 L 250.353,426.337 L 249.853,426.337 Z "/>
		<path id="dp_path071" fill="black" stroke="none" stroke-width="0" d="M 250.465,426.449 L 249.743,426.449 L 249.743,425.096 L 250.465,425.096 Z M 249.965,426.227 L 250.243,426.227 L 250.243,425.319 L 249.965,425.319 Z "/>
		<path id="dp_path072" fill="black" fill-rule="evenodd" fill-opacity="0.501961" stroke="none" stroke-width="0" d="M 249.909,425.207 L 250.02,425.207 L 250.02,426.429 L 249.909,426.429 Z "/>
		<path id="dp_path073" fill="white" fill-rule="evenodd" stroke="none" stroke-width="0" d="M 250.743,425.207 L 251.243,425.207 L 251.243,426.337 L 250.743,426.337 Z "/>
		<path id="dp_path074" fill="black" stroke="none" stroke-width="0" d="M 251.355,426.449 L 250.632,426.449 L 250.632,425.096 L 251.355,425.096 Z M 250.855,426.227 L 251.132,426.227 L 251.132,425.319 L 250.855,425.319 Z "/>
		<path id="dp_path075" fill="black" fill-rule="evenodd" fill-opacity="0.501961" stroke="none" stroke-width="0" d="M 250.799,425.207 L 250.909,425.207 L 250.909,426.429 L 250.799,426.429 Z "/>
		<path id="dp_path076" fill="#e1e6e9" fill-rule="evenodd" stroke="none" stroke-width="0" d="M 231.681,430.32 L 294.479,430.32 L 294.479,432.32 L 231.681,432.32 Z "/>
		<path id="dp_path077" fill="white" fill-rule="evenodd" stroke="none" stroke-width="0" d="M 231.792,430.431 L 294.589,430.431 L 294.589,430.876 L 231.792,430.876 Z "/>
		<path id="dp_path078" fill="black" stroke="none" stroke-width="0" d="M 256.929,404.141 L 256.596,404.113 C 256.653,403.567 256.775,403.029 256.957,402.511 C 257.353,401.399 257.981,400.74 258.769,400.592 L 258.829,400.92 C 257.197,401.227 256.932,404.112 256.929,404.141 Z "/>
		<path id="dp_path079" fill="black" stroke="none" stroke-width="0" d="M 267.519,404.104 L 267.2,404.004 C 267.479,403.115 267.312,402.331 266.711,401.687 C 266.431,401.395 266.1,401.157 265.733,400.987 C 259.516,402.524 257.58,400.017 257.501,399.909 L 257.768,399.712 L 257.635,399.811 L 257.768,399.711 C 257.787,399.735 259.685,402.156 265.707,400.649 L 265.759,400.636 L 265.809,400.656 C 265.835,400.667 268.279,401.668 267.519,404.104 Z "/>
		<path id="dp_path080" fill="black" stroke="none" stroke-width="0" d="M 257.125,401.648 C 256.256,401.648 255.497,400.871 255.16,400.347 L 255.44,400.165 C 255.451,400.183 256.52,401.805 257.684,401.165 L 257.844,401.456 C 257.625,401.58 257.377,401.647 257.125,401.648 Z "/>
		<path id="dp_path081" fill="black" stroke="none" stroke-width="0" d="M 256.736,402.389 C 255.891,402.389 255.152,401.629 254.827,401.125 L 255.107,400.944 C 255.116,400.959 256.152,402.529 257.276,401.912 L 257.436,402.204 C 257.223,402.324 256.981,402.388 256.736,402.389 Z "/>
		<path id="dp_path082" fill="black" stroke="none" stroke-width="0" d="M 256.46,403.335 C 255.683,403.335 255.016,402.641 254.715,402.18 L 254.996,401.999 C 255.004,402.013 255.936,403.424 256.943,402.872 L 257.103,403.164 C 256.907,403.275 256.685,403.333 256.46,403.335 Z "/>
		<path id="dp_path083" fill="#8b7163" stroke="none" stroke-width="0" d="M 268.784,400.528 C 267.685,399.872 266.512,399.381 265.251,399.416 C 264.215,399.443 263.224,399.825 262.196,399.956 C 260.344,400.193 258.409,399.535 257.047,398.265 C 257.729,397.405 258.073,396.323 258.013,395.227 C 258.151,395.52 258.344,395.784 258.583,396.004 C 259.301,396.773 260.88,397.588 264.303,397.588 C 264.303,397.588 266.22,397.296 267.701,398.725 C 268.187,399.243 268.555,399.857 268.784,400.528 Z "/>
		<path id="dp_path084" fill="black" stroke="none" stroke-width="0" d="M 269.452,403.979 L 269.119,403.979 C 269.119,401.505 268.511,399.728 267.312,398.696 C 265.936,397.512 264.233,397.751 264.217,397.753 L 264.193,397.753 C 262.243,397.753 259.652,397.473 258.368,396.14 C 258.256,396.024 258.153,395.899 258.063,395.765 C 257.944,397.573 256.909,398.552 256.856,398.6 C 255.327,399.876 254.775,401.567 255.211,403.613 C 255.228,403.679 255.239,403.745 255.244,403.812 L 254.911,403.812 C 254.911,403.796 254.896,403.733 254.884,403.679 C 254.42,401.496 255.009,399.703 256.637,398.344 C 256.9,398.069 257.119,397.755 257.281,397.411 C 257.649,396.652 257.801,395.805 257.717,394.967 C 257.699,394.876 257.689,394.784 257.689,394.692 L 258.023,394.676 C 258.035,394.761 258.044,394.847 258.052,394.931 C 258.144,395.308 258.341,395.652 258.62,395.921 C 259.287,396.605 260.791,397.419 264.177,397.421 C 264.36,397.397 266.079,397.199 267.524,398.44 C 268.804,399.537 269.452,401.401 269.452,403.979 Z "/>
		<path id="dp_path085" fill="#f4e0cc" stroke="none" stroke-width="0" d="M 250.743,430.353 C 250.743,429.149 251.733,428.159 252.939,428.159 C 254.143,428.159 255.133,429.149 255.133,430.353"/>
		<path id="dp_path086" fill="#fff8ef" stroke="none" stroke-width="0" d="M 252.939,428.909 C 253.933,428.909 254.808,429.587 255.06,430.548 L 255.133,430.548 C 255.133,429.344 254.143,428.353 252.939,428.353 C 251.733,428.353 250.743,429.344 250.743,430.548 L 250.816,430.548 C 251.068,429.587 251.944,428.909 252.939,428.909 Z "/>
		<path id="dp_path087" fill="#fff8ef" stroke="none" stroke-width="0" d="M 274.167,428.797 C 275.161,428.799 276.037,429.475 276.289,430.437 L 276.363,430.437 C 276.363,429.233 275.371,428.241 274.167,428.241 C 272.963,428.241 271.972,429.233 271.972,430.437 L 272.045,430.437 C 272.296,429.475 273.172,428.799 274.167,428.797 Z "/>
		<path id="dp_path088" fill="#f4e0cc" stroke="none" stroke-width="0" d="M 271.749,430.465 C 271.749,429.261 272.74,428.269 273.944,428.269 C 275.149,428.269 276.14,429.261 276.14,430.465"/>
		<path id="dp_path089" fill="black" stroke="none" stroke-width="0" d="M 255.3,430.353 L 254.967,430.353 C 254.967,429.241 254.051,428.325 252.939,428.325 C 251.825,428.325 250.909,429.241 250.909,430.353 L 250.576,430.353 C 250.576,429.059 251.643,427.992 252.939,427.992 C 254.233,427.992 255.3,429.059 255.3,430.353 Z "/>
		<path id="dp_path090" fill="#fff8ef" stroke="none" stroke-width="0" d="M 274.056,428.687 C 275.051,428.687 275.927,429.364 276.177,430.325 L 276.251,430.325 C 276.251,429.121 275.26,428.131 274.056,428.131 C 272.852,428.131 271.861,429.121 271.861,430.325 L 271.933,430.325 C 272.185,429.364 273.061,428.687 274.056,428.687 Z "/>
		<path id="dp_path091" fill="black" stroke="none" stroke-width="0" d="M 276.307,430.243 L 275.973,430.243 C 275.973,429.129 275.057,428.215 273.944,428.215 C 272.832,428.215 271.916,429.129 271.916,430.243 L 271.583,430.243 C 271.583,428.947 272.649,427.881 273.944,427.881 C 275.24,427.881 276.307,428.947 276.307,430.243 Z "/>
		<path id="dp_path092" fill="black" stroke="none" stroke-width="0" d="M 294.645,432.488 L 231.515,432.488 L 231.515,430.153 L 294.645,430.153 Z M 231.848,432.155 L 294.312,432.155 L 294.312,430.487 L 231.848,430.487 Z "/>
		<path id="dp_path093" fill="black" fill-rule="evenodd" stroke="none" stroke-width="0" d="M 263.08,422.984 L 263.191,422.984 L 263.191,430.32 L 263.08,430.32 Z "/>
		<path id="dp_path094" fill="black" stroke="none" stroke-width="0" d="M 264.747,435.933 C 263.864,435.932 263.137,435.205 263.136,434.321 L 263.136,432.321 L 263.247,432.321 L 263.247,434.321 C 263.247,435.145 263.924,435.823 264.747,435.823 C 265.571,435.823 266.248,435.145 266.248,434.321 L 266.248,432.265 L 266.359,432.265 L 266.359,434.321 C 266.357,435.205 265.631,435.932 264.747,435.933 Z "/>
		<path id="dp_path095" fill="black" fill-rule="evenodd" stroke="none" stroke-width="0" d="M 262.965,413.84 C 263.709,413.184 264.573,413.764 264.568,414.383 C 264.564,414.827 263.927,415.188 263.136,415.188 C 262.347,415.188 261.792,414.819 261.705,414.383 C 261.631,414.008 261.872,414.801 262.965,413.84 Z "/>
	</g>
</svg>