<?xml version="1.0" encoding="UTF-8" standalone="no"?>
<svg version="1.1" xmlns="http://www.w3.org/2000/svg" xmlns:xlink="http://www.w3.org/1999/xlink" width="295.551" height="560.899">
	<defs>
		<linearGradient id="grad_dp_001" gradientUnits="userSpaceOnUse" x1="323.487" y1="1932.96" x2="447.53" y2="1932.96">
			<stop offset="0" stop-color="#daf5fd"/>
			<stop offset="1" stop-color="#00c9fc"/>
		</linearGradient>
		<linearGradient id="grad_dp_002" gradientUnits="userSpaceOnUse" x1="323.487" y1="1945.06" x2="436.185" y2="1945.06">
			<stop offset="0" stop-color="#abebfe" stop-opacity="0.501961"/>
			<stop offset="1" stop-color="#00c9fc" stop-opacity="0.501961"/>
		</linearGradient>
		<radialGradient id="grad_dp_003" gradientUnits="userSpaceOnUse" cx="402.547" cy="1930.2" r="81.1557">
			<stop offset="0" stop-color="white" stop-opacity="0.8"/>
			<stop offset="1" stop-color="white" stop-opacity="0"/>
		</radialGradient>
		<linearGradient id="grad_dp_004" gradientUnits="userSpaceOnUse" x1="426.531" y1="1905.88" x2="361.116" y2="1969.63">
			<stop offset="0" stop-color="#00c9fc"/>
			<stop offset="1" stop-color="#017bc0"/>
		</linearGradient>
		<linearGradient id="grad_dp_005" gradientUnits="userSpaceOnUse" x1="192.523" y1="1991.08" x2="292.662" y2="1991.08">
			<stop offset="0" stop-color="#daf5fd"/>
			<stop offset="1" stop-color="#abebfe"/>
		</linearGradient>
		<linearGradient id="grad_dp_006" gradientUnits="userSpaceOnUse" x1="190.865" y1="2005.91" x2="294.588" y2="2005.91">
			<stop offset="0" stop-color="#abebfe" stop-opacity="0.501961"/>
			<stop offset="1" stop-color="#00c9fc" stop-opacity="0.501961"/>
		</linearGradient>
		<radialGradient id="grad_dp_007" gradientUnits="userSpaceOnUse" cx="223.735" cy="1983.28" r="76.7423">
			<stop offset="0" stop-color="white" stop-opacity="0.8"/>
			<stop offset="1" stop-color="white" stop-opacity="0"/>
		</radialGradient>
		<linearGradient id="grad_dp_008" gradientUnits="userSpaceOnUse" x1="189.227" y1="1993.5" x2="296.226" y2="1993.5">
			<stop offset="0" stop-color="#00c9fc"/>
			<stop offset="1" stop-color="#017bc0"/>
		</linearGradient>
		<clipPath id="clip_dp_001" clipPathUnits="userSpaceOnUse" clip-rule="evenodd">
			<path d="M 383.871,1463.56 L 484.673,1463.56 L 484.673,1531.69 L 383.871,1531.69 Z " clip-rule="evenodd"/>
		</clipPath>
	</defs>
	<g id="dp_dp001" transform="matrix(1,0,0,1,-189.227,-1463.56)">
		<path id="dp_path002" fill="#00c9fc" fill-rule="evenodd" stroke="none" stroke-width="0" d="M 446.124,1933.45 C 444.161,1928.73 440.676,1925.11 436.475,1922.92 C 435.883,1911.79 426.671,1902.95 415.393,1902.95 C 408.047,1902.95 401.579,1906.7 397.796,1912.39 C 394.488,1909.92 390.384,1908.46 385.937,1908.46 C 376.827,1908.46 369.151,1914.6 366.821,1922.96 C 363.627,1920.76 359.667,1919.63 355.5,1920.04 C 347.253,1920.85 340.969,1927.43 340.232,1935.38 C 338.736,1934.7 337.075,1934.31 335.324,1934.31 C 328.787,1934.31 323.487,1939.61 323.487,1946.15 C 323.487,1952.69 328.787,1957.99 335.324,1957.99 C 337.985,1957.99 340.44,1957.11 342.417,1955.63 C 345.877,1962.44 352.952,1967.11 361.117,1967.11 C 367.619,1967.11 373.429,1964.15 377.275,1959.51 C 380.973,1965.45 387.567,1969.41 395.087,1969.41 C 403.236,1969.41 410.3,1964.76 413.767,1957.97 C 419.543,1962.52 427.541,1963.89 434.811,1960.87 C 445.507,1956.42 450.571,1944.15 446.124,1933.45 Z "/>
		<path id="dp_path003" fill="url(#grad_dp_001)" fill-rule="evenodd" stroke="none" stroke-width="0" d="M 446.124,1933.45 C 444.161,1928.73 440.676,1925.11 436.475,1922.92 C 435.883,1911.79 426.671,1902.95 415.393,1902.95 C 408.047,1902.95 401.579,1906.7 397.796,1912.39 C 394.488,1909.92 390.384,1908.46 385.937,1908.46 C 376.827,1908.46 369.151,1914.6 366.821,1922.96 C 363.627,1920.76 359.667,1919.63 355.5,1920.04 C 347.253,1920.85 340.969,1927.43 340.232,1935.38 C 338.736,1934.7 337.075,1934.31 335.324,1934.31 C 328.787,1934.31 323.487,1939.61 323.487,1946.15 C 323.487,1952.69 328.747,1954.93 335.284,1954.93 C 337.945,1954.93 341.277,1951.83 343.255,1950.35 C 346.713,1957.16 353.32,1960.02 361.484,1960.02 C 367.987,1960.02 373.797,1955.29 377.641,1950.65 C 381.341,1956.59 387.684,1962.98 395.205,1962.98 C 403.355,1962.98 409.595,1955.96 413.063,1949.17 C 418.839,1953.72 426.012,1958.69 433.283,1955.66 C 443.979,1951.22 450.571,1944.15 446.124,1933.45 Z "/>
		<path id="dp_path004" fill="#daf5fd" fill-rule="evenodd" stroke="none" stroke-width="0" d="M 446.124,1933.45 C 444.161,1928.73 440.676,1925.11 436.475,1922.92 C 435.883,1911.79 427.853,1904.64 416.576,1904.64 C 409.229,1904.64 402.087,1911.16 398.304,1916.85 C 394.996,1914.38 390.891,1912.91 386.445,1912.91 C 377.335,1912.91 368.787,1920.09 368.491,1929.69 C 365.296,1927.48 360.703,1925.44 356.537,1925.85 C 348.289,1926.66 344.139,1933.69 343.401,1941.64 C 331.619,1934.19 327.315,1942.38 327.315,1945.77 C 327.315,1949.17 330.444,1954.58 336.98,1954.58 C 339.641,1954.58 341.276,1951.83 343.253,1950.35 C 346.713,1957.16 353.319,1960.02 361.484,1960.02 C 367.985,1960.02 373.796,1955.29 377.641,1950.65 C 381.34,1956.59 387.684,1962.98 395.204,1962.98 C 403.353,1962.98 409.595,1955.96 413.063,1949.17 C 418.837,1953.72 426.012,1958.69 433.281,1955.66 C 443.979,1951.22 450.571,1944.15 446.124,1933.45 Z "/>
		<path id="dp_path005" fill="url(#grad_dp_002)" fill-rule="evenodd" stroke="none" stroke-width="0" d="M 367.529,1920.89 C 367.257,1921.56 367.019,1922.25 366.821,1922.96 C 365.407,1921.99 363.841,1921.22 362.177,1920.71 C 358.469,1920.68 354.615,1920.86 350.611,1921.27 C 344.865,1923.67 340.815,1929.09 340.233,1935.38 C 338.737,1934.7 337.076,1934.31 335.324,1934.31 C 328.787,1934.31 323.487,1939.61 323.487,1946.15 C 323.487,1952.69 328.787,1957.99 335.324,1957.99 C 337.985,1957.99 340.44,1957.11 342.417,1955.63 C 345.877,1962.44 352.952,1967.11 361.117,1967.11 C 367.62,1967.11 373.431,1964.15 377.276,1959.51 C 380.973,1965.45 387.568,1969.41 395.088,1969.41 C 403.237,1969.41 410.3,1964.76 413.767,1957.97 C 419.543,1962.52 427.541,1963.89 434.812,1960.87 C 435.28,1960.67 435.737,1960.46 436.185,1960.24 C 429.069,1949.61 407.559,1923.33 367.529,1920.89 Z "/>
		<path id="dp_path006" fill="url(#grad_dp_003)" fill-rule="evenodd" stroke="none" stroke-width="0" d="M 446.124,1933.45 C 444.161,1928.73 440.676,1925.11 436.475,1922.92 C 435.883,1911.79 426.671,1902.95 415.393,1902.95 C 408.047,1902.95 401.579,1906.7 397.796,1912.39 C 394.488,1909.92 390.384,1908.46 385.937,1908.46 C 376.827,1908.46 369.151,1914.6 366.821,1922.96 C 363.627,1920.76 359.667,1919.63 355.5,1920.04 C 347.253,1920.85 340.969,1927.43 340.232,1935.38 C 338.736,1934.7 337.075,1934.31 335.324,1934.31 C 328.787,1934.31 323.487,1939.61 323.487,1946.15 C 323.487,1952.69 328.787,1957.99 335.324,1957.99 C 337.985,1957.99 340.44,1957.11 342.417,1955.63 C 345.877,1962.44 352.952,1967.11 361.117,1967.11 C 367.619,1967.11 373.429,1964.15 377.275,1959.51 C 380.973,1965.45 387.567,1969.41 395.087,1969.41 C 403.236,1969.41 410.3,1964.76 413.767,1957.97 C 419.543,1962.52 427.541,1963.89 434.811,1960.87 C 445.507,1956.42 450.571,1944.15 446.124,1933.45 Z "/>
		<path id="dp_path007" fill="url(#grad_dp_004)" fill-rule="evenodd" stroke="none" stroke-width="0" d="M 395.088,1971.07 C 387.941,1971.07 381.361,1967.78 377.095,1962.17 C 372.867,1966.39 367.155,1968.77 361.117,1968.77 C 353.165,1968.77 345.932,1964.68 341.831,1957.98 C 339.849,1959.08 337.632,1959.65 335.324,1959.65 C 327.881,1959.65 321.827,1953.59 321.827,1946.15 C 321.827,1938.71 327.881,1932.65 335.324,1932.65 C 336.543,1932.65 337.737,1932.81 338.893,1933.13 C 340.541,1925.25 347.16,1919.19 355.337,1918.38 C 355.951,1918.32 356.572,1918.29 357.185,1918.29 C 360.248,1918.29 363.224,1919.04 365.907,1920.47 C 369.095,1912.32 377.045,1906.8 385.937,1906.8 C 390.043,1906.8 393.971,1907.93 397.397,1910.1 C 401.701,1904.55 408.311,1901.28 415.393,1901.28 C 427.188,1901.28 436.971,1910.26 438.063,1921.9 C 442.359,1924.37 445.745,1928.22 447.656,1932.81 C 452.448,1944.34 446.972,1957.61 435.448,1962.4 C 432.672,1963.56 429.751,1964.14 426.768,1964.14 L 426.768,1964.14 C 422.348,1964.14 417.988,1962.82 414.301,1960.4 C 410.187,1967.03 402.988,1971.07 395.088,1971.07 Z M 377.467,1956.67 L 378.684,1958.63 C 382.237,1964.34 388.369,1967.75 395.088,1967.75 C 402.379,1967.75 408.971,1963.72 412.288,1957.22 L 413.208,1955.42 L 414.795,1956.67 C 418.197,1959.35 422.449,1960.82 426.769,1960.82 C 429.312,1960.82 431.803,1960.32 434.175,1959.34 C 444.005,1955.25 448.68,1943.92 444.591,1934.09 C 442.857,1929.92 439.703,1926.48 435.707,1924.39 L 434.867,1923.95 L 434.817,1923.01 C 434.268,1912.69 425.736,1904.61 415.393,1904.61 C 408.861,1904.61 402.8,1907.86 399.18,1913.31 L 398.208,1914.77 L 396.803,1913.72 C 393.647,1911.36 389.889,1910.12 385.937,1910.12 C 377.803,1910.12 370.6,1915.58 368.42,1923.41 L 367.795,1925.65 L 365.877,1924.33 C 363.303,1922.55 360.297,1921.62 357.185,1921.62 C 356.68,1921.62 356.168,1921.64 355.664,1921.69 C 348.356,1922.41 342.561,1928.23 341.885,1935.53 L 341.669,1937.86 L 339.543,1936.89 C 338.211,1936.28 336.791,1935.97 335.323,1935.97 C 329.712,1935.97 325.147,1940.54 325.147,1946.15 C 325.147,1951.76 329.711,1956.33 335.323,1956.33 C 337.541,1956.33 339.649,1955.63 341.42,1954.3 L 343.001,1953.11 L 343.896,1954.88 C 347.208,1961.4 353.807,1965.45 361.117,1965.45 C 366.888,1965.45 372.311,1962.9 375.995,1958.45 Z "/>
		<path id="dp_path008" fill="#00c9fc" fill-rule="evenodd" stroke="none" stroke-width="0" d="M 190.865,2005.68 C 190.865,2000.37 193.344,1995.64 197.208,1992.58 C 196.775,1991.46 196.535,1990.25 196.535,1988.98 C 196.535,1983.48 200.995,1979.01 206.497,1979.01 C 206.605,1979.01 206.711,1979.02 206.817,1979.02 C 208.387,1970.81 215.604,1964.61 224.269,1964.61 C 233.668,1964.61 241.363,1971.91 241.997,1981.15 C 243.789,1978.51 246.815,1976.77 250.245,1976.77 C 255.685,1976.77 260.104,1981.14 260.204,1986.55 C 263.129,1983.65 267.283,1982.02 271.708,1982.45 C 279.577,1983.23 285.329,1990.24 284.553,1998.11 C 284.399,1999.68 283.991,2001.17 283.38,2002.54 C 283.788,2002.49 284.203,2002.46 284.624,2002.46 C 290.127,2002.46 294.588,2006.92 294.588,2012.42 C 294.588,2017.92 290.127,2022.38 284.624,2022.38 C 284.592,2022.38 284.561,2022.38 284.531,2022.38 L 284.531,2022.38 L 207.567,2022.38 L 207.567,2022.38 C 198.343,2022.38 190.865,2014.91 190.865,2005.68 Z "/>
		<path id="dp_path009" fill="url(#grad_dp_005)" fill-rule="evenodd" stroke="none" stroke-width="0" d="M 192.523,2004.9 C 192.523,1999.59 193.344,1995.64 197.208,1992.58 C 196.775,1991.46 196.535,1990.25 196.535,1988.98 C 196.535,1983.48 200.995,1979.01 206.497,1979.01 C 206.605,1979.01 206.711,1979.02 206.817,1979.02 C 208.387,1970.81 215.604,1964.61 224.269,1964.61 C 233.668,1964.61 241.363,1971.91 241.997,1981.15 C 243.789,1978.51 246.815,1976.77 250.245,1976.77 C 255.685,1976.77 260.104,1981.14 260.204,1986.55 C 263.129,1983.65 267.283,1982.02 271.708,1982.45 C 279.577,1983.23 285.329,1990.24 284.553,1998.11 C 284.399,1999.68 283.991,2001.17 283.38,2002.54 C 283.788,2002.49 284.203,2002.46 284.624,2002.46 C 290.127,2002.46 292.661,2004.75 292.661,2010.25 C 292.661,2015.75 290.127,2017.36 284.624,2017.36 C 284.592,2017.36 207.567,2017.54 207.567,2017.54 C 198.343,2017.54 192.523,2014.12 192.523,2004.9 Z "/>
		<path id="dp_path010" fill="url(#grad_dp_006)" fill-rule="evenodd" stroke="none" stroke-width="0" d="M 294.588,2012.42 C 294.588,2006.92 290.127,2002.46 284.624,2002.46 C 284.203,2002.46 283.788,2002.49 283.38,2002.54 C 283.957,2001.24 284.349,1999.84 284.523,1998.37 C 240.004,1983.2 209.345,1990.39 192.939,1997.62 C 191.619,2000.01 190.865,2002.76 190.865,2005.68 C 190.865,2014.91 198.343,2022.38 207.567,2022.38 L 284.532,2022.38 L 284.532,2022.38 C 284.563,2022.38 284.593,2022.38 284.624,2022.38 C 290.128,2022.38 294.588,2017.92 294.588,2012.42 Z "/>
		<path id="dp_path011" fill="url(#grad_dp_007)" fill-rule="evenodd" stroke="none" stroke-width="0" d="M 190.865,2005.68 C 190.865,2000.37 193.344,1995.64 197.208,1992.58 C 196.775,1991.46 196.535,1990.25 196.535,1988.98 C 196.535,1983.48 200.995,1979.01 206.497,1979.01 C 206.605,1979.01 206.711,1979.02 206.817,1979.02 C 208.387,1970.81 215.604,1964.61 224.269,1964.61 C 233.668,1964.61 241.363,1971.91 241.997,1981.15 C 243.789,1978.51 246.815,1976.77 250.245,1976.77 C 255.685,1976.77 260.104,1981.14 260.204,1986.55 C 263.129,1983.65 267.283,1982.02 271.708,1982.45 C 279.577,1983.23 285.329,1990.24 284.553,1998.11 C 284.399,1999.68 283.991,2001.17 283.38,2002.54 C 283.788,2002.49 284.203,2002.46 284.624,2002.46 C 290.127,2002.46 294.588,2006.92 294.588,2012.42 C 294.588,2017.92 290.127,2022.38 284.624,2022.38 C 284.592,2022.38 284.561,2022.38 284.531,2022.38 L 284.531,2022.38 L 207.567,2022.38 L 207.567,2022.38 C 198.343,2022.38 190.865,2014.91 190.865,2005.68 Z "/>
		<path id="dp_path012" fill="url(#grad_dp_008)" fill-rule="evenodd" stroke="none" stroke-width="0" d="M 284.624,2024.02 C 284.617,2024.02 284.611,2024.02 284.603,2024.02 L 284.531,2024.02 L 207.567,2024.02 C 197.455,2024.02 189.227,2015.79 189.227,2005.68 C 189.227,2000.43 191.429,1995.52 195.307,1992.04 C 195.035,1991.05 194.896,1990.02 194.896,1988.98 C 194.896,1982.92 199.569,1977.93 205.501,1977.42 C 207.727,1968.97 215.416,1962.97 224.269,1962.97 C 233.253,1962.97 240.943,1969.17 243.084,1977.61 C 245.101,1976.03 247.613,1975.14 250.245,1975.14 C 255.469,1975.14 259.947,1978.67 261.372,1983.47 C 263.988,1981.7 267.068,1980.74 270.288,1980.74 C 270.812,1980.74 271.344,1980.77 271.868,1980.82 C 280.624,1981.69 287.047,1989.51 286.184,1998.27 C 286.097,1999.15 285.937,2000.02 285.708,2000.87 C 291.599,2001.42 296.227,2006.39 296.227,2012.42 C 296.227,2018.29 291.839,2023.16 286.169,2023.92 L 286.169,2024.02 L 284.699,2024.02 C 284.673,2024.02 284.649,2024.02 284.624,2024.02 Z M 282.893,2020.73 L 284.629,2020.75 L 284.624,2020.75 C 289.215,2020.75 292.949,2017.01 292.949,2012.42 C 292.949,2007.83 289.215,2004.09 284.624,2004.09 C 284.293,2004.09 283.943,2004.12 283.583,2004.16 L 280.701,2004.52 L 281.884,2001.87 C 282.44,2000.62 282.791,1999.3 282.924,1997.95 C 283.609,1990.99 278.505,1984.77 271.547,1984.08 C 271.129,1984.04 270.705,1984.02 270.287,1984.02 C 266.925,1984.02 263.755,1985.33 261.359,1987.71 L 258.636,1990.42 L 258.567,1986.58 C 258.484,1982.08 254.751,1978.41 250.245,1978.41 C 247.483,1978.41 244.907,1979.78 243.352,1982.07 L 240.688,1985.99 L 240.363,1981.26 C 239.785,1972.84 232.715,1966.25 224.268,1966.25 C 216.539,1966.25 209.876,1971.75 208.425,1979.33 L 208.163,1980.71 L 206.687,1980.66 C 206.624,1980.65 206.561,1980.65 206.497,1980.65 C 201.907,1980.65 198.172,1984.39 198.172,1988.98 C 198.172,1990.01 198.361,1991.02 198.735,1991.99 L 199.172,1993.11 L 198.224,1993.86 C 194.588,1996.74 192.503,2001.05 192.503,2005.68 C 192.503,2013.99 199.26,2020.75 207.567,2020.75 L 282.892,2020.75 L 282.892,2020.73 Z "/>
		<path id="dp_path013" fill="black" fill-rule="evenodd" stroke="none" stroke-width="0" d="M 385.625,1580.74 C 385.403,1581.05 384.545,1581.71 383.721,1582.21 C 381.293,1583.68 379.081,1585.49 376.984,1587.4 C 376.012,1588.28 375.041,1589.09 373.981,1589.86 C 371.992,1591.31 370.471,1593.32 368.888,1595.18 C 368.116,1596.09 367.292,1596.93 366.452,1597.78 C 365.703,1598.66 364.953,1599.55 364.204,1600.43 C 362.675,1601.94 361.332,1603.58 360.016,1605.28 C 358.317,1608.45 356.327,1611.44 354.368,1614.45 C 354.011,1615.09 353.652,1615.74 353.293,1616.38 L 352.799,1617.19 C 352.427,1617.78 352.232,1618.18 352.017,1618.78 C 351.808,1619.37 351.529,1619.82 351.135,1620.3 C 350.987,1620.9 350.84,1621.5 350.692,1622.1 C 350.125,1623.04 349.677,1624.06 349.264,1625.07 C 349.092,1625.49 348.88,1625.79 348.525,1626.05 L 348.349,1626.77 C 348.152,1627.57 347.795,1628.29 347.488,1629.05 C 346.811,1630.74 346.201,1632.45 345.632,1634.17 C 343.971,1639.21 342.829,1644.38 341.567,1649.53 L 341.268,1651.16 C 340.291,1656.47 339.829,1661.79 339.26,1667.14 L 339.177,1667.19 C 338.833,1667.4 338.215,1667.36 337.817,1667.41 C 337.005,1667.51 336.365,1667.65 335.62,1667.99 C 334.963,1668.28 334.311,1668.52 333.625,1668.74 C 332.937,1668.97 331.968,1669.56 330.932,1670.39 C 329.413,1671.61 327.616,1673.07 326.745,1674.87 C 326.303,1675.79 325.711,1676.61 325.125,1677.44 C 324.904,1677.8 324.684,1678.16 324.463,1678.52 C 324.313,1679.12 324.165,1679.73 324.017,1680.33 C 323.503,1681.18 323.136,1682.09 322.76,1683.02 C 322.083,1684.09 321.765,1685.38 321.387,1686.58 C 320.252,1690.16 319.364,1693.9 318.685,1697.59 C 318.085,1700.86 317.695,1704.14 317.275,1707.42 C 317.1,1708.78 316.937,1710.15 316.868,1711.52 C 316.844,1711.97 316.795,1712.42 316.737,1712.87 C 316.681,1713.32 316.64,1713.85 316.649,1714.04 C 316.693,1715.03 316.507,1716.06 316.413,1717.04 C 316.435,1717.5 316.425,1717.94 316.383,1718.4 C 316.297,1719.28 316.272,1720.16 316.235,1721.04 C 316.211,1721.55 316.189,1722.06 316.155,1722.57 C 316.125,1723.02 316.319,1723.17 317.192,1723.37 C 318.128,1723.58 318.292,1723.54 318.471,1723.05 C 319.051,1721.46 319.513,1719.83 320.021,1718.23 C 320.673,1716.17 321.355,1714.12 322.032,1712.07 C 322.356,1711.17 322.68,1710.28 322.989,1709.38 C 323.373,1708.27 323.767,1707.17 324.2,1706.08 C 324.499,1705.33 324.776,1704.57 325.056,1703.81 C 325.227,1703.39 325.399,1702.96 325.569,1702.54 C 325.828,1701.97 326.072,1701.4 326.291,1700.81 C 326.469,1700.33 326.672,1699.88 326.929,1699.43 L 327.18,1698.81 C 327.637,1697.69 328.177,1696.61 328.692,1695.51 C 328.997,1694.82 329.365,1694.21 329.764,1693.57 C 330.569,1691.88 331.629,1690.38 332.72,1688.86 C 333.196,1688.05 333.684,1687.26 334.349,1686.59 C 335.107,1685.83 336.367,1684.76 337.503,1684.68 C 338.347,1684.62 339.251,1685.32 339.215,1686.18 C 339.199,1686.56 339.248,1687.55 339.324,1688.39 C 339.409,1689.35 339.319,1689.95 339.077,1690 C 338.848,1690.05 338.759,1690.41 338.853,1690.89 C 339.051,1691.87 339.164,1692.87 339.288,1693.87 C 339.621,1695.02 339.829,1696.15 339.935,1697.35 C 339.979,1697.84 340.117,1698.56 340.244,1698.94 C 340.597,1700.02 340.612,1701.21 340.712,1702.33 C 340.797,1703.31 340.932,1704.28 341.065,1705.25 C 343.219,1705.81 345.369,1706.37 347.523,1706.92 L 348.139,1707.17 C 348.38,1707.33 348.757,1707.43 348.757,1707.43 L 349.888,1707.7 L 351.397,1708.07 L 352.152,1708.26 L 352.385,1708.12 L 352.527,1708.35 L 356.3,1709.28 L 355.231,1712.81 L 355.373,1713.05 L 355.14,1713.19 L 354.769,1714.7 C 352.459,1724.13 352.459,1724.13 352.223,1724.27 L 351.112,1728.79 L 350.329,1732.8 L 351.225,1733.22 L 355.752,1734.33 C 356.315,1733.67 356.315,1733.67 357.147,1730.27 L 357.004,1730.04 L 357.239,1729.9 C 360.661,1715.94 360.661,1715.94 360.896,1715.8 L 362.005,1711.27 L 362.192,1710.52 L 364.22,1711.22 L 366.859,1711.87 L 369.641,1712.75 L 369.916,1712.62 L 373.471,1713.53 C 376.377,1714.28 377.104,1714.37 377.445,1714 C 377.991,1713.41 378.381,1712.72 378.809,1712.04 C 379.285,1711.41 379.761,1710.79 380.267,1710.18 C 380.975,1709.33 381.537,1708.39 382.133,1707.46 C 383.495,1705.46 384.828,1703.45 386.148,1701.43 C 387.448,1699.44 388.505,1698.07 388.836,1697.97 C 390.635,1697.41 391.804,1699.95 392.084,1701.27 C 392.549,1703.48 392.964,1705.82 392.975,1708.08 C 392.977,1708.77 393.02,1709.45 393.069,1710.14 C 392.921,1710.74 392.773,1711.34 392.625,1711.95 C 392.673,1712.72 392.633,1713.48 392.561,1714.25 C 392.527,1714.61 392.537,1715.1 392.585,1715.32 C 392.76,1716.12 392.469,1717.09 392.369,1717.88 C 392.275,1719.51 391.991,1721.12 391.779,1722.73 C 391.109,1729.01 389.7,1735.21 388.547,1741.41 L 389.38,1741.69 L 390.216,1741.98 C 390.841,1742.18 391.048,1741.2 391.261,1740.74 C 391.455,1740.33 391.64,1739.91 391.827,1739.5 C 392.037,1739.23 392.249,1738.96 392.463,1738.69 C 392.611,1738.09 392.759,1737.49 392.905,1736.89 C 393.8,1735.4 394.521,1733.73 395.173,1732.12 C 395.344,1731.7 395.559,1731.41 395.915,1731.14 C 396.063,1730.54 396.211,1729.94 396.357,1729.34 C 396.805,1729 396.881,1728.83 397.021,1728.26 C 397.217,1727.46 397.575,1726.73 397.881,1725.97 C 398.181,1725.23 398.456,1724.47 398.733,1723.72 C 399.299,1722.3 399.793,1720.85 400.291,1719.41 C 401.703,1715.3 402.635,1711.08 403.668,1706.86 L 403.875,1705.61 C 404.037,1704.63 404.173,1703.64 404.299,1702.66 C 404.339,1701.87 404.403,1701.09 404.476,1700.3 C 404.505,1699.64 404.535,1698.98 404.563,1698.32 C 404.657,1696.8 404.305,1695.27 404.081,1693.77 C 404.049,1693.17 404.02,1692.57 403.991,1691.98 C 403.203,1689.44 402.352,1686.86 400.555,1684.83 C 400.021,1684.22 399.511,1683.65 398.892,1683.14 C 398.483,1682.8 398.121,1682.58 397.911,1682.53 C 397.035,1682.34 397.064,1681.87 397.375,1681.17 C 397.704,1680.47 398.005,1679.76 398.299,1679.04 C 398.555,1678.6 398.759,1678.14 398.937,1677.65 C 399.156,1677.07 399.397,1676.5 399.66,1675.93 C 400.044,1674.98 400.409,1674.01 400.767,1673.05 C 401.287,1671.74 401.776,1670.42 402.237,1669.09 C 404.101,1663.69 405.411,1658.19 406.769,1652.65 L 407.068,1651.02 C 407.637,1647.93 408.053,1644.83 408.452,1641.71 C 408.484,1641.08 408.531,1640.47 408.609,1639.85 C 408.672,1639.34 408.705,1638.84 408.681,1638.32 C 408.724,1637.88 408.768,1637.44 408.808,1637 C 408.864,1635.68 408.921,1634.36 408.98,1633.04 C 409.027,1632.29 408.984,1631.58 408.923,1630.83 C 408.901,1626.34 408.675,1621.9 408.311,1617.43 C 408.215,1616.25 408.077,1615.16 408.004,1615.01 C 407.481,1613.93 407.437,1612.49 407.209,1611.32 C 406.471,1607.48 405.572,1603.72 404.367,1600 C 403.459,1597.21 402.444,1594.46 401.292,1591.76 C 400.352,1589.55 399.207,1587.47 398.085,1585.35 L 397.817,1584.41 C 397.741,1584.31 397.692,1583.7 397.549,1583.46 L 394.135,1577.83 L 393.344,1577.05 C 392.884,1576.69 392.181,1577.2 391.739,1577.44 L 390.488,1578.11 L 390.287,1578.07 C 390.087,1578.03 390.087,1578.03 390.087,1578.03 Z M 361.405,1608.58 C 360.445,1609.16 359.839,1610.3 359.167,1611.19 C 357.576,1613.5 356.173,1615.9 354.809,1618.36 C 354.437,1618.96 354.101,1619.56 353.86,1620.23 C 353.651,1620.82 353.372,1621.27 352.977,1621.75 C 352.831,1622.35 352.683,1622.95 352.535,1623.55 L 352.368,1623.83 C 352.025,1624.4 351.777,1625.02 351.527,1625.63 C 351.356,1626.05 351.144,1626.34 350.787,1626.61 C 350.639,1627.21 350.492,1627.81 350.344,1628.41 C 350.181,1628.53 350.017,1628.66 349.855,1628.78 C 349.691,1629.45 349.525,1630.12 349.361,1630.79 C 349.311,1631 349.217,1631.38 349.217,1631.38 C 348.497,1632.47 348.224,1633.8 347.916,1635.06 C 347.352,1635.72 347.352,1635.72 347.125,1637.46 L 346.891,1637.6 L 347.033,1637.84 C 346.471,1638.5 346.471,1638.5 345.967,1641.37 L 344.577,1647.03 C 343.653,1650.8 343.653,1650.8 343.796,1651.04 L 343.563,1651.18 L 343.704,1651.41 C 343.148,1653.68 343.148,1653.68 343.292,1653.91 C 342.781,1655.99 342.553,1658.05 342.241,1660.15 C 342.145,1660.78 342.137,1661.01 342.201,1661.12 C 342.288,1661.26 342.288,1661.26 342.288,1661.26 C 342.139,1661.87 341.997,1662.46 341.929,1663.08 C 341.889,1663.44 341.893,1663.79 341.936,1663.86 C 342.017,1663.99 342.017,1663.99 342.017,1663.99 C 341.739,1665.13 341.739,1665.13 341.881,1665.36 C 341.672,1666.22 341.587,1667.08 341.533,1667.96 C 341.516,1668.22 341.537,1668.5 341.581,1668.57 C 341.661,1668.71 341.661,1668.71 341.661,1668.71 C 341.407,1669.75 341.429,1670.85 341.361,1671.92 C 341.347,1672.18 341.367,1672.46 341.411,1672.53 C 341.491,1672.66 341.491,1672.66 341.491,1672.66 C 341.327,1673.34 341.219,1674.1 341.351,1674.79 C 341.424,1675.18 341.421,1675.48 341.331,1676.13 C 341.239,1676.78 341.236,1677.07 341.312,1677.42 C 341.479,1678.19 341.365,1679.04 341.335,1679.82 C 341.428,1683.46 341.635,1687.1 341.853,1690.74 L 342.16,1690.72 C 342.232,1690.83 342.468,1690.69 342.468,1690.69 L 346.237,1691.62 C 346.479,1691.85 349.643,1692.75 353.268,1693.64 L 359.857,1695.25 C 360.336,1693.14 360.779,1691.01 361.295,1688.91 L 362.404,1684.39 C 362.965,1683.72 362.965,1683.72 365.044,1674.44 L 365.475,1673.46 L 367.523,1674.01 C 368.685,1674.31 369.845,1674.63 371.003,1674.95 C 370.968,1675 370.935,1675.05 370.9,1675.09 L 369.529,1681.05 C 369.271,1682.47 368.531,1685.49 368.16,1687 L 367.051,1691.52 L 366.217,1694.92 C 365.956,1695.2 365.121,1696.65 365.976,1696.72 C 365.991,1696.66 366.367,1696.75 366.367,1696.75 L 367.12,1696.94 C 367.783,1697.5 367.783,1697.5 369.904,1697.82 C 370.564,1698.38 370.564,1698.38 377.212,1699.81 L 380.983,1700.74 C 381.881,1700.96 382.788,1701.1 383.701,1701.26 C 384.765,1699.57 385.829,1697.88 386.895,1696.19 C 387.581,1695.03 388.265,1693.86 388.951,1692.7 L 388.88,1692.58 C 388.808,1692.46 388.808,1692.46 388.808,1692.46 L 390.024,1690.76 L 389.883,1690.53 L 391.017,1689.16 C 391.293,1688.58 391.569,1687.99 391.847,1687.41 C 392.219,1686.81 392.556,1686.21 392.796,1685.53 C 393.005,1684.94 393.284,1684.49 393.679,1684.02 C 393.825,1683.42 393.973,1682.81 394.121,1682.21 C 394.851,1681 395.435,1679.65 395.968,1678.35 C 396.14,1677.93 396.352,1677.63 396.709,1677.37 C 396.857,1676.76 397.007,1676.15 397.157,1675.54 C 397.161,1675.52 397.161,1675.52 397.161,1675.52 C 397.587,1674.87 397.905,1674.12 398.089,1673.37 C 398.095,1673.35 398.185,1672.97 398.185,1672.97 C 398.652,1672.26 398.959,1671.45 399.16,1670.63 C 399.209,1670.43 399.304,1670.05 399.304,1670.05 C 400.083,1668.87 400.364,1667.35 400.699,1665.99 C 401.259,1665.33 401.259,1665.33 401.58,1663.21 L 401.815,1663.07 L 401.673,1662.83 C 402.235,1662.17 402.235,1662.17 403.387,1656.66 L 404.127,1653.64 C 404.683,1651.38 404.683,1651.38 404.54,1651.14 L 404.725,1650.39 C 405.28,1648.13 405.28,1648.13 405.137,1647.89 C 405.733,1645.46 405.964,1642.98 406.272,1640.49 C 406.32,1640.1 406.32,1639.77 406.269,1639.69 C 406.184,1639.55 406.184,1639.55 406.184,1639.55 C 406.393,1638.69 406.479,1637.84 406.532,1636.95 C 406.549,1636.69 406.528,1636.41 406.484,1636.34 C 406.404,1636.21 406.404,1636.21 406.404,1636.21 C 406.477,1635.9 406.525,1635.61 406.579,1635.14 C 406.616,1634.79 406.612,1634.43 406.568,1634.36 C 406.488,1634.23 406.488,1634.23 406.488,1634.23 C 406.836,1632.82 406.943,1630.91 406.651,1629.49 C 406.703,1629.28 406.56,1629.05 406.56,1629.05 L 406.793,1628.91 C 406.723,1628.79 406.652,1628.67 406.58,1628.55 C 406.509,1628.44 406.509,1628.44 406.509,1628.44 C 406.935,1627.7 406.653,1626.64 406.544,1625.85 C 406.428,1623.89 406.309,1621.92 406.189,1619.96 L 405.883,1619.99 C 405.812,1619.87 405.576,1620.01 405.576,1620.01 L 402.559,1619.27 C 401.9,1618.71 401.9,1618.71 391.859,1616.45 L 388.843,1615.71 C 388.18,1615.15 388.18,1615.15 378.14,1612.88 L 374.747,1612.05 C 374.084,1611.49 374.084,1611.49 364.044,1609.23 Z M 390.899,1580.43 L 389.699,1581.16 C 388.512,1581.52 387.5,1582.27 386.484,1582.97 C 383.637,1584.94 380.848,1586.98 378.221,1589.24 C 376.239,1590.94 374.339,1592.73 372.429,1594.51 C 371.771,1595.33 371.111,1596.15 370.451,1596.96 C 369.049,1598.38 367.699,1599.83 366.388,1601.32 C 365.873,1601.91 365.328,1602.46 364.773,1603.01 L 364.843,1603.13 C 364.912,1603.24 364.912,1603.24 364.912,1603.24 C 363.859,1604.44 363.007,1605.54 363.017,1605.69 C 363.039,1605.95 363.247,1606.02 363.457,1606.09 L 374.237,1608.83 C 384.757,1611.51 395.287,1614.14 405.817,1616.77 C 405.611,1615.81 405.416,1614.86 405.292,1613.89 C 405.051,1611.93 404.325,1609.98 403.805,1608.09 C 402.839,1604.55 401.875,1601.01 400.909,1597.48 C 400.467,1595.57 399.411,1594.02 398.564,1592.29 C 397.48,1590.06 396.357,1587.86 395.093,1585.74 C 394.083,1584.04 393.315,1582.25 392.513,1580.45 C 392.425,1579.89 392.219,1579.81 391.648,1580.08 C 391.368,1580.15 391.132,1580.29 390.899,1580.43 Z M 396.523,1684.4 L 396.141,1684.17 C 395.736,1684.41 395.727,1684.63 395.609,1685.11 C 395.429,1685.84 395.425,1685.85 395.219,1686.29 C 395.017,1686.73 394.66,1686.99 394.284,1687.25 L 394,1688.05 C 393.777,1688.67 393.648,1688.93 393.415,1689.2 C 393.252,1689.4 392.857,1690.07 392.54,1690.7 C 391.859,1692.04 391.12,1693.34 390.397,1694.66 C 389.925,1695.52 389.932,1695.56 390.603,1695.79 C 392.764,1696.54 393.976,1699.04 394.396,1701.15 C 394.909,1703.74 395.141,1706.44 395.328,1709.07 C 395.391,1709.92 395.132,1710.69 394.931,1711.51 C 394.979,1712.29 394.937,1713.04 394.865,1713.82 C 394.824,1714.27 394.876,1714.63 395.068,1715.03 C 394.92,1715.63 394.773,1716.23 394.625,1716.83 L 394.713,1717.24 C 394.912,1718.16 394.537,1719.28 394.407,1720.18 C 393.985,1724.26 393.331,1728.34 392.56,1732.37 C 392.711,1732.13 392.86,1731.89 393.011,1731.65 C 393.256,1731.23 393.445,1730.78 393.616,1730.32 C 393.777,1729.89 393.987,1729.4 394.083,1729.24 C 394.417,1728.66 394.609,1727.99 394.841,1727.37 C 396.048,1724.73 396.996,1721.94 397.94,1719.21 C 399.443,1714.87 400.405,1710.39 401.497,1705.93 C 401.605,1705.22 401.712,1704.51 401.817,1703.81 C 401.892,1703.24 401.964,1702.67 402.036,1702.1 C 402.064,1701.54 402.097,1700.97 402.152,1700.41 C 402.544,1696.26 401.892,1692.1 399.984,1688.34 C 399.177,1686.75 398.057,1685.33 396.523,1684.4 Z M 337.583,1669.79 C 336.483,1669.9 335.676,1670.21 333.955,1671.2 C 332.739,1671.9 331.605,1672.64 331.436,1672.85 C 330.221,1674.32 329.037,1675.8 327.935,1677.36 C 327.151,1678.47 326.601,1679.58 326.281,1680.88 C 325.767,1681.74 325.4,1682.65 325.021,1683.57 C 324.599,1684.25 324.356,1685 324.089,1685.74 C 322.839,1689.38 322.071,1693.17 321.153,1696.9 C 320.987,1697.86 320.816,1698.82 320.649,1699.77 L 320.448,1701 C 319.947,1704.05 319.596,1707.12 319.292,1710.19 C 319.195,1711.17 319.081,1712.15 318.956,1713.13 C 319.527,1712.78 319.644,1711.78 319.852,1711.17 C 320.288,1710.07 320.683,1708.95 321.072,1707.83 C 321.373,1707.07 321.664,1706.32 321.932,1705.55 C 322.163,1704.88 322.423,1704.23 322.709,1703.59 C 322.909,1703.06 323.107,1702.52 323.305,1701.98 C 323.565,1701.41 323.809,1700.85 324.028,1700.26 C 324.207,1699.78 324.411,1699.32 324.667,1698.88 L 324.919,1698.26 C 325.436,1696.99 326.055,1695.75 326.64,1694.51 C 326.831,1694.09 327.019,1693.68 327.203,1693.27 C 327.673,1692.52 328.101,1691.77 328.501,1690.99 C 329.065,1689.88 329.801,1688.91 330.551,1687.93 C 331.477,1686.33 332.645,1684.87 334.103,1683.72 C 335.323,1682.76 336.855,1682.24 338.385,1682.41 C 339.275,1682.51 339.315,1681.34 339.009,1680.75 C 338.651,1680.06 338.851,1679.18 338.88,1678.42 C 338.879,1677.88 338.875,1677.35 338.872,1676.82 C 338.823,1676.11 338.803,1675.42 338.899,1674.71 C 338.991,1674.06 338.995,1673.77 338.916,1673.42 C 338.755,1672.67 339.079,1671.9 339.261,1671.16 C 339.207,1670.87 339.151,1670.58 339.093,1670.29 C 338.987,1669.58 338.196,1669.73 337.583,1669.79 Z M 365.393,1699.29 C 365.112,1699.2 364.969,1699.2 364.731,1699.35 L 363.687,1703.83 L 362.644,1708.32 C 365.101,1708.96 367.557,1709.6 370.015,1710.24 L 373.045,1711.03 C 375.503,1711.67 376.153,1711.73 376.491,1711.36 C 377.165,1710.63 377.657,1709.72 378.183,1708.89 C 378.777,1708.1 379.369,1707.31 379.964,1706.53 C 380.479,1705.79 380.991,1705.05 381.505,1704.31 L 381.819,1703.91 L 382.129,1703.52 C 376.672,1702.15 371.216,1700.78 365.759,1699.4 Z M 345.733,1694.49 C 345.461,1694.24 344.516,1693.87 343.629,1693.67 L 342.017,1693.32 L 342.132,1693.68 C 342.103,1693.8 342.245,1694.03 342.245,1694.03 L 342.395,1695.87 C 342.595,1698.32 342.595,1698.32 342.737,1698.55 C 342.936,1701 342.936,1701 343.077,1701.24 L 343.136,1703.45 L 343.748,1703.4 L 344.879,1703.68 C 345.183,1703.96 345.752,1704.23 346.145,1704.29 C 346.657,1704.37 346.9,1704.38 347.001,1704.32 C 347.143,1704.23 347.143,1704.23 347.143,1704.23 L 356.947,1706.64 L 356.805,1706.4 C 357.689,1703.47 358.491,1700.53 359.275,1697.58 L 358.915,1697.61 C 358.788,1697.49 358.555,1697.63 358.555,1697.63 Z M 367.851,1676.44 C 367.383,1676.35 367.196,1676.34 367.084,1676.41 L 366.936,1676.5 C 364.637,1685.87 362.259,1695.22 359.807,1704.55 C 359.053,1707.4 359.049,1707.52 359.699,1707.62 C 360.339,1707.72 360.443,1707.46 361.673,1702.64 C 363.793,1694.34 365.913,1686.03 368.033,1677.73 L 368.252,1677.14 C 368.456,1676.58 368.432,1676.54 367.851,1676.44 Z M 359.224,1709.9 C 358.884,1709.84 358.621,1709.79 358.327,1709.97 C 357.337,1714.01 356.348,1718.05 355.357,1722.08 L 354.189,1726.63 C 353.075,1730.98 353.051,1731.19 353.688,1731.31 C 354.321,1731.42 354.437,1731.11 355.967,1725.09 C 356.872,1721.51 357.78,1717.95 358.699,1714.38 C 359.721,1710.4 359.768,1710 359.224,1709.9 Z "/>
		<path id="dp_path014" fill="#fe0000" fill-rule="evenodd" stroke="none" stroke-width="0" d="M 390.899,1580.43 C 391.455,1580.45 391.944,1580.58 391.981,1580.72 L 392.051,1580.96 C 390.568,1583.16 388.428,1584.88 386.424,1586.58 C 384.269,1588.41 382.011,1590.06 379.731,1591.73 C 376.543,1594.35 373.327,1596.93 370.088,1599.48 C 368.993,1600.35 367.899,1601.21 366.8,1602.07 L 365.856,1602.65 C 365.617,1602.81 365.148,1603.1 364.912,1603.24 C 363.859,1604.44 363.007,1605.54 363.017,1605.69 C 363.039,1605.95 363.247,1606.02 363.457,1606.09 L 374.237,1608.83 C 384.757,1611.51 395.287,1614.14 405.817,1616.77 C 405.612,1615.81 405.416,1614.86 405.293,1613.89 C 405.051,1611.93 404.325,1609.98 403.805,1608.08 C 402.84,1604.55 401.875,1601.01 400.909,1597.48 C 400.467,1595.57 399.409,1594.02 398.564,1592.29 C 397.48,1590.06 396.359,1587.86 395.093,1585.74 C 394.083,1584.04 393.315,1582.25 392.513,1580.45 C 392.425,1579.89 392.219,1579.81 391.648,1580.08 C 391.367,1580.15 391.132,1580.29 390.899,1580.43 Z "/>
		<path id="dp_path015" fill="#fe0000" fill-rule="evenodd" stroke="none" stroke-width="0" d="M 396.523,1684.4 C 396.447,1684.35 396.235,1684.11 396.071,1684.21 C 395.163,1684.92 395.636,1685.5 395.179,1686.37 C 394.863,1686.98 394.392,1687.1 394.285,1687.25 C 393.951,1687.73 394.04,1688.12 393.677,1688.82 C 393.112,1689.91 390.2,1694.2 390.068,1695.4 C 390.101,1695.95 391.299,1696.1 391.459,1696.2 C 393.793,1697.67 394.045,1699.54 394.353,1700.95 C 394.975,1703.79 395.38,1706.02 395.337,1709.39 C 395.323,1710.6 394.999,1711.12 394.931,1711.51 C 394.767,1712.45 394.749,1713 394.86,1714.29 C 394.879,1714.52 395.085,1714.86 395.068,1715.03 C 395.005,1715.63 394.639,1716.23 394.625,1716.83 C 394.623,1716.96 394.792,1717.32 394.768,1717.96 C 394.727,1719.01 394.463,1719.64 394.365,1720.56 C 393.977,1724.21 393.401,1727.82 392.737,1731.42 C 392.68,1731.74 392.62,1732.05 392.56,1732.37 C 393.367,1731.09 393.669,1730.45 394.408,1728.56 C 395.344,1726.16 396.951,1722.13 398.011,1719.01 C 400.625,1711.32 404.479,1698.31 400.408,1689.23 C 399.652,1687.54 398.369,1685.55 396.523,1684.4 Z "/>
		<path id="dp_path016" fill="#fe0000" fill-rule="evenodd" stroke="none" stroke-width="0" d="M 337.583,1669.79 C 332.353,1670.46 328.133,1676.15 326.281,1680.88 C 325.607,1682.6 324.456,1684.65 323.973,1686.09 C 320.888,1695.28 320.068,1704.3 318.956,1713.13 C 319.807,1712.52 322.151,1704.94 322.204,1704.81 C 325.304,1696.79 328.303,1690.57 331.909,1685.93 C 332.945,1684.59 334.476,1682.9 336.819,1682.47 C 337.181,1682.4 338.423,1682.72 338.945,1682.23 C 339.553,1681.47 338.743,1680.28 338.813,1679.31 C 338.931,1677.68 338.823,1676.11 338.965,1674.11 C 338.983,1673.85 338.849,1673.04 338.888,1672.71 C 338.969,1672 340.132,1669.51 337.583,1669.79 Z "/>
		<path id="dp_path017" fill="#fe0000" fill-rule="evenodd" stroke="none" stroke-width="0" d="M 367.851,1676.44 C 367.383,1676.35 367.196,1676.34 367.084,1676.41 L 366.936,1676.5 C 364.637,1685.87 362.259,1695.22 359.807,1704.55 C 359.053,1707.4 359.049,1707.52 359.699,1707.62 C 360.339,1707.72 360.443,1707.46 361.673,1702.64 C 363.793,1694.34 365.913,1686.03 368.033,1677.73 L 368.252,1677.14 C 368.456,1676.58 368.432,1676.54 367.851,1676.44 Z "/>
		<path id="dp_path018" fill="#fe0000" fill-rule="evenodd" stroke="none" stroke-width="0" d="M 359.224,1709.9 C 358.884,1709.84 358.621,1709.79 358.327,1709.97 C 357.337,1714.01 356.348,1718.05 355.357,1722.08 L 354.189,1726.63 C 353.075,1730.98 353.051,1731.19 353.688,1731.31 C 354.321,1731.42 354.437,1731.11 355.967,1725.09 C 356.872,1721.51 357.78,1717.95 358.699,1714.38 C 359.721,1710.4 359.768,1710 359.224,1709.9 Z "/>
		<path id="dp_path019" fill="#e63900" fill-rule="evenodd" stroke="none" stroke-width="0" d="M 348.757,1707.43 C 348.056,1708.05 347.289,1708.95 347.055,1709.44 C 346.349,1710.9 345.352,1712.22 344.452,1713.57 C 344.04,1714.24 343.756,1714.78 343.567,1715.55 C 343.451,1716.02 343.341,1716.46 343.135,1716.9 C 342.972,1717.25 342.739,1717.49 342.436,1717.71 C 342.288,1718.31 342.141,1718.92 341.993,1719.52 C 341.387,1720.48 341.081,1721.63 340.712,1722.7 C 339.939,1724.95 339.299,1727.25 338.731,1729.55 C 337.752,1733.55 337.011,1737.66 336.833,1741.78 C 336.808,1742.39 336.744,1743 336.685,1743.6 C 336.717,1744.29 336.656,1744.94 336.591,1745.62 C 336.557,1746.4 336.496,1747.17 336.424,1747.94 C 336.457,1748.73 336.343,1749.51 336.245,1750.29 C 336.219,1750.81 336.193,1751.32 336.165,1751.84 C 336.131,1752.57 336.024,1753.29 335.931,1754.01 C 335.775,1755.54 335.545,1757.05 335.316,1758.56 C 334.707,1762.6 333.663,1766.53 332.691,1770.49 C 332.427,1771.3 332.164,1772.1 331.899,1772.9 L 331.552,1773.91 C 330.628,1776.6 329.528,1779.21 328.324,1781.77 C 328.019,1782.46 327.649,1783.07 327.251,1783.71 C 326.173,1785.75 325.105,1787.75 323.792,1789.66 C 322.753,1791.17 321.777,1792.71 320.855,1794.29 C 320.673,1794.52 320.491,1794.75 320.307,1794.98 C 321.497,1793.94 322.685,1792.9 323.873,1791.86 C 325.141,1790.58 326.4,1789.3 327.616,1787.97 C 328.359,1787.15 329.227,1785.99 329.54,1785.37 C 329.899,1784.68 330.391,1783.91 330.84,1783.33 C 333.232,1780.3 335.152,1776.91 336.951,1773.5 C 337.273,1772.89 337.625,1772.3 337.989,1771.71 C 338.137,1771.11 338.285,1770.5 338.432,1769.9 C 338.801,1769.29 339.095,1768.65 339.399,1768 C 339.685,1767.39 340.036,1766.8 340.435,1766.26 C 340.544,1766.11 340.664,1766.15 340.707,1766.34 C 340.851,1767.01 340.564,1767.82 340.479,1768.49 C 340.371,1769.34 340.26,1770.19 340.153,1771.04 C 340.111,1771.74 340.043,1772.44 339.94,1773.13 C 339.855,1773.7 339.776,1774.28 339.716,1774.85 C 339.656,1775.44 339.576,1776.01 339.489,1776.6 C 339.393,1777.24 339.301,1777.88 339.215,1778.53 C 337.993,1787.71 336.123,1796.9 333.531,1805.78 C 333.111,1807.22 332.725,1808.66 332.369,1810.11 C 333.063,1809.19 333.595,1808.22 334.089,1807.18 C 334.311,1806.82 334.531,1806.46 334.753,1806.1 C 334.901,1805.5 335.049,1804.89 335.197,1804.29 C 335.428,1803.91 335.613,1803.53 335.784,1803.12 C 335.955,1802.69 336.168,1802.4 336.524,1802.13 C 336.672,1801.53 336.82,1800.93 336.968,1800.33 L 337.176,1799.88 C 337.292,1799.63 337.497,1799.35 337.632,1799.25 C 338.14,1798.87 338.172,1797.86 338.32,1797.26 C 338.767,1796.93 338.844,1796.75 338.983,1796.18 C 339.292,1794.93 339.869,1793.62 340.403,1792.43 C 340.944,1791.23 341.355,1789.96 341.812,1788.72 C 342.895,1786 343.88,1783.24 344.837,1780.47 C 345.313,1779.26 345.729,1778.03 346.139,1776.79 C 347.116,1774.1 348.031,1771.4 348.928,1768.68 C 349.456,1767.21 349.94,1765.73 350.415,1764.25 C 351.219,1761.9 351.981,1759.54 352.697,1757.16 L 352.799,1757.64 C 352.929,1758.24 352.761,1758.86 352.687,1759.47 C 352.629,1759.92 352.589,1760.45 352.597,1760.64 C 352.605,1760.83 352.565,1761.36 352.508,1761.82 C 352.451,1762.28 352.411,1762.81 352.42,1763 C 352.428,1763.19 352.388,1763.72 352.331,1764.17 C 352.268,1764.68 352.235,1765.19 352.257,1765.7 C 352.195,1766.36 352.131,1767.02 352.069,1767.69 C 352.024,1768.15 352.017,1768.58 352.036,1769.04 C 351.995,1769.48 351.952,1769.93 351.912,1770.37 C 351.887,1770.92 351.857,1771.47 351.805,1772.02 C 351.775,1772.36 351.743,1772.69 351.759,1773.03 C 351.783,1773.59 351.701,1774.14 351.648,1774.7 C 351.592,1776.02 351.535,1777.34 351.476,1778.66 C 351.448,1779.14 351.431,1779.55 351.521,1780.03 C 351.619,1780.55 351.523,1780.92 351.395,1781.44 C 351.28,1781.91 351.172,1782.35 351.152,1782.83 C 351.133,1783.31 351.327,1783.71 351.539,1784.11 L 351.423,1784.95 C 351.332,1785.61 351.329,1785.89 351.405,1786.25 C 351.571,1787.01 351.459,1787.86 351.428,1788.64 C 351.459,1789.8 351.484,1790.97 351.471,1792.13 C 351.457,1793.55 351.599,1794.97 351.723,1796.39 C 351.956,1795.46 352.133,1794.5 352.321,1793.56 C 353.94,1785.41 355.903,1777.38 358.429,1769.47 C 359.367,1766.53 360.413,1763.62 361.473,1760.72 C 361.775,1759.96 362.065,1759.2 362.333,1758.43 C 362.523,1757.9 362.772,1757.24 362.895,1756.97 C 363.015,1756.7 363.267,1756.04 363.452,1755.51 C 363.72,1754.74 364.011,1753.98 364.312,1753.22 C 364.879,1751.68 365.419,1750.12 365.955,1748.57 C 367.241,1744.83 368.111,1740.99 369.053,1737.15 L 369.26,1735.9 C 370.043,1731.16 370.2,1726.45 370.491,1721.67 C 370.34,1719.84 370.381,1718.01 370.4,1716.17 L 370.349,1715.56 C 370.276,1714.66 370.104,1713.51 369.641,1712.75 L 366.859,1711.87 C 367.011,1712.58 367.105,1713.26 367.164,1713.98 C 367.292,1715.52 367.512,1717.04 367.713,1718.57 C 367.961,1720.47 368.168,1722.38 368.169,1722.82 C 368.175,1723.73 367.947,1724.55 367.729,1725.43 C 367.863,1727.6 367.463,1729.78 366.948,1731.88 C 365.955,1735.93 364.128,1739.69 362.679,1743.58 C 359.529,1750.44 357.969,1757.89 356.183,1765.18 C 356.057,1765.77 355.933,1766.36 355.809,1766.95 C 355.763,1766.4 355.741,1765.86 355.751,1765.31 C 355.757,1764.74 355.684,1764.19 355.563,1763.63 C 355.711,1763.02 355.857,1762.42 356.007,1761.82 C 355.873,1759.65 356.128,1757.41 356.221,1755.23 C 356.255,1754.46 356.317,1753.69 356.391,1752.92 C 355.941,1752.05 356.203,1751.23 356.425,1750.33 C 356.357,1749.23 356.431,1748.13 356.533,1747.03 C 356.573,1746.63 356.545,1746.27 356.464,1746.1 C 356.189,1745.53 356.628,1744.62 356.775,1744.02 C 356.748,1743.57 356.755,1743.15 356.797,1742.7 C 356.84,1742.25 356.788,1741.89 356.595,1741.49 C 356.743,1740.89 356.891,1740.29 357.039,1739.68 L 356.911,1739.38 L 356.781,1739.08 C 356.14,1740.71 355.588,1742.37 355.067,1744.05 C 354.687,1745.28 354.284,1746.49 353.872,1747.7 C 353.584,1748.61 353.297,1749.5 353.009,1750.41 C 352.501,1751.89 352.003,1753.39 351.512,1754.88 C 351.141,1755.96 350.775,1757.04 350.415,1758.13 C 349.615,1760.56 348.765,1762.97 347.933,1765.39 C 347.589,1766.34 347.252,1767.29 346.933,1768.25 C 346.721,1768.89 346.429,1769.72 346.283,1770.09 C 346.136,1770.46 345.843,1771.29 345.631,1771.93 C 345.351,1772.77 345.043,1773.61 344.716,1774.44 C 344.487,1775.1 344.257,1775.77 344.027,1776.43 C 343.423,1778.08 342.817,1779.73 342.213,1781.38 C 341.912,1782.14 341.62,1782.9 341.353,1783.67 C 341.167,1784.21 340.916,1784.87 340.793,1785.13 C 340.439,1785.92 340.181,1786.75 339.896,1787.57 C 339.761,1787.93 339.628,1788.29 339.495,1788.65 C 339.337,1788.69 339.179,1788.73 339.02,1788.77 C 341.029,1782.01 342.555,1775.1 344.236,1768.24 L 344.628,1766.24 C 345.456,1762 345.949,1757.78 346.353,1753.49 C 346.589,1751.01 346.309,1748.46 346.119,1745.98 C 346.209,1745.49 345.937,1746.34 345.879,1746.48 C 345.661,1747.04 345.423,1747.58 345.172,1748.13 C 344.491,1749.82 343.805,1751.52 343.124,1753.22 C 342.861,1753.79 342.62,1754.36 342.4,1754.94 C 342.24,1755.38 342.029,1755.86 341.933,1756.03 C 341.439,1756.89 341.129,1757.88 340.756,1758.8 C 340.527,1759.19 340.335,1759.58 340.157,1760.01 C 339.84,1760.79 339.477,1761.55 339.133,1762.32 C 338.549,1763.05 338.241,1763.84 337.925,1764.72 C 337.237,1765.64 336.64,1766.61 336.084,1767.62 C 335.579,1768.53 335.04,1769.29 334.884,1769.29 L 334.603,1769.3 L 334.888,1768.5 C 335.045,1768.06 335.255,1767.58 335.355,1767.42 C 335.883,1766.58 336.133,1765.45 336.453,1764.52 C 337.041,1762.81 337.599,1761.08 338.028,1759.33 C 339.524,1753.22 340.341,1747.07 341.253,1740.87 C 341.357,1740.17 341.428,1739.48 341.467,1738.78 L 341.577,1737.93 C 341.787,1736.28 341.928,1734.63 342.091,1732.98 C 342.193,1731.95 342.313,1730.93 342.444,1729.91 C 342.72,1725.16 344.148,1720.52 345.273,1715.93 L 345.576,1715.1 C 346.208,1713.37 346.881,1711.77 347.881,1710.21 C 348.447,1709.33 349.128,1708.41 349.397,1708.16 C 349.42,1707.99 349.653,1707.85 349.888,1707.7 Z "/>
		<path id="dp_path020" fill="#e78a00" fill-rule="evenodd" stroke="none" stroke-width="0" d="M 349.888,1707.7 C 349.653,1707.85 349.42,1707.99 349.397,1708.16 C 349.128,1708.41 348.447,1709.33 347.881,1710.21 C 346.881,1711.77 346.208,1713.37 345.576,1715.1 L 345.273,1715.93 C 344.148,1720.52 342.72,1725.16 342.444,1729.91 C 342.313,1730.93 342.193,1731.95 342.091,1732.98 C 341.928,1734.63 341.787,1736.28 341.577,1737.93 L 341.467,1738.78 C 341.428,1739.48 341.357,1740.17 341.253,1740.87 C 340.341,1747.07 339.524,1753.22 338.028,1759.33 C 337.599,1761.08 337.041,1762.81 336.453,1764.52 C 336.133,1765.45 335.883,1766.58 335.355,1767.42 C 335.255,1767.58 335.045,1768.06 334.888,1768.5 L 334.603,1769.3 L 334.884,1769.29 C 335.04,1769.29 335.579,1768.53 336.084,1767.62 C 336.64,1766.61 337.237,1765.64 337.925,1764.72 C 338.241,1763.84 338.549,1763.05 339.133,1762.32 C 339.477,1761.55 339.84,1760.79 340.157,1760.01 C 340.335,1759.58 340.527,1759.19 340.756,1758.8 C 341.129,1757.88 341.439,1756.89 341.933,1756.03 C 342.029,1755.86 342.24,1755.38 342.4,1754.94 C 342.62,1754.36 342.861,1753.79 343.124,1753.22 C 343.805,1751.52 344.491,1749.82 345.172,1748.13 C 345.423,1747.58 345.661,1747.04 345.879,1746.48 C 345.937,1746.34 346.209,1745.49 346.119,1745.98 C 346.309,1748.46 346.589,1751.01 346.353,1753.49 C 345.949,1757.78 345.456,1762 344.628,1766.24 L 344.236,1768.24 C 342.555,1775.1 341.029,1782.01 339.02,1788.77 C 339.179,1788.73 339.337,1788.69 339.495,1788.65 C 339.628,1788.29 339.761,1787.93 339.896,1787.57 C 340.181,1786.75 340.439,1785.92 340.793,1785.13 C 340.916,1784.87 341.167,1784.21 341.353,1783.67 C 341.62,1782.9 341.912,1782.14 342.213,1781.38 C 342.817,1779.73 343.423,1778.08 344.027,1776.43 C 344.257,1775.77 344.487,1775.1 344.716,1774.44 C 345.043,1773.61 345.351,1772.77 345.631,1771.93 C 345.843,1771.29 346.136,1770.46 346.283,1770.09 C 346.429,1769.72 346.721,1768.89 346.933,1768.25 C 347.252,1767.29 347.589,1766.34 347.933,1765.39 C 348.765,1762.97 349.615,1760.56 350.415,1758.13 C 350.775,1757.04 351.141,1755.96 351.512,1754.88 C 352.003,1753.39 352.501,1751.89 353.009,1750.41 C 353.297,1749.5 353.584,1748.61 353.872,1747.7 C 354.284,1746.49 354.687,1745.28 355.067,1744.05 C 355.588,1742.37 356.14,1740.71 356.781,1739.08 L 356.911,1739.38 L 357.039,1739.68 C 356.891,1740.29 356.743,1740.89 356.595,1741.49 C 356.788,1741.89 356.84,1742.25 356.797,1742.7 C 356.755,1743.15 356.748,1743.57 356.775,1744.02 C 356.628,1744.62 356.189,1745.53 356.464,1746.1 C 356.545,1746.27 356.573,1746.63 356.533,1747.03 C 356.431,1748.13 356.357,1749.23 356.425,1750.33 C 356.203,1751.23 355.941,1752.05 356.391,1752.92 C 356.317,1753.69 356.255,1754.46 356.221,1755.23 C 356.128,1757.41 355.873,1759.65 356.007,1761.82 C 355.857,1762.42 355.711,1763.02 355.563,1763.63 C 355.684,1764.19 355.757,1764.74 355.751,1765.31 C 355.741,1765.86 355.763,1766.4 355.809,1766.95 C 355.933,1766.36 356.057,1765.77 356.183,1765.18 C 357.969,1757.89 359.529,1750.44 362.679,1743.58 C 364.128,1739.69 365.955,1735.93 366.948,1731.88 C 367.463,1729.78 367.863,1727.6 367.729,1725.43 C 367.947,1724.55 368.175,1723.73 368.169,1722.82 C 368.168,1722.38 367.961,1720.47 367.713,1718.57 C 367.512,1717.04 367.292,1715.52 367.164,1713.98 C 367.105,1713.26 367.011,1712.58 366.859,1711.87 L 364.22,1711.22 L 363.984,1711.36 L 364.125,1711.59 C 364.731,1713.26 365.147,1714.89 365.289,1716.64 C 365.432,1717.95 365.576,1719.27 365.721,1720.58 C 365.721,1721.09 365.721,1721.6 365.723,1722.11 L 365.673,1722.35 C 365.549,1722.98 365.497,1723.63 365.416,1724.26 C 364.885,1728.34 363.637,1732.26 362.307,1736.14 C 360.793,1740.3 359.465,1744.52 358.276,1748.78 L 358.171,1748.29 C 358.051,1747.73 358.183,1747.17 358.237,1746.61 C 358.32,1745.73 358.348,1744.85 358.385,1743.97 C 358.587,1740.66 357.944,1737.3 357.525,1734.02 C 357.419,1733.18 357.324,1732.33 357.251,1731.48 C 357.339,1731.12 357.288,1730.51 357.147,1730.27 C 356.315,1733.67 356.315,1733.67 355.752,1734.33 L 355.517,1734.47 C 355.564,1734.55 355.612,1734.63 355.659,1734.71 L 355.543,1734.78 C 355.425,1734.85 355.425,1734.85 355.425,1734.85 C 353.787,1741.53 351.773,1748.11 349.392,1754.56 C 349.155,1755.07 348.924,1755.59 348.711,1756.11 C 348.58,1756.43 348.451,1756.75 348.311,1757.06 C 348.18,1757.35 347.967,1757.44 347.687,1757.52 L 348.028,1756.49 C 348.483,1755.12 348.763,1753.75 349.039,1752.33 C 349.765,1748.61 350.112,1744.9 350.58,1741.16 C 350.644,1740.65 350.676,1740.15 350.653,1739.63 C 350.695,1739.19 350.736,1738.75 350.78,1738.31 C 350.813,1737.53 350.875,1736.76 350.947,1735.99 C 350.984,1735.51 351.015,1735.03 351.025,1734.54 C 350.949,1734.35 351.043,1733.97 351.043,1733.97 L 351.225,1733.22 L 350.329,1732.8 L 351.112,1728.79 C 350.875,1728.83 350.539,1729.27 350.364,1729.78 C 350.143,1730.42 349.888,1731.05 349.609,1731.67 L 349.311,1732.47 C 348.237,1735.38 347.021,1738.25 345.705,1741.06 C 344.917,1742.82 343.972,1744.54 342.549,1745.86 C 342.795,1745.27 343.124,1744.78 343.517,1744.28 C 343.804,1743.11 344.185,1741.97 344.565,1740.82 C 345.703,1736.18 346.16,1731.44 346.629,1726.69 C 346.663,1726.07 346.708,1725.46 346.787,1724.83 C 346.844,1724.37 346.884,1723.85 346.876,1723.65 C 346.847,1722.99 346.987,1722.31 347.069,1721.65 C 347.175,1719.57 347.308,1717.41 347.804,1715.39 C 348.356,1713.14 349.452,1710.83 350.784,1708.94 C 350.836,1708.73 351.161,1708.21 351.397,1708.07 Z "/>
		<path id="dp_path021" fill="#e7e100" fill-rule="evenodd" stroke="none" stroke-width="0" d="M 362.005,1711.27 L 360.896,1715.8 L 357.381,1730.13 L 357.239,1729.9 L 357.004,1730.04 L 357.147,1730.27 C 357.288,1730.51 357.339,1731.12 357.251,1731.48 C 357.324,1732.33 357.419,1733.18 357.525,1734.02 C 357.944,1737.3 358.587,1740.66 358.385,1743.97 C 358.348,1744.85 358.32,1745.73 358.237,1746.61 C 358.183,1747.17 358.051,1747.73 358.171,1748.29 L 358.276,1748.78 C 359.465,1744.52 360.793,1740.3 362.307,1736.14 C 363.637,1732.26 364.885,1728.34 365.416,1724.26 C 365.497,1723.63 365.549,1722.98 365.673,1722.35 L 365.723,1722.11 C 365.721,1721.6 365.721,1721.09 365.721,1720.58 C 365.576,1719.27 365.432,1717.95 365.289,1716.64 C 365.147,1714.89 364.731,1713.26 364.125,1711.59 L 363.108,1711.21 L 362.697,1711.16 C 362.469,1711.13 362.22,1711.15 362.144,1711.19 C 362.005,1711.27 362.005,1711.27 362.005,1711.27 Z "/>
		<path id="dp_path022" fill="#e7e100" fill-rule="evenodd" stroke="none" stroke-width="0" d="M 351.397,1708.07 C 351.161,1708.21 350.836,1708.73 350.784,1708.94 C 349.452,1710.83 348.356,1713.14 347.804,1715.39 C 347.308,1717.41 347.175,1719.57 347.069,1721.65 C 346.987,1722.31 346.847,1722.99 346.876,1723.65 C 346.884,1723.85 346.844,1724.37 346.787,1724.83 C 346.708,1725.46 346.663,1726.07 346.629,1726.69 C 346.16,1731.44 345.703,1736.18 344.565,1740.82 C 344.185,1741.97 343.804,1743.11 343.517,1744.28 C 343.124,1744.78 342.795,1745.27 342.549,1745.86 C 343.972,1744.54 344.917,1742.82 345.705,1741.06 C 347.021,1738.25 348.237,1735.38 349.311,1732.47 L 349.609,1731.67 C 349.888,1731.05 350.143,1730.42 350.364,1729.78 C 350.539,1729.27 350.875,1728.83 351.112,1728.79 L 352.223,1724.27 L 353.837,1716.87 L 353.601,1717.01 C 352.953,1718.89 352.279,1720.78 351.528,1722.62 C 351.077,1723.72 350.529,1724.67 349.881,1725.68 C 349.325,1726.55 348.741,1727.27 348.587,1727.27 C 348.148,1727.29 348.439,1727.06 348.613,1726.76 C 349.008,1726.09 349.085,1725.37 349.231,1724.6 C 349.903,1721.07 350.3,1717.52 350.755,1713.95 C 350.972,1712.29 351.269,1710.65 351.852,1709.06 C 351.824,1708.78 351.916,1708.4 352.152,1708.26 Z "/>
		<path id="dp_path023" fill="#e7e100" fill-rule="evenodd" stroke="none" stroke-width="0" d="M 355.425,1734.85 C 353.787,1741.53 351.773,1748.11 349.392,1754.56 C 349.155,1755.07 348.924,1755.59 348.711,1756.11 C 348.58,1756.43 348.451,1756.75 348.311,1757.06 C 348.18,1757.35 347.967,1757.44 347.687,1757.52 L 348.028,1756.49 C 348.483,1755.12 348.763,1753.75 349.039,1752.33 C 349.765,1748.61 350.112,1744.9 350.58,1741.16 C 350.644,1740.65 350.676,1740.15 350.653,1739.63 C 350.695,1739.19 350.736,1738.75 350.78,1738.31 C 350.813,1737.53 350.875,1736.76 350.947,1735.99 C 350.984,1735.51 351.015,1735.03 351.025,1734.54 C 350.949,1734.35 351.043,1733.97 351.043,1733.97 C 351.043,1733.97 351.043,1733.97 351.112,1734.09 L 351.184,1734.21 L 351.367,1733.92 C 351.467,1733.76 352.312,1733.8 353.244,1734.01 C 354.177,1734.22 355.159,1734.6 355.425,1734.85 Z "/>
		<path id="dp_path024" fill="#e7e100" fill-rule="evenodd" stroke="none" stroke-width="0" d="M 355.14,1713.19 C 354.671,1713.47 354.671,1713.47 354.3,1714.98 C 354.535,1714.84 354.535,1714.84 354.769,1714.7 Z "/>
		<path id="dp_path025" fill="#fefe00" fill-rule="evenodd" stroke="none" stroke-width="0" d="M 357.239,1729.9 C 360.661,1715.94 360.661,1715.94 360.896,1715.8 L 357.381,1730.13 Z "/>
		<path id="dp_path026" fill="#fefe00" fill-rule="evenodd" stroke="none" stroke-width="0" d="M 354.3,1714.98 C 353.647,1716.02 353.647,1716.02 353.601,1717.01 L 353.837,1716.87 L 352.223,1724.27 C 352.459,1724.13 352.459,1724.13 354.769,1714.7 C 354.535,1714.84 354.535,1714.84 354.3,1714.98 Z "/>
		<path id="dp_path027" fill="#fefe00" fill-rule="evenodd" stroke="none" stroke-width="0" d="M 351.225,1733.22 L 351.043,1733.97 C 351.043,1733.97 351.043,1733.97 351.112,1734.09 L 351.184,1734.21 L 351.367,1733.92 C 351.467,1733.76 352.312,1733.8 353.244,1734.01 C 354.177,1734.22 355.159,1734.6 355.425,1734.85 C 355.425,1734.85 355.425,1734.85 355.543,1734.78 L 355.659,1734.71 C 355.612,1734.63 355.564,1734.55 355.517,1734.47 L 355.752,1734.33 Z "/>
		<path id="dp_path028" fill="#fefe00" fill-rule="evenodd" stroke="none" stroke-width="0" d="M 364.22,1711.22 L 362.192,1710.52 L 362.005,1711.27 C 362.005,1711.27 362.005,1711.27 362.144,1711.19 C 362.22,1711.15 362.469,1711.13 362.697,1711.16 L 363.108,1711.21 L 364.125,1711.59 L 363.984,1711.36 Z "/>
		<path id="dp_path029" fill="#47704c" fill-rule="evenodd" stroke="none" stroke-width="0" d="M 394.135,1577.83 L 393.344,1577.05 C 392.884,1576.69 392.181,1577.2 391.739,1577.44 L 390.488,1578.11 L 390.287,1578.07 C 390.087,1578.03 390.087,1578.03 390.087,1578.03 L 393.139,1576.18 Z "/>
		<path id="dp_path030" fill="#cbcbcb" fill-rule="evenodd" stroke="none" stroke-width="0" d="M 381.687,1700.31 C 381.357,1699.54 381.381,1699.43 381.876,1699.47 C 382.679,1699.54 383.079,1698.56 383.456,1697.99 C 384.571,1696.43 385.685,1694.88 386.797,1693.33 C 386.989,1692.79 387.179,1692.26 387.369,1691.73 L 387.832,1691.17 C 388.261,1690.65 388.479,1690.07 388.695,1689.44 C 389.525,1688.72 389.937,1687.63 390.431,1686.66 C 390.844,1685.99 391.127,1685.45 391.317,1684.68 C 391.511,1683.89 391.723,1683.16 392.256,1682.52 C 392.488,1682.24 392.617,1681.99 392.84,1681.37 C 393.251,1680.21 393.877,1679.1 394.528,1678.06 C 395.141,1677.09 395.396,1675.94 395.816,1674.89 C 396.157,1674.04 396.5,1673.19 396.841,1672.34 C 397.124,1671.64 397.476,1670.99 397.827,1670.32 C 397.783,1670.16 397.736,1670 397.692,1669.84 C 397.937,1669.45 398.187,1669.06 398.432,1668.67 C 398.247,1668.01 398.659,1667.41 398.903,1666.79 C 399.263,1665.87 399.551,1664.97 399.785,1664.01 C 399.888,1663.59 400.036,1663.18 400.189,1662.77 C 400.452,1662.07 400.637,1661.35 400.816,1660.62 C 401.095,1659.48 401.5,1658.36 401.845,1657.24 C 402.189,1655.83 402.495,1654.43 402.783,1653.01 C 403.097,1651.45 403.287,1650.54 403.348,1650.29 C 403.611,1649.22 403.769,1648.13 403.947,1647.04 C 404.285,1646.47 404.204,1645.95 404.199,1645.28 C 404.208,1645.12 404.252,1644.97 404.292,1644.81 C 404.543,1643.81 404.717,1642.77 404.648,1641.73 C 404.795,1641.13 404.943,1640.53 405.092,1639.92 C 404.98,1639.32 404.949,1638.78 405.036,1638.16 C 405.107,1637.65 405.137,1637.15 405.096,1636.65 C 405.244,1636.04 405.392,1635.44 405.539,1634.84 C 405.484,1634.55 405.429,1634.26 405.373,1633.98 C 405.095,1633.41 405.129,1632.56 405.255,1631.96 C 405.391,1631.32 405.511,1630.55 405.355,1629.91 C 405.067,1628.72 405.236,1627.58 405.316,1626.38 C 405.34,1626.01 405.235,1625.81 405,1625.78 C 404.793,1625.76 404.435,1626.72 404.129,1628.11 C 403.627,1630.4 403.025,1632.61 402.337,1634.85 C 402.159,1635.58 401.981,1636.31 401.801,1637.04 C 401.667,1637.59 401.497,1638.12 401.307,1638.65 C 400.945,1639.65 400.709,1640.67 400.457,1641.7 C 400.352,1642.13 400.207,1642.54 400.053,1642.95 C 399.588,1644.19 399.14,1645.45 398.821,1646.74 C 398.615,1647.59 398.364,1648.33 397.852,1649.04 C 398.093,1649.88 397.42,1651.05 397.08,1651.81 C 396.725,1652.6 396.573,1653.46 396.371,1654.29 C 396.247,1654.8 396.217,1654.87 396.105,1654.97 C 395.721,1655.3 395.56,1656.14 395.376,1656.61 C 395.419,1657.13 394.971,1657.78 394.772,1658.26 C 394.797,1658.59 394.671,1658.71 394.453,1658.98 C 394.156,1659.37 394.053,1659.67 393.937,1660.14 C 393.689,1661.15 393.208,1662.1 392.821,1663.06 C 392.56,1663.63 392.317,1664.19 392.1,1664.78 C 391.937,1665.21 391.729,1665.7 391.633,1665.87 C 391.296,1666.45 390.827,1667.31 390.884,1668 C 390.303,1668.55 390.271,1669.38 390.084,1670.15 L 389.811,1670.49 L 389.536,1670.83 C 388.957,1671.25 388.711,1672.33 388.392,1672.97 C 388.2,1673.35 387.909,1673.82 387.744,1674.02 C 387.243,1674.62 386.951,1675.43 386.617,1676.13 C 385.648,1677.88 384.688,1679.63 383.731,1681.38 C 383.213,1682.2 382.695,1683.01 382.135,1683.81 C 381.756,1684.35 381.483,1684.82 381.419,1685.06 C 381.269,1685.61 380.671,1685.99 380.276,1686.37 C 379.695,1684.78 379.121,1683.24 378.364,1681.73 C 377.745,1680.5 376.908,1679.54 375.925,1678.6 C 376.045,1678.53 375.236,1677.93 375.097,1677.82 C 375.1,1677.82 375.1,1677.82 375.1,1677.82 C 374.593,1677.33 374.087,1676.85 373.58,1676.36 C 372.808,1676.12 372.021,1675.92 371.24,1675.7 C 370.325,1679.4 369.413,1683.09 368.5,1686.79 L 368.329,1686.89 C 368.395,1686.85 368.16,1687 368.16,1687 L 367.051,1691.52 L 367.3,1692.49 C 367.328,1692.53 367.356,1692.57 367.384,1692.6 C 367.812,1692.73 368.047,1693.33 368.296,1693.68 C 368.701,1694.24 369.171,1695.18 369.341,1695.77 C 369.512,1696.36 369.712,1696.85 369.788,1696.85 C 369.999,1696.85 369.855,1696.95 369.771,1697.1 C 369.853,1697.21 369.619,1697.35 369.619,1697.35 C 369.763,1697.59 369.763,1697.59 369.904,1697.82 C 377.069,1699.58 377.069,1699.58 377.212,1699.81 L 380.983,1700.74 L 381.308,1700.22 Z "/>
		<path id="dp_path031" fill="#cbcbcb" fill-rule="evenodd" stroke="none" stroke-width="0" d="M 372.669,1632.25 C 372.204,1632.53 371.691,1632.74 371.203,1632.98 C 370.459,1633.34 369.76,1633.77 369.649,1633.92 C 369.437,1634.22 369.197,1634.36 368.885,1634.55 C 368.064,1635.04 367.452,1635.78 366.783,1636.46 C 366.148,1636.85 365.819,1637.89 365.459,1638.52 C 365.148,1639.22 364.759,1639.85 364.368,1640.51 C 363.943,1641.24 363.864,1642.03 363.703,1642.86 C 363.377,1644.52 363.209,1646.03 363.299,1647.72 C 363.375,1649.16 363.647,1650.55 363.964,1651.94 L 364.129,1652.26 L 364.296,1652.58 C 364.3,1652.58 364.305,1652.57 364.309,1652.57 L 365.419,1654.4 C 366.553,1656.27 368.12,1657.6 369.877,1658.84 C 371.343,1659.88 373.104,1660.11 374.829,1660.45 C 375.351,1660.71 376.281,1660.6 376.801,1660.44 C 377.239,1660.3 377.468,1660.29 377.915,1660.39 C 378.375,1660.5 378.492,1660.51 378.589,1660.45 C 378.797,1660.32 379.079,1660.35 379.319,1660.33 C 379.948,1659.95 380.665,1659.71 381.34,1659.43 C 383.379,1658.56 385.249,1657.16 386.62,1655.42 C 387.117,1654.79 387.561,1654.15 387.987,1653.47 C 388.415,1652.78 388.661,1652.31 388.723,1652.06 C 388.875,1651.44 389.247,1650.86 389.544,1650.29 C 389.367,1649.83 389.511,1649.28 389.565,1648.8 C 390.061,1647.96 390.052,1647.19 389.973,1646.24 C 390.248,1645.69 390.259,1645.38 390.208,1644.74 C 390.159,1644.13 390.005,1643.6 389.728,1643.07 C 389.585,1642.32 389.441,1641.58 389.299,1640.83 C 389.32,1640.64 389.343,1640.46 389.364,1640.27 C 389.107,1640.43 389.064,1639.8 388.993,1639.6 C 388.856,1639.19 388.577,1638.7 388.375,1638.52 C 387.964,1638.15 387.877,1637.58 387.767,1637.07 C 387.755,1637.07 387.741,1637.08 387.729,1637.09 L 386.649,1635.88 C 386.055,1635.22 385.145,1634.44 384.629,1634.15 C 383.885,1633.74 383.271,1633.22 382.676,1632.63 L 382.464,1632.69 C 382.033,1632.81 381.448,1632.24 381.077,1632.01 C 380.523,1632.22 379.66,1632.12 379.213,1631.75 C 378.577,1631.22 377.283,1631.34 376.473,1631.26 C 375.3,1631.62 374.14,1632 372.979,1632.39 L 372.883,1632.28 C 372.791,1632.19 372.785,1632.18 372.669,1632.25 Z M 370.516,1635.32 C 370.299,1635.54 369.987,1635.73 369.824,1635.74 C 369.664,1635.75 369.231,1636.09 368.865,1636.48 C 367.969,1637.46 367.045,1638.47 366.627,1639.73 C 366.331,1640.63 365.86,1641.38 365.36,1642.18 C 365.135,1643.09 364.911,1644.01 364.685,1644.93 C 364.231,1646.78 364.753,1648.89 365.347,1650.66 C 365.332,1650.67 365.319,1650.67 365.304,1650.68 C 365.888,1651.76 366.472,1652.84 367.056,1653.92 C 367.143,1654.65 367.843,1655.08 368.355,1655.58 C 368.296,1655.61 368.868,1656.19 368.948,1656.28 C 369.404,1656.77 369.781,1657.07 370.381,1657.38 L 371.191,1657.8 L 371.277,1657.8 C 371.62,1657.8 372.019,1658.03 372.34,1658.14 C 372.876,1658.32 373.417,1658.5 373.541,1658.53 C 373.856,1658.61 374.171,1658.69 374.484,1658.76 C 375.296,1658.96 376.055,1659.04 376.881,1658.86 C 377.457,1658.74 377.988,1658.81 378.556,1658.78 C 379.18,1658.75 379.913,1658.26 380.487,1658.02 C 382.405,1657.2 384.049,1655.88 385.549,1654.45 C 386.736,1653.31 387.193,1651.77 387.575,1650.22 L 387.821,1649.93 C 388.407,1649.25 388.367,1647.85 388.499,1646.96 C 388.643,1645.99 388.7,1644.88 388.428,1643.92 C 388.313,1643.51 388.333,1643.17 388.449,1642.78 C 388.031,1641.68 387.611,1640.57 387.192,1639.47 C 386.699,1638.66 386.207,1637.84 385.713,1637.03 C 385.731,1637.02 385.751,1637.01 385.771,1636.99 C 385.339,1636.72 384.905,1636.45 384.473,1636.18 C 384.707,1636.03 384.443,1635.89 384.299,1635.7 C 383.443,1634.6 381.737,1634.12 380.461,1633.66 L 380.435,1633.65 C 379.788,1633.24 378.723,1633.31 377.988,1633.24 C 376.084,1633.08 374.293,1633.58 372.477,1634.1 C 372.139,1634.44 371.931,1634.61 371.456,1634.75 C 371.159,1634.85 370.737,1635.1 370.516,1635.32 Z "/>
		<path id="dp_path032" fill="#cbcbcb" fill-rule="evenodd" stroke="none" stroke-width="0" d="M 365.393,1699.29 C 365.112,1699.2 364.969,1699.2 364.731,1699.35 L 363.687,1703.83 L 362.644,1708.32 C 365.101,1708.96 367.557,1709.6 370.015,1710.24 L 373.045,1711.03 C 375.503,1711.67 376.153,1711.73 376.491,1711.36 C 377.165,1710.63 377.657,1709.72 378.183,1708.89 C 378.777,1708.1 379.369,1707.31 379.964,1706.53 C 380.479,1705.79 380.991,1705.05 381.505,1704.31 L 381.819,1703.91 L 382.129,1703.52 C 376.672,1702.15 371.216,1700.78 365.759,1699.4 Z M 372.404,1701.58 L 365.504,1699.84 C 365.388,1699.91 365.272,1699.99 365.157,1700.05 C 364.517,1702.67 363.819,1705.27 363.136,1707.87 C 365.187,1708.4 367.239,1708.93 369.288,1709.46 L 372.337,1710.31 C 374.637,1710.95 375.465,1711.18 375.709,1711.27 C 375.904,1711.33 376.268,1711 376.637,1710.42 C 377.053,1709.76 377.491,1709.15 377.969,1708.54 C 379.151,1707.04 380.207,1705.44 381.319,1703.89 L 380.313,1703.61 C 377.693,1702.87 375.043,1702.25 372.404,1701.58 Z "/>
		<path id="dp_path033" fill="#cbcbcb" fill-rule="evenodd" stroke="none" stroke-width="0" d="M 342.245,1694.03 L 342.395,1695.87 C 342.921,1697.8 342.921,1697.8 342.737,1698.55 C 342.936,1701 342.936,1701 343.077,1701.24 L 343.748,1703.4 L 344.879,1703.68 L 347.143,1704.23 L 356.947,1706.64 L 356.805,1706.4 L 347.465,1704 L 347.104,1703.77 C 346.664,1703.5 346.984,1702.86 347.183,1702.52 C 347.325,1702.28 347.42,1702.01 347.529,1701.75 C 347.073,1701.81 347.143,1701.22 347.116,1700.88 C 347.229,1700.75 347.341,1700.63 347.455,1700.51 C 347.057,1700.39 347.12,1700.36 347.3,1699.96 C 347.431,1699.67 347.564,1699.37 347.695,1699.08 L 347.892,1698.64 C 347.436,1698.7 347.505,1698.11 347.477,1697.77 C 347.591,1697.64 347.705,1697.52 347.817,1697.4 C 347.492,1697.31 347.729,1696.28 347.753,1695.99 C 347.891,1695.97 348.027,1695.94 348.163,1695.91 L 348.281,1695.68 C 348.345,1695.55 350.732,1696.02 353.583,1696.71 L 358.763,1697.98 L 358.659,1697.81 C 358.697,1697.87 358.555,1697.63 358.555,1697.63 L 345.733,1694.49 C 342.481,1693.89 342.481,1693.89 342.245,1694.03 Z "/>
		<path id="dp_path034" fill="#ebebeb" fill-rule="evenodd" stroke="none" stroke-width="0" d="M 361.407,1608.58 C 357.063,1614.95 353.512,1621.93 351.452,1626.69 C 350.131,1629.75 349.705,1629.56 348.571,1632.69 C 347.721,1635.03 346.985,1638.67 345.967,1641.37 C 345.145,1643.56 344.956,1650.33 343.563,1651.18 C 343.752,1651.66 342.385,1662.37 341.859,1664.65 C 341.443,1666.45 342.419,1666.51 341.924,1668.29 C 340.819,1672.27 341.783,1684.06 341.801,1684.57 C 341.855,1686.01 341.969,1687.72 342.147,1689.28 C 342.176,1689.54 342.123,1690.5 342.468,1690.69 C 345.119,1692.18 355.741,1693.87 359.549,1694.77 C 361.183,1688.21 362.985,1679.1 365.475,1673.46 C 367.192,1673.92 369.116,1674.43 371.003,1674.95 C 369.099,1679.17 369.052,1683.36 368.16,1687 C 368.995,1686.49 370.827,1677.36 371.24,1675.7 C 372.328,1676 373.023,1676.1 373.581,1676.36 C 373.92,1676.52 374.275,1677.03 374.547,1677.29 C 374.731,1677.46 375.315,1677.69 375.097,1677.82 C 375.179,1677.88 375.444,1678.09 375.608,1678.22 C 375.735,1678.33 376.043,1678.48 375.925,1678.6 C 378.517,1681.13 378.988,1682.85 380.204,1686.17 C 380.443,1686.37 380.811,1686.22 381.504,1684.84 C 382.075,1683.71 382.991,1682.64 383.732,1681.38 C 386.087,1677.38 387.507,1674.71 390.084,1670.15 C 390.101,1670.11 391.187,1666.66 391.501,1666.1 C 395.595,1658.73 400.467,1642.3 401.801,1637.04 C 402.657,1633.67 403.424,1631.26 404.083,1628.33 C 404.193,1627.83 404.265,1627.48 404.424,1626.95 C 404.548,1626.53 404.567,1625.79 405,1625.78 C 405.36,1625.86 405.324,1626.25 405.315,1626.38 C 405.301,1626.61 405.283,1626.82 405.265,1627.05 C 405.192,1628.03 405.727,1629.31 405.349,1631.46 C 405.241,1632.08 405.551,1634.32 405.539,1634.84 C 405.447,1638.99 405.015,1642.35 403.947,1647.04 C 402.82,1651.99 401.116,1659.73 399.917,1663.54 C 399.312,1665.46 399.64,1666.2 398.432,1668.67 C 396.795,1672.01 394.389,1677.99 392.619,1681.93 C 390.463,1686.74 388.705,1690.66 386.067,1694.35 C 385.117,1695.67 383.897,1697.26 383.163,1698.47 C 382.793,1699.08 380.36,1699.94 382.056,1700.41 C 382.341,1700.49 383.275,1700.93 383.536,1700.83 C 384.919,1700.29 390.839,1688.49 391.843,1686.61 C 398.981,1673.25 404.784,1655.95 406.288,1640.35 C 406.615,1636.96 406.007,1633.17 406.233,1629.49 C 406.26,1629.05 406.416,1629.14 406.793,1628.91 C 405.859,1627.36 406.104,1625.67 406.016,1624.25 C 405.927,1622.85 406.119,1620.32 405.576,1620.01 C 402.724,1618.41 397.579,1618.06 394.572,1617.3 C 386.745,1615.34 379.637,1613.21 371.745,1611.34 C 376.715,1615.35 372.529,1618.09 370.401,1622.56 C 365.719,1632.41 358.952,1641.91 353.436,1650.04 C 352.939,1650.78 346.293,1660.44 343.976,1659.98 C 343.499,1659.83 343.571,1657.54 343.695,1656.59 C 343.791,1655.84 343.876,1655.64 343.972,1655.13 C 344.575,1651.97 345.152,1648.84 345.817,1646 C 347.703,1637.96 354.563,1616.51 361.301,1611.74 C 363.255,1610.35 364.777,1610.89 366.567,1610.33 C 366.883,1610.22 365.276,1609.82 364.916,1609.72 C 363.757,1609.4 362.669,1608.89 361.407,1608.58 Z M 372.669,1632.25 C 370.94,1633.22 368.761,1634.18 366.455,1636.74 C 365.58,1637.71 365.82,1637.88 365.212,1639.03 C 364.921,1639.59 364.613,1639.84 364.163,1640.93 C 362.928,1643.9 363.157,1648.04 363.736,1650.9 C 364.007,1652.23 364.701,1653.25 365.419,1654.4 C 366.847,1656.69 369.108,1659.17 372.572,1659.99 C 373.343,1660.17 373.727,1660.2 374.831,1660.45 C 376.059,1660.73 376.068,1660.49 377.228,1660.34 C 377.86,1660.26 377.845,1660.52 378.483,1660.48 C 379.635,1660.42 379.563,1660.16 380.056,1659.95 C 380.481,1659.77 380.911,1659.61 381.34,1659.42 C 381.791,1659.23 382.228,1659.02 382.651,1658.78 C 386.213,1656.79 387.399,1654.99 388.92,1651.49 C 389.247,1650.74 389.368,1650.78 389.544,1650.29 C 389.66,1649.98 389.457,1649.23 389.565,1648.8 C 389.649,1648.47 389.932,1647.91 389.963,1647.72 C 390.044,1647.19 389.917,1646.68 389.973,1646.24 C 390.04,1645.71 390.221,1644.91 390.208,1644.74 C 390.16,1644.14 389.88,1643.63 389.728,1643.07 C 389.505,1642.25 389.211,1641.12 389.34,1640.29 C 389.349,1640.23 389.196,1640.28 389.177,1640.23 C 389.137,1640.11 389.096,1640.04 389.073,1639.94 C 388.891,1639.15 388.039,1638.29 387.852,1637.46 C 387.751,1637.01 387.367,1636.69 387.011,1636.29 C 386.292,1635.48 383.271,1632.82 382.464,1632.69 C 381.579,1632.54 381.736,1632.15 381.077,1632.01 C 380.529,1631.88 380.363,1632.15 379.977,1632.07 C 379.787,1632.04 379.032,1631.58 378.631,1631.46 C 376.571,1630.87 375.704,1631.49 374.548,1631.87 C 374.085,1632.02 373.459,1632.37 372.98,1632.39 C 372.867,1632.39 372.767,1632.19 372.669,1632.25 Z "/>
		<path id="dp_path035" fill="#ebebeb" fill-rule="evenodd" stroke="none" stroke-width="0" d="M 372.404,1701.58 L 365.504,1699.84 C 365.388,1699.91 365.272,1699.99 365.157,1700.05 C 364.517,1702.67 363.819,1705.27 363.136,1707.87 C 365.187,1708.4 367.239,1708.93 369.288,1709.46 L 372.337,1710.31 C 374.637,1710.95 375.465,1711.18 375.709,1711.27 C 375.904,1711.33 376.268,1711 376.637,1710.42 C 377.053,1709.76 377.491,1709.15 377.969,1708.54 C 379.151,1707.04 380.207,1705.44 381.319,1703.89 L 380.313,1703.61 C 377.693,1702.87 375.043,1702.25 372.404,1701.58 Z "/>
		<path id="dp_path036" fill="#ebebeb" fill-rule="evenodd" stroke="none" stroke-width="0" d="M 356.805,1706.4 L 347.465,1704 L 347.104,1703.77 C 346.664,1703.5 346.984,1702.86 347.183,1702.52 C 347.325,1702.28 347.42,1702.01 347.529,1701.75 C 347.073,1701.81 347.143,1701.22 347.116,1700.88 C 347.229,1700.75 347.341,1700.63 347.455,1700.51 C 347.057,1700.39 347.12,1700.36 347.3,1699.96 C 347.431,1699.67 347.564,1699.37 347.695,1699.08 L 347.892,1698.64 C 347.436,1698.7 347.505,1698.11 347.477,1697.77 C 347.591,1697.64 347.705,1697.52 347.817,1697.4 C 347.492,1697.31 347.729,1696.28 347.753,1695.99 C 347.891,1695.97 348.027,1695.94 348.163,1695.91 L 348.281,1695.68 C 348.345,1695.55 350.732,1696.02 353.583,1696.71 L 358.763,1697.98 L 358.659,1697.81 C 358.697,1697.87 358.555,1697.63 358.555,1697.63 C 358.555,1697.63 358.788,1697.49 358.915,1697.61 L 359.275,1697.58 C 358.491,1700.53 357.689,1703.47 356.805,1706.4 Z "/>
		<path id="dp_path037" fill="#ebebeb" fill-rule="evenodd" stroke="none" stroke-width="0" d="M 352.152,1708.26 C 351.916,1708.4 351.824,1708.78 351.852,1709.06 C 351.269,1710.65 350.972,1712.29 350.755,1713.95 C 350.3,1717.52 349.903,1721.07 349.231,1724.6 C 349.085,1725.37 349.008,1726.09 348.613,1726.76 C 348.439,1727.06 348.148,1727.29 348.587,1727.27 C 348.741,1727.27 349.325,1726.55 349.881,1725.68 C 350.529,1724.67 351.077,1723.72 351.528,1722.62 C 352.279,1720.78 352.953,1718.89 353.601,1717.01 C 353.647,1716.02 353.647,1716.02 354.3,1714.98 C 354.671,1713.47 354.671,1713.47 355.14,1713.19 L 355.373,1713.05 L 355.231,1712.81 C 354.392,1712.98 354.3,1713.09 353.921,1714.37 C 353.108,1717.11 352.232,1719.87 351.151,1722.53 C 350.709,1723.61 350.151,1724.46 349.381,1725.35 L 349.649,1724.21 C 350.433,1720.88 350.699,1717.43 351.132,1714.05 C 351.349,1712.38 351.645,1710.74 352.231,1709.16 C 352.201,1708.87 352.293,1708.49 352.527,1708.35 L 352.385,1708.12 Z "/>
		<path id="dp_path038" fill="#ebebeb" fill-rule="evenodd" stroke="none" stroke-width="0" d="M 367.051,1691.52 L 366.217,1694.92 C 366.083,1696.28 366.083,1696.28 366.367,1696.75 L 367.12,1696.94 L 369.619,1697.35 C 369.619,1697.35 369.853,1697.21 369.771,1697.1 C 369.855,1696.95 369.999,1696.85 369.788,1696.85 C 369.712,1696.85 369.512,1696.36 369.341,1695.77 C 369.171,1695.18 368.701,1694.24 368.296,1693.68 C 368.047,1693.33 367.812,1692.73 367.384,1692.6 C 367.356,1692.57 367.328,1692.53 367.3,1692.49 Z "/>
		<path id="dp_path039" fill="#ebebeb" fill-rule="evenodd" stroke="none" stroke-width="0" d="M 369.904,1697.82 C 370.564,1698.38 370.564,1698.38 377.212,1699.81 C 377.069,1699.58 377.069,1699.58 369.904,1697.82 Z "/>
		<path id="dp_path040" fill="#ebebeb" fill-rule="evenodd" stroke="none" stroke-width="0" d="M 345.733,1694.49 C 345.461,1694.24 344.516,1693.87 343.629,1693.67 L 342.017,1693.32 L 342.132,1693.68 C 342.103,1693.8 342.245,1694.03 342.245,1694.03 C 342.481,1693.89 342.481,1693.89 345.733,1694.49 Z "/>
		<path id="dp_path041" fill="#ebebeb" fill-rule="evenodd" stroke="none" stroke-width="0" d="M 342.395,1695.87 C 342.595,1698.32 342.595,1698.32 342.737,1698.55 C 342.921,1697.8 342.921,1697.8 342.395,1695.87 Z "/>
		<path id="dp_path042" fill="#ebebeb" fill-rule="evenodd" stroke="none" stroke-width="0" d="M 343.077,1701.24 L 343.136,1703.45 L 343.748,1703.4 Z "/>
		<path id="dp_path043" fill="#ebebeb" fill-rule="evenodd" stroke="none" stroke-width="0" d="M 344.879,1703.68 C 345.183,1703.96 345.752,1704.23 346.145,1704.29 C 346.657,1704.37 346.9,1704.38 347.001,1704.32 C 347.143,1704.23 347.143,1704.23 347.143,1704.23 Z "/>
		<path id="dp_path044" fill="#fefefe" fill-rule="evenodd" stroke="none" stroke-width="0" d="M 374.747,1612.05 L 371.745,1611.34 L 372.687,1612.1 C 373.205,1612.51 373.839,1613.2 374.093,1613.62 C 374.731,1614.67 373.973,1615.68 373.519,1616.65 C 373.309,1617.09 373.099,1617.55 372.889,1617.99 C 372.772,1618.26 372.652,1618.52 372.535,1618.79 C 372.135,1619.29 371.833,1619.77 371.613,1620.39 C 371.389,1621.01 371.263,1621.27 371.031,1621.55 C 370.527,1622.15 370.235,1622.95 369.9,1623.66 C 369.005,1625.27 368.109,1626.88 367.216,1628.5 C 365.977,1630.73 364.668,1632.92 363.389,1635.13 C 361.672,1638.1 359.909,1641.04 357.867,1643.79 C 356.759,1645.29 355.7,1646.81 354.651,1648.34 C 354.247,1648.91 353.84,1649.48 353.436,1650.04 C 353.111,1650.55 352.787,1651.06 352.461,1651.56 C 352.165,1651.96 351.869,1652.35 351.572,1652.74 C 350.779,1653.91 349.868,1654.95 348.945,1656.03 C 347.669,1657.52 346.283,1658.77 344.679,1659.87 L 344.212,1659.97 C 343.379,1660.15 343.64,1658.74 343.699,1658.32 C 343.787,1657.69 343.795,1657.39 343.729,1657.12 C 343.657,1656.81 343.664,1656.66 343.783,1656.09 C 344.044,1654.81 344.264,1653.53 344.497,1652.25 C 345.815,1645.33 347.571,1638.49 349.996,1631.87 C 350.723,1629.89 351.544,1627.94 352.337,1625.99 C 352.559,1625.6 352.743,1625.24 352.904,1624.82 C 353.023,1624.51 353.265,1624.08 353.441,1623.86 C 353.688,1623.54 353.823,1623.28 354.044,1622.66 C 354.267,1622.03 354.396,1621.78 354.628,1621.5 C 354.791,1621.3 355.277,1620.44 355.709,1619.58 C 356.401,1618.19 357.129,1616.84 358.165,1615.68 C 358.544,1615.25 359.109,1614.47 359.423,1613.93 C 360.171,1612.66 361.064,1611.61 362.501,1611.13 C 363.321,1610.85 364.029,1610.69 364.891,1610.62 C 365.551,1610.57 366.183,1610.49 366.799,1610.25 C 365.944,1610.01 365.089,1609.77 364.231,1609.53 L 364.137,1609.38 C 364.044,1609.23 364.044,1609.23 364.044,1609.23 C 374.084,1611.49 374.084,1611.49 374.747,1612.05 Z "/>
		<path id="dp_path045" fill="#fefefe" fill-rule="evenodd" stroke="none" stroke-width="0" d="M 390.899,1580.43 L 389.699,1581.16 C 388.512,1581.52 387.5,1582.27 386.484,1582.97 C 383.637,1584.94 380.848,1586.98 378.221,1589.24 C 376.239,1590.94 374.339,1592.73 372.429,1594.51 C 371.771,1595.33 371.111,1596.15 370.451,1596.96 C 369.049,1598.38 367.699,1599.83 366.388,1601.32 C 365.873,1601.91 365.328,1602.46 364.773,1603.01 L 364.843,1603.13 C 364.912,1603.24 364.912,1603.24 364.912,1603.24 C 365.148,1603.1 365.617,1602.81 365.857,1602.65 L 366.8,1602.07 C 371.152,1598.67 375.467,1595.23 379.731,1591.73 C 382.011,1590.06 384.271,1588.41 386.424,1586.58 C 388.428,1584.88 390.568,1583.16 392.051,1580.96 L 391.981,1580.72 C 391.944,1580.58 391.455,1580.45 390.899,1580.43 Z "/>
		<path id="dp_path046" fill="#fefefe" fill-rule="evenodd" stroke="none" stroke-width="0" d="M 355.231,1712.81 C 354.392,1712.98 354.3,1713.09 353.921,1714.37 C 353.108,1717.11 352.232,1719.87 351.151,1722.53 C 350.709,1723.61 350.151,1724.46 349.381,1725.35 L 349.649,1724.21 C 350.433,1720.88 350.699,1717.43 351.132,1714.05 C 351.349,1712.38 351.645,1710.74 352.231,1709.16 C 352.201,1708.87 352.293,1708.49 352.527,1708.35 L 356.3,1709.28 Z "/>
		<path id="dp_path047" fill="#fefefe" fill-rule="evenodd" stroke="none" stroke-width="0" d="M 361.405,1608.58 C 360.445,1609.16 359.839,1610.3 359.167,1611.19 C 357.576,1613.5 356.173,1615.9 354.809,1618.36 C 354.437,1618.96 354.101,1619.56 353.86,1620.23 C 353.651,1620.82 353.372,1621.27 352.977,1621.75 C 352.831,1622.35 352.683,1622.95 352.535,1623.55 L 352.368,1623.83 C 352.025,1624.4 351.777,1625.02 351.527,1625.63 C 351.356,1626.05 351.144,1626.34 350.787,1626.61 C 350.639,1627.21 350.492,1627.81 350.344,1628.41 C 350.181,1628.53 350.017,1628.66 349.855,1628.78 C 349.691,1629.45 349.525,1630.12 349.361,1630.79 C 349.311,1631 349.217,1631.38 349.217,1631.38 C 349.217,1631.38 349.217,1631.38 349.359,1631.29 C 349.441,1631.24 349.595,1630.95 349.732,1630.58 C 350.017,1629.82 350.375,1629.11 350.568,1628.31 L 350.745,1627.6 C 351.101,1627.33 351.312,1627.04 351.485,1626.61 C 352.017,1625.31 352.603,1623.96 353.332,1622.75 C 353.533,1621.93 353.663,1621.13 354.108,1620.4 C 354.359,1620 354.591,1619.58 354.813,1619.16 C 356.149,1616.63 357.568,1614.14 359.216,1611.8 Z "/>
		<path id="dp_path048" fill="#fefefe" fill-rule="evenodd" stroke="none" stroke-width="0" d="M 346.237,1691.62 C 346.479,1691.85 349.643,1692.75 353.268,1693.64 L 359.857,1695.25 C 360.336,1693.14 360.779,1691.01 361.295,1688.91 C 361.295,1688.91 361.06,1689.05 361.125,1689.01 L 360.956,1689.12 C 360.487,1691 360.019,1692.89 359.549,1694.77 Z "/>
		<path id="dp_path049" fill="#fefefe" fill-rule="evenodd" stroke="none" stroke-width="0" d="M 341.491,1672.66 C 341.327,1673.34 341.219,1674.1 341.351,1674.79 C 341.424,1675.18 341.421,1675.48 341.331,1676.13 C 341.239,1676.78 341.236,1677.07 341.312,1677.42 C 341.479,1678.19 341.365,1679.04 341.335,1679.82 C 341.428,1683.46 341.635,1687.1 341.853,1690.74 L 342.16,1690.72 C 342.232,1690.83 342.468,1690.69 342.468,1690.69 C 342.468,1690.69 342.325,1690.46 342.333,1690.47 C 342.26,1690.35 342.096,1689 341.972,1687.46 C 341.827,1685.68 341.749,1683.91 341.768,1682.12 C 341.743,1681.12 341.713,1680.12 341.708,1679.11 C 341.704,1678.08 341.901,1676.93 341.681,1675.92 C 341.605,1675.56 341.609,1675.27 341.699,1674.62 C 341.763,1674.16 341.669,1673.28 341.491,1672.66 Z "/>
		<path id="dp_path050" fill="#fefefe" fill-rule="evenodd" stroke="none" stroke-width="0" d="M 389.883,1690.53 C 389.964,1690.04 390.091,1689.74 390.356,1689.32 C 390.904,1688.44 391.361,1687.52 391.843,1686.61 C 392.165,1686 392.517,1685.41 392.881,1684.82 C 393.028,1684.22 393.177,1683.62 393.324,1683.01 C 394.383,1681.26 395.24,1679.26 396.011,1677.36 C 396.249,1676.77 396.581,1676.24 396.916,1675.7 L 397.04,1675.61 C 397.161,1675.52 397.161,1675.52 397.161,1675.52 C 397.161,1675.52 397.161,1675.52 397.157,1675.54 C 397.007,1676.15 396.857,1676.76 396.709,1677.37 C 396.352,1677.63 396.14,1677.93 395.968,1678.35 C 395.435,1679.65 394.851,1681 394.121,1682.21 C 393.973,1682.81 393.825,1683.42 393.679,1684.02 C 393.284,1684.49 393.005,1684.94 392.796,1685.53 C 392.556,1686.21 392.219,1686.81 391.847,1687.41 C 391.569,1687.99 391.293,1688.58 391.017,1689.16 Z "/>
		<path id="dp_path051" fill="#fefefe" fill-rule="evenodd" stroke="none" stroke-width="0" d="M 388.808,1692.46 C 388.483,1692.98 387.919,1693.64 387.705,1694.11 L 386.6,1695.76 C 385.579,1697.45 384.557,1699.14 383.536,1700.83 L 381.687,1700.31 L 381.308,1700.22 L 380.983,1700.74 C 381.881,1700.96 382.788,1701.1 383.701,1701.26 C 384.765,1699.57 385.829,1697.88 386.895,1696.19 C 387.581,1695.03 388.265,1693.86 388.951,1692.7 L 388.88,1692.58 C 388.808,1692.46 388.808,1692.46 388.808,1692.46 Z "/>
		<path id="dp_path052" fill="#fefefe" fill-rule="evenodd" stroke="none" stroke-width="0" d="M 402.559,1619.27 C 392.001,1616.68 392.001,1616.68 391.859,1616.45 C 401.9,1618.71 401.9,1618.71 402.559,1619.27 Z "/>
		<path id="dp_path053" fill="#fefefe" fill-rule="evenodd" stroke="none" stroke-width="0" d="M 388.843,1615.71 C 378.283,1613.12 378.283,1613.12 378.14,1612.88 C 388.18,1615.15 388.18,1615.15 388.843,1615.71 Z "/>
		<path id="dp_path054" fill="#fefefe" fill-rule="evenodd" stroke="none" stroke-width="0" d="M 362.404,1684.39 L 364.9,1674.2 L 365.044,1674.44 C 362.965,1683.72 362.965,1683.72 362.404,1684.39 Z "/>
		<path id="dp_path055" fill="#fefefe" fill-rule="evenodd" stroke="none" stroke-width="0" d="M 406.509,1628.44 C 406.195,1626.7 406.04,1625.04 405.964,1623.27 C 405.891,1621.55 405.792,1620.37 405.709,1620.23 C 405.719,1620.25 405.576,1620.01 405.576,1620.01 C 405.576,1620.01 405.812,1619.87 405.883,1619.99 L 406.189,1619.96 C 406.309,1621.92 406.428,1623.89 406.544,1625.85 C 406.653,1626.64 406.935,1627.7 406.509,1628.44 Z "/>
		<path id="dp_path056" fill="#fefefe" fill-rule="evenodd" stroke="none" stroke-width="0" d="M 401.673,1662.83 C 403.152,1656.8 403.152,1656.8 403.387,1656.66 C 402.235,1662.17 402.235,1662.17 401.673,1662.83 Z "/>
		<path id="dp_path057" fill="#fefefe" fill-rule="evenodd" stroke="none" stroke-width="0" d="M 406.488,1634.23 C 406.311,1633.61 406.215,1632.73 406.28,1632.27 C 406.372,1631.61 406.373,1631.33 406.297,1630.97 C 406.133,1630.21 406.253,1629.38 406.289,1628.6 L 406.425,1628.83 C 406.419,1628.81 406.56,1629.05 406.56,1629.05 C 406.56,1629.05 406.703,1629.28 406.651,1629.49 C 406.943,1630.91 406.836,1632.82 406.488,1634.23 Z "/>
		<path id="dp_path058" fill="#fefefe" fill-rule="evenodd" stroke="none" stroke-width="0" d="M 344.577,1647.03 C 343.653,1650.8 343.653,1650.8 343.796,1651.04 C 344.771,1647.88 344.771,1647.88 344.577,1647.03 Z "/>
		<path id="dp_path059" fill="#fefefe" fill-rule="evenodd" stroke="none" stroke-width="0" d="M 347.033,1637.84 C 346.471,1638.5 346.471,1638.5 345.967,1641.37 C 346.2,1641.23 346.2,1641.23 347.033,1637.84 Z "/>
		<path id="dp_path060" fill="#fefefe" fill-rule="evenodd" stroke="none" stroke-width="0" d="M 341.881,1665.36 C 341.672,1666.22 341.587,1667.08 341.533,1667.96 C 341.516,1668.22 341.537,1668.5 341.581,1668.57 C 341.661,1668.71 341.661,1668.71 341.661,1668.71 C 341.661,1668.71 341.897,1668.56 341.793,1668.5 L 341.924,1668.29 C 341.752,1667.79 341.756,1667.37 341.831,1666.84 C 341.916,1666.23 341.929,1665.82 341.881,1665.36 Z "/>
		<path id="dp_path061" fill="#fefefe" fill-rule="evenodd" stroke="none" stroke-width="0" d="M 406.184,1639.55 C 406.136,1639.09 406.149,1638.68 406.235,1638.07 C 406.309,1637.54 406.313,1637.12 406.141,1636.62 L 406.272,1636.41 C 406.168,1636.35 406.404,1636.21 406.404,1636.21 C 406.404,1636.21 406.404,1636.21 406.484,1636.34 C 406.528,1636.41 406.549,1636.69 406.532,1636.95 C 406.479,1637.84 406.393,1638.69 406.184,1639.55 Z "/>
		<path id="dp_path062" fill="#fefefe" fill-rule="evenodd" stroke="none" stroke-width="0" d="M 398.185,1672.97 C 398.349,1672.31 398.523,1671.66 398.747,1671.01 C 398.956,1670.41 399.055,1670.2 399.163,1670.13 C 399.304,1670.05 399.304,1670.05 399.304,1670.05 C 399.304,1670.05 399.209,1670.43 399.16,1670.63 C 398.959,1671.45 398.652,1672.26 398.185,1672.97 Z "/>
		<path id="dp_path063" fill="#fefefe" fill-rule="evenodd" stroke="none" stroke-width="0" d="M 400.699,1665.99 C 401.345,1663.35 401.345,1663.35 401.58,1663.21 C 401.259,1665.33 401.259,1665.33 400.699,1665.99 Z "/>
		<path id="dp_path064" fill="#fefefe" fill-rule="evenodd" stroke="none" stroke-width="0" d="M 367.12,1696.94 C 367.783,1697.5 367.783,1697.5 369.904,1697.82 C 369.763,1697.59 369.763,1697.59 369.619,1697.35 Z "/>
		<path id="dp_path065" fill="#fefefe" fill-rule="evenodd" stroke="none" stroke-width="0" d="M 342.288,1661.26 C 342.139,1661.87 341.997,1662.46 341.929,1663.08 C 341.889,1663.44 341.893,1663.79 341.936,1663.86 C 342.017,1663.99 342.017,1663.99 342.017,1663.99 C 342.017,1663.99 342.109,1663.62 342.199,1663.26 C 342.38,1662.52 342.492,1662.01 342.288,1661.26 Z "/>
		<path id="dp_path066" fill="#fefefe" fill-rule="evenodd" stroke="none" stroke-width="0" d="M 404.127,1653.64 C 403.985,1653.41 403.985,1653.41 404.54,1651.14 C 404.683,1651.38 404.683,1651.38 404.127,1653.64 Z "/>
		<path id="dp_path067" fill="#fefefe" fill-rule="evenodd" stroke="none" stroke-width="0" d="M 343.704,1651.41 C 343.148,1653.68 343.148,1653.68 343.292,1653.91 C 343.896,1652.26 343.896,1652.26 343.704,1651.41 Z "/>
		<path id="dp_path068" fill="#fefefe" fill-rule="evenodd" stroke="none" stroke-width="0" d="M 347.916,1635.06 C 347.352,1635.72 347.352,1635.72 347.125,1637.46 C 347.36,1637.32 347.36,1637.32 347.916,1635.06 Z "/>
		<path id="dp_path069" fill="#fefefe" fill-rule="evenodd" stroke="none" stroke-width="0" d="M 404.725,1650.39 C 404.532,1649.54 404.532,1649.54 405.137,1647.89 C 405.28,1648.13 405.28,1648.13 404.725,1650.39 Z "/>
		<path id="dp_path070" fill="#fefefe" fill-rule="evenodd" stroke="none" stroke-width="0" d="M 366.217,1694.92 C 365.956,1695.2 365.121,1696.65 365.976,1696.72 C 365.991,1696.66 366.367,1696.75 366.367,1696.75 C 366.083,1696.28 366.083,1696.28 366.217,1694.92 Z "/>
		<g id="dp_dp071" clip-path="url(#clip_dp_001)">
			<g id="clip">
				<path id="dp_path072" fill="#d6deff" fill-rule="evenodd" stroke="none" stroke-width="0" d="M 462.187,1508.4 C 462.097,1507.9 461.876,1507.47 461.521,1507.11 C 460.735,1506.33 459.823,1506.16 458.784,1506.62 C 455.996,1507.91 453.105,1508.55 450.115,1508.55 C 446.364,1508.55 442.904,1507.63 439.736,1505.78 C 436.567,1503.93 434.057,1501.42 432.208,1498.25 C 430.356,1495.08 429.432,1491.62 429.432,1487.87 C 429.432,1484.96 430.009,1482.19 431.161,1479.56 C 432.315,1476.94 433.981,1474.64 436.161,1472.66 C 436.997,1471.88 437.188,1470.97 436.732,1469.93 C 436.301,1468.89 435.528,1468.39 434.413,1468.44 C 430.535,1468.59 426.86,1469.46 423.387,1471.05 C 419.915,1472.63 416.929,1474.72 414.433,1477.3 C 411.936,1479.89 409.959,1482.95 408.501,1486.48 C 407.044,1490.02 406.315,1493.73 406.315,1497.61 C 406.315,1501.56 407.088,1505.34 408.635,1508.94 C 410.181,1512.53 412.259,1515.64 414.869,1518.25 C 417.481,1520.86 420.585,1522.94 424.185,1524.49 C 427.785,1526.03 431.561,1526.81 435.516,1526.81 C 441.193,1526.81 446.433,1525.27 451.236,1522.19 C 456.04,1519.11 459.633,1514.99 462.016,1509.85 C 462.219,1509.39 462.276,1508.91 462.187,1508.4 Z M 445.915,1519.6 C 442.631,1521.16 439.165,1521.94 435.516,1521.94 C 432.22,1521.94 429.071,1521.29 426.067,1520 C 423.064,1518.71 420.477,1516.98 418.311,1514.81 C 416.144,1512.64 414.413,1510.06 413.121,1507.05 C 411.828,1504.05 411.181,1500.9 411.181,1497.61 C 411.181,1492.16 412.797,1487.29 416.029,1483.01 C 419.261,1478.72 423.425,1475.82 428.519,1474.3 C 425.884,1478.48 424.565,1483.01 424.565,1487.87 C 424.565,1492.49 425.705,1496.76 427.987,1500.69 C 430.268,1504.61 433.373,1507.72 437.301,1510 C 441.231,1512.28 445.501,1513.42 450.115,1513.42 C 451.535,1513.42 452.928,1513.31 454.297,1513.08 C 451.991,1515.87 449.196,1518.04 445.915,1519.6 Z "/>
			</g>
		</g>
	</g>
</svg>