<?xml version="1.0" encoding="UTF-8" standalone="no"?>
<svg version="1.1" xmlns="http://www.w3.org/2000/svg" xmlns:xlink="http://www.w3.org/1999/xlink" width="365.128" height="532.513">
	<defs>
		<linearGradient id="grad_dp_001" gradientUnits="userSpaceOnUse" x1="157.136" y1="1794.61" x2="281.18" y2="1794.61">
			<stop offset="0" stop-color="#daf5fd"/>
			<stop offset="1" stop-color="#00c9fc"/>
		</linearGradient>
		<linearGradient id="grad_dp_002" gradientUnits="userSpaceOnUse" x1="157.136" y1="1806.71" x2="269.835" y2="1806.71">
			<stop offset="0" stop-color="#abebfe" stop-opacity="0.501961"/>
			<stop offset="1" stop-color="#00c9fc" stop-opacity="0.501961"/>
		</linearGradient>
		<radialGradient id="grad_dp_003" gradientUnits="userSpaceOnUse" cx="236.196" cy="1791.85" r="81.1557">
			<stop offset="0" stop-color="white" stop-opacity="0.8"/>
			<stop offset="1" stop-color="white" stop-opacity="0"/>
		</radialGradient>
		<linearGradient id="grad_dp_004" gradientUnits="userSpaceOnUse" x1="260.181" y1="1767.53" x2="194.766" y2="1831.28">
			<stop offset="0" stop-color="#00c9fc"/>
			<stop offset="1" stop-color="#017bc0"/>
		</linearGradient>
		<linearGradient id="grad_dp_005" gradientUnits="userSpaceOnUse" x1="353.792" y1="2035.58" x2="453.931" y2="2035.58">
			<stop offset="0" stop-color="#daf5fd"/>
			<stop offset="1" stop-color="#abebfe"/>
		</linearGradient>
		<linearGradient id="grad_dp_006" gradientUnits="userSpaceOnUse" x1="352.134" y1="2050.41" x2="455.857" y2="2050.41">
			<stop offset="0" stop-color="#abebfe" stop-opacity="0.501961"/>
			<stop offset="1" stop-color="#00c9fc" stop-opacity="0.501961"/>
		</linearGradient>
		<radialGradient id="grad_dp_007" gradientUnits="userSpaceOnUse" cx="385.004" cy="2027.79" r="76.7423">
			<stop offset="0" stop-color="white" stop-opacity="0.8"/>
			<stop offset="1" stop-color="white" stop-opacity="0"/>
		</radialGradient>
		<linearGradient id="grad_dp_008" gradientUnits="userSpaceOnUse" x1="350.496" y1="2038.01" x2="457.496" y2="2038.01">
			<stop offset="0" stop-color="#00c9fc"/>
			<stop offset="1" stop-color="#017bc0"/>
		</linearGradient>
		<clipPath id="clip_dp_001" clipPathUnits="userSpaceOnUse" clip-rule="evenodd">
			<path d="M 306.409,1536 L 407.212,1536 L 407.212,1604.14 L 306.409,1604.14 Z " clip-rule="evenodd"/>
		</clipPath>
	</defs>
	<g id="dp_dp001" transform="matrix(1,0,0,1,-155.476,-1536)">
		<path id="dp_path002" fill="#00c9fc" stroke="none" stroke-width="0" d="M 279.773,1795.1 C 277.811,1790.38 274.325,1786.76 270.124,1784.57 C 269.532,1773.44 260.32,1764.6 249.043,1764.6 C 241.696,1764.6 235.228,1768.35 231.445,1774.04 C 228.137,1771.57 224.033,1770.11 219.587,1770.11 C 210.476,1770.11 202.8,1776.25 200.471,1784.61 C 197.276,1782.41 193.316,1781.28 189.149,1781.69 C 180.903,1782.5 174.619,1789.08 173.881,1797.03 C 172.385,1796.35 170.724,1795.96 168.973,1795.96 C 162.436,1795.96 157.136,1801.26 157.136,1807.8 C 157.136,1814.34 162.436,1819.64 168.973,1819.64 C 171.635,1819.64 174.089,1818.76 176.067,1817.28 C 179.527,1824.09 186.601,1828.76 194.767,1828.76 C 201.268,1828.76 207.079,1825.8 210.924,1821.16 C 214.623,1827.1 221.216,1831.07 228.736,1831.07 C 236.885,1831.07 243.949,1826.41 247.416,1819.62 C 253.192,1824.17 261.191,1825.54 268.46,1822.52 C 279.156,1818.07 284.22,1805.8 279.773,1795.1 Z "/>
		<path id="dp_path003" fill="url(#grad_dp_001)" stroke="none" stroke-width="0" d="M 279.773,1795.1 C 277.811,1790.38 274.325,1786.76 270.124,1784.57 C 269.532,1773.44 260.32,1764.6 249.043,1764.6 C 241.696,1764.6 235.228,1768.35 231.445,1774.04 C 228.137,1771.57 224.033,1770.11 219.587,1770.11 C 210.476,1770.11 202.8,1776.25 200.471,1784.61 C 197.276,1782.41 193.316,1781.28 189.149,1781.69 C 180.903,1782.5 174.619,1789.08 173.881,1797.03 C 172.385,1796.35 170.724,1795.96 168.973,1795.96 C 162.436,1795.96 157.136,1801.26 157.136,1807.8 C 157.136,1814.34 162.396,1816.58 168.933,1816.58 C 171.595,1816.58 174.927,1813.48 176.904,1812 C 180.363,1818.81 186.969,1821.67 195.133,1821.67 C 201.636,1821.67 207.447,1816.94 211.291,1812.3 C 214.991,1818.25 221.333,1824.63 228.855,1824.63 C 237.004,1824.63 243.244,1817.61 246.712,1810.82 C 252.488,1815.37 259.661,1820.34 266.932,1817.31 C 277.628,1812.87 284.22,1805.8 279.773,1795.1 Z "/>
		<path id="dp_path004" fill="#daf5fd" stroke="none" stroke-width="0" d="M 279.773,1795.1 C 277.811,1790.38 274.325,1786.76 270.124,1784.57 C 269.532,1773.44 261.503,1766.29 250.225,1766.29 C 242.879,1766.29 235.736,1772.81 231.953,1778.5 C 228.645,1776.03 224.54,1774.57 220.095,1774.57 C 210.984,1774.57 202.436,1781.75 202.14,1791.34 C 198.945,1789.13 194.352,1787.09 190.187,1787.5 C 181.939,1788.31 177.788,1795.34 177.051,1803.29 C 165.268,1795.84 160.964,1804.03 160.964,1807.43 C 160.964,1810.82 164.093,1816.23 170.629,1816.23 C 173.291,1816.23 174.925,1813.48 176.903,1812 C 180.363,1818.81 186.968,1821.67 195.133,1821.67 C 201.635,1821.67 207.445,1816.94 211.291,1812.3 C 214.989,1818.24 221.333,1824.63 228.853,1824.63 C 237.003,1824.63 243.244,1817.61 246.712,1810.82 C 252.487,1815.37 259.661,1820.34 266.931,1817.31 C 277.628,1812.87 284.22,1805.8 279.773,1795.1 Z "/>
		<path id="dp_path005" fill="url(#grad_dp_002)" stroke="none" stroke-width="0" d="M 201.179,1782.54 C 200.907,1783.21 200.668,1783.91 200.471,1784.61 C 199.056,1783.64 197.491,1782.87 195.827,1782.36 C 192.119,1782.33 188.264,1782.51 184.26,1782.92 C 178.515,1785.32 174.464,1790.74 173.883,1797.03 C 172.387,1796.35 170.725,1795.97 168.973,1795.97 C 162.436,1795.97 157.136,1801.26 157.136,1807.8 C 157.136,1814.34 162.436,1819.64 168.973,1819.64 C 171.635,1819.64 174.089,1818.76 176.067,1817.28 C 179.527,1824.09 186.601,1828.76 194.767,1828.76 C 201.269,1828.76 207.08,1825.8 210.925,1821.16 C 214.623,1827.1 221.217,1831.07 228.737,1831.07 C 236.887,1831.07 243.949,1826.41 247.416,1819.62 C 253.192,1824.17 261.191,1825.54 268.461,1822.52 C 268.929,1822.33 269.387,1822.11 269.835,1821.89 C 262.719,1811.26 241.208,1784.98 201.179,1782.54 Z "/>
		<path id="dp_path006" fill="url(#grad_dp_003)" stroke="none" stroke-width="0" d="M 279.773,1795.1 C 277.811,1790.38 274.325,1786.76 270.124,1784.57 C 269.532,1773.44 260.32,1764.6 249.043,1764.6 C 241.696,1764.6 235.228,1768.35 231.445,1774.04 C 228.137,1771.57 224.033,1770.11 219.587,1770.11 C 210.476,1770.11 202.8,1776.25 200.471,1784.61 C 197.276,1782.41 193.316,1781.28 189.149,1781.69 C 180.903,1782.5 174.619,1789.08 173.881,1797.03 C 172.385,1796.35 170.724,1795.96 168.973,1795.96 C 162.436,1795.96 157.136,1801.26 157.136,1807.8 C 157.136,1814.34 162.436,1819.64 168.973,1819.64 C 171.635,1819.64 174.089,1818.76 176.067,1817.28 C 179.527,1824.09 186.601,1828.76 194.767,1828.76 C 201.268,1828.76 207.079,1825.8 210.924,1821.16 C 214.623,1827.1 221.216,1831.07 228.736,1831.07 C 236.885,1831.07 243.949,1826.41 247.416,1819.62 C 253.192,1824.17 261.191,1825.54 268.46,1822.52 C 279.156,1818.07 284.22,1805.8 279.773,1795.1 Z "/>
		<path id="dp_path007" fill="url(#grad_dp_004)" stroke="none" stroke-width="0" d="M 228.737,1832.73 C 221.591,1832.73 215.011,1829.43 210.744,1823.82 C 206.516,1828.04 200.804,1830.42 194.767,1830.42 C 186.815,1830.42 179.581,1826.33 175.48,1819.63 C 173.499,1820.73 171.281,1821.3 168.973,1821.3 C 161.531,1821.3 155.476,1815.24 155.476,1807.8 C 155.476,1800.36 161.531,1794.3 168.973,1794.3 C 170.192,1794.3 171.387,1794.46 172.543,1794.78 C 174.191,1786.9 180.809,1780.84 188.987,1780.03 C 189.6,1779.97 190.221,1779.95 190.835,1779.95 C 193.897,1779.95 196.873,1780.69 199.556,1782.12 C 202.744,1773.97 210.695,1768.45 219.587,1768.45 C 223.692,1768.45 227.62,1769.58 231.047,1771.75 C 235.351,1766.2 241.96,1762.93 249.043,1762.93 C 260.837,1762.93 270.62,1771.91 271.712,1783.55 C 276.008,1786.02 279.395,1789.87 281.305,1794.46 C 286.097,1805.99 280.621,1819.26 269.097,1824.05 C 266.321,1825.21 263.4,1825.79 260.417,1825.79 L 260.417,1825.79 C 255.997,1825.79 251.637,1824.47 247.951,1822.05 C 243.836,1828.68 236.637,1832.73 228.737,1832.73 Z M 211.116,1818.32 L 212.333,1820.28 C 215.887,1825.99 222.019,1829.4 228.737,1829.4 C 236.028,1829.4 242.62,1825.37 245.937,1818.87 L 246.857,1817.07 L 248.444,1818.32 C 251.847,1821 256.099,1822.47 260.419,1822.47 C 262.961,1822.47 265.452,1821.97 267.824,1820.99 C 277.655,1816.9 282.329,1805.57 278.24,1795.74 C 276.507,1791.57 273.352,1788.13 269.356,1786.04 L 268.516,1785.6 L 268.467,1784.66 C 267.917,1774.34 259.385,1766.26 249.043,1766.26 C 242.511,1766.26 236.449,1769.51 232.829,1774.96 L 231.857,1776.42 L 230.452,1775.37 C 227.296,1773.01 223.539,1771.77 219.587,1771.77 C 211.452,1771.77 204.249,1777.23 202.069,1785.06 L 201.444,1787.31 L 199.527,1785.98 C 196.952,1784.21 193.947,1783.27 190.835,1783.27 C 190.329,1783.27 189.817,1783.29 189.313,1783.34 C 182.005,1784.06 176.211,1789.88 175.535,1797.18 L 175.319,1799.51 L 173.192,1798.54 C 171.86,1797.93 170.44,1797.63 168.972,1797.63 C 163.361,1797.63 158.796,1802.19 158.796,1807.8 C 158.796,1813.41 163.36,1817.98 168.972,1817.98 C 171.191,1817.98 173.299,1817.28 175.069,1815.95 L 176.651,1814.77 L 177.545,1816.53 C 180.857,1823.05 187.456,1827.1 194.767,1827.1 C 200.537,1827.1 205.96,1824.55 209.644,1820.1 Z "/>
		<path id="dp_path008" fill="#00c9fc" stroke="none" stroke-width="0" d="M 352.135,2050.19 C 352.135,2044.88 354.613,2040.15 358.477,2037.09 C 358.044,2035.97 357.804,2034.76 357.804,2033.49 C 357.804,2027.98 362.264,2023.52 367.767,2023.52 C 367.875,2023.52 367.98,2023.53 368.087,2023.53 C 369.656,2015.32 376.873,2009.12 385.539,2009.12 C 394.937,2009.12 402.632,2016.42 403.267,2025.65 C 405.059,2023.02 408.084,2021.28 411.515,2021.28 C 416.955,2021.28 421.373,2025.64 421.473,2031.06 C 424.399,2028.15 428.552,2026.53 432.977,2026.96 C 440.847,2027.74 446.599,2034.74 445.823,2042.61 C 445.668,2044.19 445.26,2045.67 444.649,2047.04 C 445.057,2046.99 445.472,2046.96 445.893,2046.96 C 451.396,2046.96 455.857,2051.43 455.857,2056.93 C 455.857,2062.43 451.396,2066.89 445.893,2066.89 C 445.861,2066.89 445.831,2066.89 445.8,2066.89 L 445.8,2066.89 L 368.836,2066.89 L 368.836,2066.89 C 359.612,2066.89 352.135,2059.41 352.135,2050.19 Z "/>
		<path id="dp_path009" fill="url(#grad_dp_005)" stroke="none" stroke-width="0" d="M 353.792,2049.41 C 353.792,2044.1 354.613,2040.15 358.477,2037.09 C 358.044,2035.97 357.804,2034.76 357.804,2033.49 C 357.804,2027.98 362.264,2023.52 367.767,2023.52 C 367.875,2023.52 367.98,2023.53 368.087,2023.53 C 369.656,2015.32 376.873,2009.12 385.539,2009.12 C 394.937,2009.12 402.632,2016.42 403.267,2025.65 C 405.059,2023.02 408.084,2021.28 411.515,2021.28 C 416.955,2021.28 421.373,2025.64 421.473,2031.06 C 424.399,2028.15 428.552,2026.53 432.977,2026.96 C 440.847,2027.74 446.599,2034.74 445.823,2042.61 C 445.668,2044.19 445.26,2045.67 444.649,2047.04 C 445.057,2046.99 445.472,2046.96 445.893,2046.96 C 451.396,2046.96 453.931,2049.26 453.931,2054.76 C 453.931,2060.26 451.396,2061.87 445.893,2061.87 C 445.861,2061.87 368.836,2062.05 368.836,2062.05 C 359.612,2062.05 353.792,2058.63 353.792,2049.41 Z "/>
		<path id="dp_path010" fill="url(#grad_dp_006)" stroke="none" stroke-width="0" d="M 455.857,2056.93 C 455.857,2051.43 451.396,2046.96 445.893,2046.96 C 445.472,2046.96 445.057,2046.99 444.649,2047.05 C 445.227,2045.75 445.619,2044.35 445.792,2042.87 C 401.273,2027.71 370.615,2034.9 354.208,2042.13 C 352.888,2044.52 352.135,2047.27 352.135,2050.19 C 352.135,2059.41 359.612,2066.89 368.836,2066.89 L 445.801,2066.89 L 445.801,2066.89 C 445.832,2066.89 445.863,2066.89 445.893,2066.89 C 451.397,2066.89 455.857,2062.43 455.857,2056.93 Z "/>
		<path id="dp_path011" fill="url(#grad_dp_007)" stroke="none" stroke-width="0" d="M 352.135,2050.19 C 352.135,2044.88 354.613,2040.15 358.477,2037.09 C 358.044,2035.97 357.804,2034.76 357.804,2033.49 C 357.804,2027.98 362.264,2023.52 367.767,2023.52 C 367.875,2023.52 367.98,2023.53 368.087,2023.53 C 369.656,2015.32 376.873,2009.12 385.539,2009.12 C 394.937,2009.12 402.632,2016.42 403.267,2025.65 C 405.059,2023.02 408.084,2021.28 411.515,2021.28 C 416.955,2021.28 421.373,2025.64 421.473,2031.06 C 424.399,2028.15 428.552,2026.53 432.977,2026.96 C 440.847,2027.74 446.599,2034.74 445.823,2042.61 C 445.668,2044.19 445.26,2045.67 444.649,2047.04 C 445.057,2046.99 445.472,2046.96 445.893,2046.96 C 451.396,2046.96 455.857,2051.43 455.857,2056.93 C 455.857,2062.43 451.396,2066.89 445.893,2066.89 C 445.861,2066.89 445.831,2066.89 445.8,2066.89 L 445.8,2066.89 L 368.836,2066.89 L 368.836,2066.89 C 359.612,2066.89 352.135,2059.41 352.135,2050.19 Z "/>
		<path id="dp_path012" fill="url(#grad_dp_008)" stroke="none" stroke-width="0" d="M 445.893,2068.53 C 445.887,2068.53 445.88,2068.53 445.872,2068.53 L 445.8,2068.53 L 368.836,2068.53 C 358.724,2068.53 350.496,2060.3 350.496,2050.19 C 350.496,2044.94 352.699,2040.03 356.576,2036.55 C 356.304,2035.55 356.165,2034.53 356.165,2033.49 C 356.165,2027.43 360.839,2022.43 366.771,2021.93 C 368.996,2013.48 376.685,2007.48 385.539,2007.48 C 394.523,2007.48 402.212,2013.68 404.353,2022.12 C 406.371,2020.53 408.883,2019.64 411.515,2019.64 C 416.739,2019.64 421.216,2023.18 422.641,2027.98 C 425.257,2026.21 428.337,2025.25 431.557,2025.25 C 432.081,2025.25 432.613,2025.28 433.137,2025.33 C 441.893,2026.19 448.316,2034.02 447.453,2042.77 C 447.367,2043.66 447.207,2044.53 446.977,2045.38 C 452.868,2045.93 457.496,2050.9 457.496,2056.93 C 457.496,2062.8 453.108,2067.67 447.439,2068.43 L 447.439,2068.53 L 445.968,2068.53 C 445.943,2068.53 445.919,2068.53 445.893,2068.53 Z M 444.163,2065.24 L 445.899,2065.25 L 445.893,2065.25 C 450.484,2065.25 454.219,2061.52 454.219,2056.93 C 454.219,2052.34 450.484,2048.6 445.893,2048.6 C 445.563,2048.6 445.212,2048.62 444.852,2048.67 L 441.971,2049.03 L 443.153,2046.38 C 443.709,2045.13 444.06,2043.81 444.193,2042.45 C 444.879,2035.5 439.775,2029.28 432.816,2028.59 C 432.399,2028.55 431.975,2028.53 431.556,2028.53 C 428.195,2028.53 425.024,2029.84 422.628,2032.22 L 419.905,2034.93 L 419.836,2031.09 C 419.753,2026.59 416.02,2022.92 411.515,2022.92 C 408.752,2022.92 406.176,2024.29 404.621,2026.58 L 401.957,2030.5 L 401.632,2025.77 C 401.055,2017.35 393.984,2010.76 385.537,2010.76 C 377.808,2010.76 371.145,2016.26 369.695,2023.84 L 369.432,2025.21 L 367.956,2025.17 C 367.893,2025.16 367.831,2025.16 367.767,2025.16 C 363.176,2025.16 359.441,2028.9 359.441,2033.49 C 359.441,2034.52 359.631,2035.53 360.004,2036.49 L 360.441,2037.62 L 359.493,2038.37 C 355.857,2041.25 353.772,2045.56 353.772,2050.19 C 353.772,2058.5 360.529,2065.25 368.836,2065.25 L 444.161,2065.25 L 444.161,2065.24 Z "/>
		<path id="dp_path013" fill="black" fill-rule="evenodd" stroke="none" stroke-width="0" d="M 511.867,1591.7 C 511.515,1591.85 510.437,1591.98 509.473,1591.98 C 506.635,1591.98 503.805,1592.38 501.023,1592.93 C 499.735,1593.18 498.484,1593.36 497.177,1593.47 C 494.727,1593.68 492.384,1594.61 490.067,1595.38 C 488.933,1595.76 487.795,1596.05 486.636,1596.34 C 485.536,1596.71 484.44,1597.07 483.34,1597.44 C 481.248,1597.94 479.251,1598.65 477.244,1599.42 C 474.149,1601.25 470.899,1602.77 467.661,1604.33 C 467.023,1604.7 466.38,1605.07 465.741,1605.43 L 464.901,1605.86 C 464.273,1606.18 463.9,1606.42 463.407,1606.82 C 462.921,1607.21 462.449,1607.46 461.867,1607.66 C 461.428,1608.1 460.989,1608.53 460.552,1608.97 C 459.581,1609.48 458.671,1610.12 457.792,1610.77 C 457.427,1611.04 457.092,1611.18 456.652,1611.23 L 456.131,1611.75 C 455.547,1612.33 454.867,1612.76 454.208,1613.26 C 452.757,1614.35 451.347,1615.5 449.967,1616.67 C 445.935,1620.12 442.279,1623.95 438.529,1627.7 L 437.432,1628.94 C 433.844,1632.97 430.692,1637.28 427.431,1641.56 L 427.333,1641.56 C 426.931,1641.56 426.424,1641.21 426.059,1641.05 C 425.308,1640.71 424.689,1640.5 423.88,1640.4 C 423.165,1640.31 422.483,1640.18 421.781,1640.01 C 421.079,1639.85 419.941,1639.85 418.624,1640.03 C 416.692,1640.28 414.397,1640.6 412.72,1641.69 C 411.867,1642.24 410.932,1642.64 410.003,1643.05 C 409.628,1643.24 409.253,1643.43 408.879,1643.63 C 408.437,1644.06 407.999,1644.5 407.56,1644.94 C 406.677,1645.4 405.892,1645.99 405.091,1646.59 C 403.956,1647.16 403.015,1648.09 402.071,1648.92 C 399.245,1651.39 396.547,1654.13 394.051,1656.94 C 391.847,1659.42 389.813,1662.02 387.749,1664.61 C 386.896,1665.69 386.047,1666.78 385.279,1667.91 C 385.024,1668.28 384.751,1668.64 384.469,1668.99 C 384.183,1669.36 383.873,1669.79 383.783,1669.95 C 383.308,1670.82 382.617,1671.6 382.027,1672.4 C 381.807,1672.8 381.573,1673.17 381.299,1673.54 C 380.771,1674.25 380.292,1674.99 379.803,1675.72 C 379.517,1676.15 379.233,1676.57 378.939,1676.99 C 378.683,1677.36 378.771,1677.59 379.415,1678.21 C 380.105,1678.87 380.267,1678.93 380.676,1678.6 C 381.991,1677.54 383.232,1676.39 384.499,1675.28 C 386.123,1673.86 387.769,1672.46 389.413,1671.05 C 390.152,1670.46 390.891,1669.86 391.621,1669.25 C 392.524,1668.5 393.433,1667.77 394.369,1667.06 C 395.013,1666.57 395.644,1666.06 396.276,1665.56 C 396.641,1665.29 397.008,1665.01 397.375,1664.74 C 397.892,1664.39 398.393,1664.03 398.885,1663.64 C 399.287,1663.32 399.699,1663.03 400.147,1662.79 L 400.683,1662.39 C 401.655,1661.67 402.68,1661.02 403.689,1660.35 C 404.305,1659.92 404.939,1659.58 405.609,1659.25 C 407.177,1658.21 408.859,1657.48 410.581,1656.75 C 411.407,1656.3 412.231,1655.88 413.151,1655.65 C 414.192,1655.39 415.824,1655.13 416.836,1655.65 C 417.588,1656.04 418.001,1657.1 417.524,1657.82 C 417.315,1658.14 416.84,1659.01 416.469,1659.77 C 416.045,1660.63 415.659,1661.1 415.425,1661.02 C 415.205,1660.94 414.943,1661.2 414.775,1661.66 C 414.432,1662.61 414.012,1663.52 413.601,1664.43 C 413.291,1665.59 412.881,1666.67 412.352,1667.74 C 412.133,1668.19 411.88,1668.87 411.788,1669.27 C 411.532,1670.37 410.928,1671.4 410.431,1672.41 C 409.999,1673.29 409.611,1674.19 409.221,1675.09 C 410.773,1676.68 412.324,1678.27 413.877,1679.87 L 414.273,1680.4 C 414.397,1680.66 414.671,1680.94 414.671,1680.94 L 415.495,1681.76 L 416.595,1682.86 L 417.143,1683.41 L 417.416,1683.41 L 417.416,1683.68 L 420.164,1686.43 L 417.416,1688.9 L 417.416,1689.17 L 417.143,1689.17 L 416.044,1690.27 C 409.181,1697.14 409.181,1697.14 408.905,1697.14 L 405.609,1700.43 L 402.865,1703.45 L 403.413,1704.27 L 406.709,1707.57 C 407.533,1707.29 407.533,1707.29 410.003,1704.83 L 410.003,1704.55 L 410.279,1704.55 C 420.436,1694.39 420.436,1694.39 420.712,1694.39 L 424.005,1691.1 L 424.556,1690.55 L 425.929,1692.19 L 427.849,1694.12 L 429.773,1696.31 L 430.076,1696.34 L 432.641,1698.97 C 434.739,1701.12 435.316,1701.57 435.799,1701.43 C 436.572,1701.2 437.261,1700.82 437.981,1700.46 C 438.713,1700.17 439.444,1699.88 440.192,1699.62 C 441.239,1699.26 442.204,1698.75 443.197,1698.26 C 445.396,1697.26 447.577,1696.24 449.756,1695.19 C 451.901,1694.16 453.511,1693.54 453.845,1693.63 C 455.677,1694.08 455.363,1696.85 454.913,1698.13 C 454.169,1700.26 453.308,1702.48 452.149,1704.41 C 451.793,1705.01 451.475,1705.61 451.16,1706.23 C 450.721,1706.66 450.283,1707.1 449.844,1707.54 C 449.484,1708.23 449.056,1708.86 448.595,1709.48 C 448.376,1709.77 448.135,1710.19 448.061,1710.41 C 447.796,1711.18 447.047,1711.85 446.548,1712.48 C 445.625,1713.83 444.547,1715.06 443.528,1716.33 C 439.703,1721.35 435.287,1725.91 431.087,1730.62 L 431.649,1731.3 L 432.216,1731.98 C 432.648,1732.47 433.332,1731.74 433.753,1731.46 C 434.132,1731.2 434.505,1730.95 434.88,1730.69 C 435.2,1730.57 435.52,1730.45 435.841,1730.33 C 436.28,1729.89 436.719,1729.45 437.157,1729.01 C 438.691,1728.21 440.175,1727.15 441.565,1726.12 C 441.929,1725.85 442.264,1725.71 442.707,1725.66 C 443.145,1725.22 443.583,1724.79 444.021,1724.35 C 444.576,1724.29 444.733,1724.18 445.148,1723.77 C 445.731,1723.19 446.411,1722.75 447.069,1722.26 C 447.712,1721.78 448.336,1721.28 448.963,1720.78 C 450.185,1719.85 451.357,1718.87 452.532,1717.89 C 455.868,1715.11 458.855,1711.98 461.924,1708.91 L 462.748,1707.95 C 463.396,1707.2 464.023,1706.43 464.641,1705.65 C 465.084,1704.99 465.544,1704.36 466.013,1703.73 C 466.38,1703.18 466.747,1702.63 467.113,1702.08 C 467.981,1700.83 468.477,1699.33 469.064,1697.93 C 469.345,1697.41 469.629,1696.88 469.913,1696.35 C 470.555,1693.77 471.167,1691.13 470.683,1688.46 C 470.539,1687.67 470.396,1686.91 470.133,1686.15 C 469.96,1685.65 469.767,1685.27 469.611,1685.13 C 468.96,1684.51 469.227,1684.12 469.859,1683.68 C 470.504,1683.25 471.129,1682.8 471.752,1682.34 C 472.201,1682.09 472.613,1681.81 473.016,1681.49 C 473.508,1681.1 474.008,1680.74 474.527,1680.39 C 475.351,1679.77 476.161,1679.14 476.969,1678.49 C 478.092,1677.65 479.193,1676.77 480.277,1675.87 C 484.668,1672.23 488.641,1668.19 492.677,1664.16 L 493.773,1662.93 C 495.864,1660.57 497.828,1658.14 499.785,1655.68 C 500.136,1655.16 500.495,1654.66 500.884,1654.17 C 501.203,1653.76 501.491,1653.35 501.736,1652.9 C 502,1652.55 502.268,1652.19 502.532,1651.83 C 503.263,1650.73 503.996,1649.64 504.729,1648.54 C 505.156,1647.92 505.491,1647.29 505.825,1646.62 C 508.135,1642.77 510.243,1638.85 512.251,1634.84 C 512.777,1633.78 513.224,1632.78 513.239,1632.61 C 513.352,1631.42 514.061,1630.17 514.475,1629.04 C 515.829,1625.38 517.012,1621.7 517.908,1617.9 C 518.579,1615.03 519.139,1612.16 519.553,1609.25 C 519.892,1606.88 519.993,1604.5 520.132,1602.11 L 520.392,1601.16 C 520.377,1601.04 520.652,1600.49 520.652,1600.21 L 520.652,1593.63 L 520.377,1592.55 C 520.173,1592 519.305,1592.08 518.804,1592.05 L 517.387,1591.98 L 517.233,1591.84 C 517.084,1591.7 517.084,1591.7 517.084,1591.7 Z M 476.723,1602.96 C 475.6,1602.96 474.493,1603.62 473.457,1604.03 C 470.896,1605.19 468.455,1606.51 466.013,1607.9 C 465.383,1608.23 464.785,1608.57 464.231,1609.01 C 463.745,1609.41 463.273,1609.65 462.691,1609.85 C 462.252,1610.29 461.813,1610.73 461.375,1611.17 L 461.087,1611.32 C 460.503,1611.63 459.969,1612.03 459.44,1612.42 C 459.075,1612.69 458.74,1612.83 458.297,1612.87 C 457.859,1613.31 457.421,1613.75 456.983,1614.19 C 456.781,1614.21 456.577,1614.23 456.376,1614.25 C 455.887,1614.74 455.399,1615.23 454.909,1615.71 C 454.759,1615.87 454.483,1616.14 454.483,1616.14 C 453.299,1616.7 452.377,1617.7 451.463,1618.61 C 450.639,1618.89 450.639,1618.89 449.541,1620.26 L 449.267,1620.26 L 449.267,1620.53 C 448.443,1620.81 448.443,1620.81 446.521,1623.01 L 442.401,1627.12 C 439.656,1629.87 439.656,1629.87 439.656,1630.14 L 439.383,1630.14 L 439.383,1630.42 C 437.735,1632.06 437.735,1632.06 437.735,1632.34 C 436.223,1633.85 434.96,1635.49 433.603,1637.13 C 433.193,1637.62 433.067,1637.81 433.067,1637.94 C 433.067,1638.11 433.067,1638.11 433.067,1638.11 C 432.624,1638.55 432.199,1638.98 431.817,1639.48 C 431.599,1639.76 431.419,1640.06 431.419,1640.15 C 431.419,1640.3 431.419,1640.3 431.419,1640.3 C 430.595,1641.13 430.595,1641.13 430.595,1641.4 C 429.971,1642.03 429.453,1642.71 428.949,1643.44 C 428.799,1643.66 428.673,1643.91 428.673,1643.99 C 428.673,1644.15 428.673,1644.15 428.673,1644.15 C 427.916,1644.9 427.363,1645.86 426.753,1646.74 C 426.603,1646.95 426.477,1647.2 426.477,1647.29 C 426.477,1647.44 426.477,1647.44 426.477,1647.44 C 425.987,1647.93 425.501,1648.53 425.255,1649.19 C 425.116,1649.56 424.956,1649.81 424.541,1650.32 C 424.124,1650.83 423.973,1651.08 423.855,1651.42 C 423.599,1652.17 423.063,1652.83 422.633,1653.48 C 420.824,1656.65 419.117,1659.86 417.416,1663.09 L 417.692,1663.23 C 417.692,1663.37 417.967,1663.37 417.967,1663.37 L 420.712,1666.11 C 420.799,1666.43 423.033,1668.85 425.675,1671.49 L 430.476,1676.27 C 431.98,1674.72 433.459,1673.13 434.991,1671.6 L 438.284,1668.31 C 439.108,1668.03 439.108,1668.03 445.697,1661.17 L 446.572,1660.56 L 448.041,1662.08 C 448.876,1662.95 449.707,1663.82 450.528,1664.7 C 450.473,1664.72 450.42,1664.74 450.365,1664.77 L 446.108,1669.15 C 445.148,1670.23 442.952,1672.43 441.853,1673.52 L 438.559,1676.82 L 436.087,1679.29 C 435.716,1679.4 434.251,1680.2 434.945,1680.71 C 434.991,1680.66 435.263,1680.94 435.263,1680.94 L 435.812,1681.49 C 436.087,1682.31 436.087,1682.31 437.735,1683.68 C 438.008,1684.51 438.008,1684.51 442.952,1689.17 L 445.697,1691.92 C 446.352,1692.57 447.051,1693.17 447.752,1693.77 C 449.537,1692.88 451.323,1691.99 453.111,1691.1 C 454.301,1690.46 455.489,1689.81 456.68,1689.17 L 456.68,1689.04 C 456.68,1688.9 456.68,1688.9 456.68,1688.9 L 458.6,1688.07 L 458.6,1687.8 L 460.279,1687.22 C 460.816,1686.87 461.356,1686.51 461.896,1686.15 C 462.528,1685.83 463.127,1685.49 463.68,1685.04 C 464.165,1684.65 464.637,1684.4 465.22,1684.2 C 465.659,1683.77 466.096,1683.33 466.535,1682.89 C 467.787,1682.23 468.984,1681.38 470.119,1680.54 C 470.483,1680.27 470.817,1680.13 471.26,1680.09 C 471.703,1679.64 472.145,1679.2 472.591,1678.76 C 472.604,1678.74 472.604,1678.74 472.604,1678.74 C 473.303,1678.41 473.965,1677.93 474.512,1677.38 C 474.527,1677.37 474.8,1677.09 474.8,1677.09 C 475.567,1676.73 476.248,1676.19 476.845,1675.6 C 476.996,1675.45 477.272,1675.17 477.272,1675.17 C 478.551,1674.56 479.576,1673.42 480.568,1672.43 C 481.389,1672.15 481.389,1672.15 482.764,1670.5 L 483.037,1670.5 L 483.037,1670.23 C 483.861,1669.95 483.861,1669.95 487.705,1665.83 L 489.901,1663.64 C 491.549,1661.99 491.549,1661.99 491.549,1661.72 L 492.099,1661.17 C 493.747,1659.52 493.747,1659.52 493.747,1659.25 C 495.517,1657.47 497,1655.47 498.551,1653.51 C 498.793,1653.2 498.963,1652.92 498.963,1652.82 C 498.963,1652.66 498.963,1652.66 498.963,1652.66 C 499.588,1652.03 500.105,1651.34 500.609,1650.61 C 500.76,1650.4 500.884,1650.15 500.884,1650.07 C 500.884,1649.91 500.884,1649.91 500.884,1649.91 C 501.104,1649.69 501.295,1649.47 501.585,1649.09 C 501.804,1648.81 501.981,1648.5 501.981,1648.42 C 501.981,1648.26 501.981,1648.26 501.981,1648.26 C 503.011,1647.24 504.089,1645.66 504.576,1644.3 C 504.729,1644.15 504.729,1643.87 504.729,1643.87 L 505.001,1643.87 C 505.001,1643.73 505.001,1643.6 505.001,1643.46 C 505.001,1643.32 505.001,1643.32 505.001,1643.32 C 505.749,1642.91 506.055,1641.86 506.375,1641.13 C 507.292,1639.39 508.207,1637.65 509.121,1635.91 L 508.847,1635.77 C 508.847,1635.63 508.571,1635.63 508.571,1635.63 L 506.375,1633.44 C 506.101,1632.61 506.101,1632.61 498.688,1625.47 L 496.492,1623.28 C 496.216,1622.45 496.216,1622.45 488.803,1615.32 L 486.333,1612.84 C 486.057,1612.02 486.057,1612.02 478.644,1604.88 Z M 516.535,1594.18 L 515.133,1594.18 C 513.928,1593.87 512.677,1593.98 511.445,1594.06 C 507.988,1594.27 504.547,1594.57 501.131,1595.13 C 498.551,1595.57 496,1596.11 493.441,1596.65 C 492.455,1597 491.467,1597.36 490.48,1597.71 C 488.548,1598.2 486.643,1598.74 484.744,1599.34 C 483.999,1599.58 483.249,1599.76 482.488,1599.95 L 482.488,1600.08 C 482.488,1600.21 482.488,1600.21 482.488,1600.21 C 480.965,1600.69 479.667,1601.19 479.601,1601.32 C 479.483,1601.56 479.625,1601.72 479.771,1601.89 L 487.568,1609.82 C 495.176,1617.57 502.816,1625.28 510.459,1632.99 C 510.78,1632.06 511.103,1631.15 511.503,1630.25 C 512.309,1628.45 512.699,1626.41 513.239,1624.51 C 514.245,1620.99 515.253,1617.47 516.26,1613.94 C 516.868,1612.09 516.771,1610.21 516.945,1608.29 C 517.171,1605.83 517.352,1603.36 517.372,1600.89 C 517.388,1598.91 517.656,1596.99 517.908,1595.03 C 518.12,1594.51 517.985,1594.33 517.359,1594.26 C 517.084,1594.18 516.808,1594.18 516.535,1594.18 Z M 467.456,1686 L 467.251,1685.61 C 466.776,1685.61 466.653,1685.79 466.304,1686.14 C 465.772,1686.67 465.764,1686.68 465.357,1686.95 C 464.961,1687.21 464.521,1687.25 464.063,1687.28 L 463.407,1687.81 C 462.893,1688.23 462.651,1688.38 462.307,1688.5 C 462.065,1688.59 461.38,1688.96 460.784,1689.33 C 459.507,1690.12 458.199,1690.85 456.897,1691.6 C 456.048,1692.1 456.033,1692.13 456.487,1692.68 C 457.951,1694.43 457.689,1697.2 456.955,1699.23 C 456.051,1701.71 454.852,1704.13 453.644,1706.49 C 453.259,1707.24 452.639,1707.77 452.041,1708.36 C 451.681,1709.05 451.253,1709.68 450.791,1710.3 C 450.52,1710.67 450.379,1711 450.336,1711.44 C 449.897,1711.88 449.459,1712.32 449.02,1712.76 L 448.885,1713.15 C 448.58,1714.04 447.68,1714.8 447.099,1715.5 C 444.623,1718.78 441.951,1721.92 439.203,1724.97 C 439.455,1724.85 439.707,1724.72 439.959,1724.59 C 440.389,1724.36 440.781,1724.07 441.167,1723.77 C 441.528,1723.48 441.961,1723.17 442.128,1723.08 C 442.713,1722.76 443.225,1722.29 443.747,1721.88 C 446.141,1720.25 448.4,1718.36 450.624,1716.51 C 454.159,1713.57 457.307,1710.24 460.552,1706.99 C 461.009,1706.44 461.467,1705.89 461.924,1705.34 C 462.281,1704.9 462.637,1704.45 462.993,1704 C 463.311,1703.53 463.631,1703.07 463.969,1702.61 C 466.459,1699.26 468.057,1695.37 468.372,1691.17 C 468.505,1689.39 468.283,1687.6 467.456,1686 Z M 424.624,1642.96 C 423.627,1642.48 422.775,1642.33 420.791,1642.28 C 419.388,1642.25 418.035,1642.3 417.783,1642.39 C 415.977,1643.02 414.201,1643.67 412.447,1644.43 C 411.201,1644.98 410.157,1645.64 409.208,1646.59 C 408.325,1647.05 407.54,1647.64 406.736,1648.24 C 406.027,1648.59 405.429,1649.11 404.816,1649.61 C 401.861,1652.07 399.241,1654.91 396.521,1657.63 C 395.881,1658.36 395.24,1659.09 394.6,1659.82 L 393.791,1660.77 C 391.783,1663.12 389.892,1665.56 388.039,1668.03 C 387.447,1668.82 386.845,1669.59 386.231,1670.37 C 386.899,1670.37 387.519,1669.57 388.011,1669.16 C 388.955,1668.44 389.871,1667.69 390.785,1666.93 C 391.436,1666.44 392.077,1665.95 392.707,1665.42 C 393.247,1664.98 393.805,1664.56 394.381,1664.16 C 394.831,1663.8 395.277,1663.45 395.727,1663.09 C 396.244,1662.74 396.745,1662.38 397.237,1661.99 C 397.64,1661.67 398.052,1661.39 398.501,1661.14 L 399.035,1660.74 C 400.139,1659.92 401.308,1659.19 402.453,1658.42 C 402.831,1658.17 403.205,1657.91 403.579,1657.65 C 404.368,1657.26 405.12,1656.84 405.871,1656.38 C 406.925,1655.73 408.06,1655.27 409.208,1654.83 C 410.829,1653.94 412.583,1653.3 414.425,1653.07 C 415.969,1652.88 417.548,1653.23 418.768,1654.17 C 419.477,1654.71 420.119,1653.73 420.164,1653.07 C 420.212,1652.3 420.839,1651.65 421.26,1651.01 C 421.536,1650.55 421.809,1650.09 422.084,1649.64 C 422.408,1649.01 422.748,1648.41 423.196,1647.85 C 423.613,1647.34 423.767,1647.1 423.883,1646.75 C 424.135,1646.03 424.811,1645.54 425.351,1645 C 425.452,1644.72 425.553,1644.45 425.653,1644.17 C 425.931,1643.51 425.181,1643.22 424.624,1642.96 Z M 433.117,1682.6 C 432.923,1682.38 432.797,1682.31 432.519,1682.31 L 429.301,1685.6 L 426.085,1688.9 C 427.855,1690.72 429.623,1692.54 431.392,1694.36 L 433.575,1696.61 C 435.345,1698.43 435.869,1698.82 436.348,1698.68 C 437.303,1698.41 438.195,1697.88 439.079,1697.44 C 439.995,1697.07 440.911,1696.71 441.825,1696.34 C 442.649,1695.98 443.471,1695.61 444.295,1695.24 L 444.765,1695.07 L 445.233,1694.9 C 441.279,1690.89 437.324,1686.89 433.369,1682.89 Z M 418.791,1668.31 C 418.689,1667.95 418.071,1667.15 417.415,1666.52 L 416.22,1665.38 L 416.132,1665.74 C 416.044,1665.83 416.044,1666.11 416.044,1666.11 L 415.22,1667.76 C 414.123,1669.95 414.123,1669.95 414.123,1670.23 C 413.023,1672.43 413.023,1672.43 413.023,1672.7 L 411.927,1674.62 L 412.475,1674.9 L 413.299,1675.72 C 413.413,1676.12 413.756,1676.65 414.061,1676.9 C 414.459,1677.24 414.663,1677.37 414.781,1677.37 C 414.947,1677.37 414.947,1677.37 414.947,1677.37 L 422.084,1684.51 L 422.084,1684.23 C 424.359,1682.19 426.568,1680.09 428.771,1677.97 L 428.447,1677.8 C 428.399,1677.64 428.125,1677.64 428.125,1677.64 Z M 447.063,1664.33 C 446.708,1664.02 446.551,1663.91 446.42,1663.91 L 446.245,1663.91 C 439.425,1670.73 432.545,1677.49 425.613,1684.2 C 423.491,1686.25 423.423,1686.35 423.927,1686.77 C 424.425,1687.19 424.648,1687.02 428.197,1683.54 C 434.315,1677.54 440.432,1671.53 446.548,1665.53 L 447.043,1665.14 C 447.505,1664.77 447.505,1664.72 447.063,1664.33 Z M 422.339,1688.48 C 422.08,1688.25 421.879,1688.07 421.536,1688.07 C 418.599,1691.01 415.659,1693.95 412.72,1696.89 L 409.361,1700.18 C 406.155,1703.32 406.023,1703.49 406.508,1703.92 C 406.991,1704.34 407.256,1704.13 411.683,1699.78 C 414.309,1697.19 416.936,1694.61 419.571,1692.03 C 422.505,1689.16 422.753,1688.85 422.339,1688.48 Z "/>
		<path id="dp_path014" fill="#fe0000" fill-rule="evenodd" stroke="none" stroke-width="0" d="M 516.535,1594.18 C 516.999,1594.48 517.351,1594.85 517.312,1594.98 L 517.245,1595.23 C 514.839,1596.34 512.115,1596.7 509.52,1597.12 C 506.729,1597.56 503.943,1597.8 501.129,1598.05 C 497.044,1598.64 492.957,1599.18 488.863,1599.68 C 487.48,1599.85 486.096,1600.02 484.713,1600.19 L 483.6,1600.2 C 483.312,1600.21 482.764,1600.21 482.488,1600.21 C 480.965,1600.69 479.668,1601.19 479.603,1601.32 C 479.483,1601.56 479.625,1601.72 479.771,1601.89 L 487.568,1609.82 C 495.176,1617.57 502.816,1625.27 510.459,1632.99 C 510.78,1632.06 511.101,1631.15 511.503,1630.25 C 512.309,1628.45 512.699,1626.41 513.24,1624.51 C 514.245,1620.99 515.253,1617.47 516.26,1613.94 C 516.868,1612.09 516.769,1610.21 516.945,1608.29 C 517.171,1605.83 517.352,1603.36 517.372,1600.89 C 517.389,1598.91 517.656,1596.99 517.907,1595.03 C 518.119,1594.51 517.985,1594.33 517.359,1594.26 C 517.083,1594.18 516.809,1594.18 516.535,1594.18 Z "/>
		<path id="dp_path015" fill="#fe0000" fill-rule="evenodd" stroke="none" stroke-width="0" d="M 467.456,1686 C 467.416,1685.92 467.361,1685.6 467.167,1685.61 C 466.023,1685.74 466.124,1686.49 465.283,1686.99 C 464.7,1687.35 464.235,1687.21 464.064,1687.28 C 463.532,1687.51 463.404,1687.9 462.731,1688.31 C 461.684,1688.95 456.968,1691.11 456.231,1692.07 C 455.976,1692.55 456.921,1693.31 457.005,1693.47 C 458.244,1695.94 457.489,1697.67 457.021,1699.03 C 456.08,1701.78 455.269,1703.9 453.489,1706.76 C 452.845,1707.79 452.3,1708.07 452.04,1708.37 C 451.412,1709.08 451.115,1709.54 450.539,1710.71 C 450.44,1710.91 450.437,1711.31 450.336,1711.44 C 449.969,1711.93 449.344,1712.25 449.02,1712.76 C 448.952,1712.87 448.912,1713.26 448.559,1713.79 C 447.98,1714.67 447.428,1715.07 446.867,1715.81 C 444.644,1718.73 442.281,1721.52 439.845,1724.25 C 439.632,1724.49 439.417,1724.73 439.203,1724.97 C 440.553,1724.3 441.145,1723.91 442.759,1722.67 C 444.801,1721.11 448.268,1718.49 450.789,1716.37 C 457.011,1711.15 467.051,1702.02 468.273,1692.15 C 468.501,1690.31 468.439,1687.94 467.456,1686 Z "/>
		<path id="dp_path016" fill="#fe0000" fill-rule="evenodd" stroke="none" stroke-width="0" d="M 424.624,1642.96 C 419.807,1640.82 413.247,1643.5 409.208,1646.59 C 407.74,1647.71 405.696,1648.86 404.539,1649.84 C 397.135,1656.1 391.757,1663.39 386.231,1670.37 C 387.272,1670.29 393.207,1665.02 393.321,1664.93 C 400.127,1659.69 405.916,1655.92 411.408,1653.82 C 412.985,1653.21 415.173,1652.56 417.399,1653.41 C 417.743,1653.54 418.64,1654.45 419.339,1654.31 C 420.253,1653.97 420.177,1652.53 420.741,1651.74 C 421.687,1650.4 422.405,1649.01 423.565,1647.37 C 423.717,1647.16 424.019,1646.4 424.225,1646.13 C 424.661,1645.57 426.947,1644.04 424.624,1642.96 Z "/>
		<path id="dp_path017" fill="#fe0000" fill-rule="evenodd" stroke="none" stroke-width="0" d="M 447.063,1664.33 C 446.708,1664.02 446.551,1663.91 446.42,1663.91 L 446.245,1663.91 C 439.425,1670.73 432.545,1677.49 425.613,1684.2 C 423.491,1686.25 423.423,1686.35 423.927,1686.77 C 424.425,1687.19 424.648,1687.02 428.197,1683.54 C 434.315,1677.54 440.432,1671.53 446.548,1665.53 L 447.043,1665.14 C 447.505,1664.77 447.505,1664.72 447.063,1664.33 Z "/>
		<path id="dp_path018" fill="#fe0000" fill-rule="evenodd" stroke="none" stroke-width="0" d="M 422.339,1688.48 C 422.08,1688.25 421.879,1688.07 421.536,1688.07 C 418.599,1691.01 415.659,1693.95 412.72,1696.89 L 409.361,1700.18 C 406.155,1703.32 406.023,1703.49 406.508,1703.92 C 406.991,1704.34 407.256,1704.13 411.683,1699.78 C 414.309,1697.19 416.936,1694.61 419.571,1692.03 C 422.505,1689.16 422.753,1688.85 422.339,1688.48 Z "/>
		<path id="dp_path019" fill="#e63900" fill-rule="evenodd" stroke="none" stroke-width="0" d="M 414.671,1680.94 C 413.749,1681.1 412.625,1681.48 412.172,1681.78 C 410.815,1682.66 409.272,1683.28 407.807,1683.96 C 407.108,1684.32 406.584,1684.63 406.023,1685.19 C 405.677,1685.54 405.357,1685.86 404.953,1686.12 C 404.631,1686.34 404.309,1686.42 403.935,1686.46 C 403.496,1686.9 403.057,1687.33 402.619,1687.77 C 401.6,1688.28 400.744,1689.11 399.875,1689.83 C 398.047,1691.35 396.309,1692.99 394.628,1694.66 C 391.717,1697.58 388.955,1700.7 386.665,1704.14 C 386.329,1704.65 385.96,1705.13 385.596,1705.62 C 385.269,1706.22 384.877,1706.75 384.469,1707.29 C 384.039,1707.94 383.588,1708.57 383.127,1709.19 C 382.745,1709.88 382.243,1710.49 381.752,1711.11 C 381.464,1711.54 381.176,1711.96 380.885,1712.39 C 380.476,1712.99 380.011,1713.56 379.555,1714.13 C 378.632,1715.35 377.653,1716.52 376.672,1717.7 C 374.059,1720.84 371.129,1723.65 368.243,1726.54 C 367.6,1727.09 366.961,1727.64 366.319,1728.19 L 365.497,1728.88 C 363.313,1730.7 361.021,1732.35 358.66,1733.93 C 358.044,1734.36 357.411,1734.69 356.739,1735.03 C 354.76,1736.21 352.812,1737.37 350.697,1738.32 C 349.027,1739.07 347.393,1739.89 345.784,1740.76 C 345.511,1740.87 345.236,1740.97 344.96,1741.07 C 346.517,1740.79 348.073,1740.52 349.628,1740.24 C 351.376,1739.81 353.117,1739.36 354.845,1738.86 C 355.903,1738.55 357.249,1738 357.836,1737.63 C 358.501,1737.23 359.323,1736.82 360.005,1736.57 C 363.625,1735.21 367.023,1733.31 370.328,1731.32 C 370.921,1730.97 371.528,1730.65 372.144,1730.33 C 372.583,1729.89 373.02,1729.45 373.459,1729.01 C 374.092,1728.68 374.675,1728.29 375.272,1727.89 C 375.833,1727.51 376.437,1727.19 377.06,1726.94 C 377.229,1726.87 377.315,1726.96 377.251,1727.15 C 377.024,1727.8 376.363,1728.34 375.944,1728.86 C 375.409,1729.53 374.875,1730.21 374.34,1730.88 C 373.943,1731.46 373.523,1732.01 373.076,1732.56 C 372.705,1733 372.341,1733.45 371.991,1733.91 C 371.637,1734.38 371.269,1734.83 370.892,1735.29 C 370.477,1735.79 370.065,1736.29 369.657,1736.8 C 363.853,1744.01 357.491,1750.9 350.671,1757.16 C 349.565,1758.17 348.491,1759.2 347.432,1760.26 C 348.504,1759.83 349.461,1759.27 350.425,1758.64 C 350.8,1758.45 351.175,1758.25 351.552,1758.06 C 351.989,1757.62 352.428,1757.19 352.867,1756.75 C 353.265,1756.54 353.617,1756.31 353.979,1756.05 C 354.343,1755.77 354.677,1755.63 355.12,1755.59 C 355.559,1755.15 355.997,1754.71 356.436,1754.27 L 356.847,1754 C 357.073,1753.85 357.396,1753.71 357.563,1753.7 C 358.193,1753.64 358.743,1752.79 359.181,1752.35 C 359.736,1752.3 359.895,1752.19 360.308,1751.77 C 361.223,1750.86 362.396,1750.04 363.465,1749.3 C 364.552,1748.56 365.561,1747.68 366.595,1746.86 C 368.931,1745.09 371.205,1743.24 373.459,1741.37 C 374.495,1740.58 375.488,1739.74 376.48,1738.9 C 378.708,1737.11 380.893,1735.27 383.069,1733.41 C 384.28,1732.43 385.463,1731.41 386.637,1730.39 C 388.543,1728.8 390.416,1727.18 392.261,1725.51 L 392.103,1725.97 C 391.901,1726.55 391.436,1727 391.059,1727.48 C 390.772,1727.84 390.463,1728.27 390.372,1728.44 C 390.281,1728.6 389.972,1729.03 389.685,1729.4 C 389.4,1729.76 389.091,1730.19 389,1730.36 C 388.908,1730.53 388.599,1730.96 388.313,1731.32 C 387.996,1731.72 387.708,1732.13 387.461,1732.58 C 387.064,1733.12 386.665,1733.65 386.269,1734.19 C 385.992,1734.56 385.761,1734.93 385.539,1735.33 C 385.273,1735.69 385.009,1736.04 384.744,1736.4 C 384.437,1736.86 384.128,1737.31 383.797,1737.76 C 383.595,1738.03 383.397,1738.3 383.235,1738.6 C 382.965,1739.09 382.607,1739.52 382.272,1739.97 C 381.541,1741.07 380.809,1742.17 380.076,1743.26 C 379.803,1743.66 379.572,1744.01 379.403,1744.46 C 379.219,1744.95 378.943,1745.22 378.565,1745.6 C 378.223,1745.94 377.903,1746.26 377.633,1746.67 C 377.371,1747.06 377.331,1747.5 377.301,1747.96 L 376.768,1748.62 C 376.351,1749.13 376.2,1749.37 376.081,1749.72 C 375.825,1750.46 375.289,1751.13 374.859,1751.77 C 374.283,1752.79 373.703,1753.79 373.088,1754.78 C 372.339,1755.99 371.723,1757.28 371.093,1758.56 C 371.78,1757.88 372.424,1757.15 373.076,1756.44 C 378.68,1750.32 384.521,1744.47 390.785,1739.01 C 393.109,1736.98 395.515,1735.03 397.923,1733.1 C 398.573,1732.61 399.215,1732.11 399.844,1731.59 C 400.283,1731.23 400.837,1730.8 401.081,1730.63 C 401.323,1730.47 401.88,1730.03 402.316,1729.67 C 402.945,1729.15 403.587,1728.65 404.237,1728.16 C 405.523,1727.13 406.789,1726.09 408.055,1725.03 C 411.093,1722.5 413.824,1719.67 416.621,1716.88 L 417.445,1715.92 C 420.571,1712.27 423.149,1708.32 425.873,1704.38 C 426.696,1702.74 427.676,1701.2 428.647,1699.64 L 428.92,1699.09 C 429.324,1698.28 429.773,1697.2 429.773,1696.31 L 427.849,1694.12 C 427.613,1694.8 427.337,1695.44 427.013,1696.09 C 426.327,1697.47 425.725,1698.88 425.105,1700.29 C 424.333,1702.05 423.519,1703.79 423.292,1704.17 C 422.824,1704.95 422.207,1705.53 421.564,1706.17 C 420.555,1708.09 419.083,1709.75 417.553,1711.28 C 414.605,1714.23 411.092,1716.5 407.836,1719.07 C 401.588,1723.31 396.392,1728.87 391.088,1734.17 C 390.675,1734.61 390.264,1735.05 389.851,1735.49 C 390.097,1735 390.355,1734.53 390.648,1734.07 C 390.952,1733.58 391.175,1733.07 391.361,1732.53 C 391.8,1732.09 392.239,1731.65 392.679,1731.21 C 393.689,1729.29 395.068,1727.5 396.276,1725.69 C 396.705,1725.04 397.156,1724.42 397.62,1723.8 C 397.684,1722.83 398.332,1722.26 398.993,1721.6 C 399.501,1720.63 400.139,1719.72 400.791,1718.84 C 401.037,1718.51 401.2,1718.19 401.217,1718 C 401.279,1717.37 402.124,1716.82 402.561,1716.38 C 402.772,1715.99 402.993,1715.63 403.263,1715.27 C 403.535,1714.91 403.676,1714.57 403.719,1714.13 C 404.157,1713.69 404.595,1713.25 405.033,1712.81 L 405.083,1712.49 L 405.129,1712.16 C 403.731,1713.23 402.399,1714.37 401.081,1715.53 C 400.121,1716.38 399.149,1717.21 398.169,1718.03 C 397.455,1718.65 396.744,1719.27 396.029,1719.9 C 394.824,1720.91 393.625,1721.92 392.431,1722.95 C 391.555,1723.68 390.679,1724.41 389.809,1725.16 C 387.864,1726.82 385.887,1728.45 383.92,1730.08 C 383.135,1730.72 382.355,1731.35 381.587,1732.01 C 381.073,1732.44 380.393,1733 380.076,1733.24 C 379.759,1733.48 379.079,1734.04 378.565,1734.48 C 377.885,1735.06 377.189,1735.61 376.48,1736.15 C 375.94,1736.6 375.399,1737.05 374.859,1737.5 C 373.487,1738.6 372.115,1739.69 370.741,1740.79 C 370.091,1741.28 369.448,1741.78 368.82,1742.3 C 368.383,1742.67 367.827,1743.1 367.584,1743.26 C 366.872,1743.75 366.22,1744.33 365.552,1744.88 C 365.252,1745.12 364.951,1745.36 364.649,1745.6 C 364.493,1745.55 364.336,1745.51 364.18,1745.46 C 369.405,1740.71 374.289,1735.6 379.281,1730.6 L 380.655,1729.09 C 383.56,1725.9 386.169,1722.55 388.739,1719.09 C 390.227,1717.09 391.311,1714.76 392.431,1712.54 C 392.764,1712.17 392.089,1712.75 391.965,1712.85 C 391.491,1713.21 391.005,1713.55 390.509,1713.88 C 389.047,1714.98 387.58,1716.08 386.117,1717.18 C 385.597,1717.53 385.099,1717.89 384.607,1718.28 C 384.244,1718.57 383.812,1718.87 383.645,1718.96 C 382.776,1719.44 381.997,1720.13 381.203,1720.72 C 380.8,1720.94 380.435,1721.17 380.061,1721.45 C 379.385,1721.95 378.683,1722.41 377.989,1722.89 C 377.108,1723.22 376.439,1723.73 375.713,1724.32 C 374.645,1724.75 373.633,1725.27 372.635,1725.84 C 371.728,1726.36 370.877,1726.73 370.741,1726.65 L 370.496,1726.51 L 371.152,1725.98 C 371.515,1725.69 371.947,1725.38 372.115,1725.29 C 373.001,1724.85 373.799,1724.02 374.556,1723.39 C 375.944,1722.23 377.319,1721.04 378.596,1719.76 C 383.039,1715.31 386.928,1710.47 390.921,1705.65 C 391.369,1705.11 391.789,1704.55 392.185,1703.97 L 392.721,1703.3 C 393.753,1702 394.731,1700.66 395.727,1699.33 C 396.345,1698.51 396.979,1697.7 397.62,1696.89 C 400.319,1692.97 403.945,1689.74 407.288,1686.4 L 407.973,1685.85 C 409.408,1684.7 410.819,1683.68 412.481,1682.86 C 413.419,1682.4 414.48,1681.97 414.84,1681.89 C 414.947,1681.76 415.22,1681.76 415.495,1681.76 Z "/>
		<path id="dp_path020" fill="#e78a00" fill-rule="evenodd" stroke="none" stroke-width="0" d="M 415.495,1681.76 C 415.22,1681.76 414.947,1681.76 414.84,1681.89 C 414.48,1681.97 413.419,1682.4 412.481,1682.86 C 410.819,1683.68 409.408,1684.7 407.973,1685.85 L 407.288,1686.4 C 403.945,1689.74 400.319,1692.97 397.62,1696.89 C 396.979,1697.7 396.345,1698.51 395.727,1699.33 C 394.731,1700.66 393.753,1702 392.721,1703.3 L 392.185,1703.97 C 391.789,1704.55 391.369,1705.11 390.921,1705.65 C 386.928,1710.47 383.039,1715.31 378.596,1719.76 C 377.319,1721.04 375.944,1722.23 374.556,1723.39 C 373.799,1724.02 373.001,1724.85 372.115,1725.29 C 371.947,1725.38 371.515,1725.69 371.152,1725.98 L 370.496,1726.51 L 370.741,1726.65 C 370.877,1726.73 371.728,1726.36 372.635,1725.84 C 373.633,1725.27 374.645,1724.75 375.713,1724.32 C 376.439,1723.73 377.108,1723.22 377.989,1722.89 C 378.683,1722.41 379.385,1721.95 380.061,1721.45 C 380.435,1721.17 380.8,1720.94 381.203,1720.72 C 381.997,1720.13 382.776,1719.44 383.645,1718.96 C 383.812,1718.87 384.244,1718.57 384.607,1718.28 C 385.099,1717.89 385.597,1717.53 386.117,1717.18 C 387.58,1716.08 389.047,1714.98 390.509,1713.88 C 391.005,1713.55 391.491,1713.21 391.965,1712.85 C 392.089,1712.75 392.764,1712.17 392.431,1712.54 C 391.311,1714.76 390.227,1717.09 388.739,1719.09 C 386.169,1722.55 383.56,1725.9 380.655,1729.09 L 379.281,1730.6 C 374.289,1735.6 369.405,1740.71 364.18,1745.46 C 364.336,1745.51 364.493,1745.55 364.649,1745.6 C 364.951,1745.36 365.252,1745.12 365.552,1744.88 C 366.22,1744.33 366.872,1743.75 367.584,1743.26 C 367.827,1743.1 368.383,1742.67 368.82,1742.3 C 369.448,1741.78 370.091,1741.28 370.741,1740.79 C 372.115,1739.69 373.487,1738.6 374.859,1737.5 C 375.399,1737.05 375.94,1736.6 376.48,1736.15 C 377.189,1735.61 377.885,1735.06 378.565,1734.48 C 379.079,1734.04 379.759,1733.48 380.076,1733.24 C 380.393,1733 381.073,1732.44 381.587,1732.01 C 382.355,1731.35 383.135,1730.72 383.92,1730.08 C 385.887,1728.45 387.864,1726.82 389.809,1725.16 C 390.679,1724.41 391.555,1723.68 392.431,1722.95 C 393.625,1721.92 394.824,1720.91 396.029,1719.9 C 396.744,1719.27 397.455,1718.65 398.169,1718.03 C 399.149,1717.21 400.121,1716.38 401.081,1715.53 C 402.399,1714.37 403.731,1713.23 405.129,1712.16 L 405.083,1712.49 L 405.033,1712.81 C 404.595,1713.25 404.157,1713.69 403.719,1714.13 C 403.676,1714.57 403.535,1714.91 403.263,1715.27 C 402.993,1715.63 402.772,1715.99 402.561,1716.38 C 402.124,1716.82 401.279,1717.37 401.217,1718 C 401.2,1718.19 401.037,1718.51 400.791,1718.84 C 400.139,1719.72 399.501,1720.63 398.993,1721.6 C 398.332,1722.26 397.684,1722.83 397.62,1723.8 C 397.156,1724.42 396.705,1725.04 396.276,1725.69 C 395.068,1727.5 393.689,1729.29 392.679,1731.21 C 392.239,1731.65 391.8,1732.09 391.361,1732.53 C 391.175,1733.07 390.952,1733.58 390.648,1734.07 C 390.355,1734.53 390.097,1735 389.851,1735.49 C 390.264,1735.05 390.675,1734.61 391.088,1734.17 C 396.392,1728.87 401.588,1723.31 407.836,1719.07 C 411.092,1716.5 414.605,1714.23 417.553,1711.28 C 419.083,1709.75 420.555,1708.09 421.564,1706.17 C 422.207,1705.53 422.824,1704.95 423.292,1704.17 C 423.519,1703.79 424.333,1702.05 425.105,1700.29 C 425.725,1698.88 426.327,1697.47 427.013,1696.09 C 427.337,1695.44 427.613,1694.8 427.849,1694.12 L 425.929,1692.19 L 425.653,1692.19 L 425.653,1692.47 C 425.311,1694.2 424.821,1695.81 424.035,1697.38 C 423.476,1698.58 422.917,1699.78 422.36,1700.98 C 422.095,1701.42 421.832,1701.85 421.568,1702.29 L 421.4,1702.47 C 420.968,1702.95 420.589,1703.47 420.191,1703.97 C 417.625,1707.18 414.523,1709.89 411.377,1712.51 C 407.927,1715.29 404.604,1718.21 401.376,1721.24 L 401.541,1720.76 C 401.729,1720.22 402.129,1719.81 402.469,1719.36 C 402.993,1718.65 403.475,1717.91 403.964,1717.18 C 405.853,1714.45 407.041,1711.25 408.384,1708.23 C 408.732,1707.45 409.089,1706.67 409.469,1705.91 C 409.729,1705.65 410.003,1705.1 410.003,1704.83 C 407.533,1707.29 407.533,1707.29 406.709,1707.57 L 406.433,1707.57 C 406.433,1707.66 406.433,1707.75 406.433,1707.84 L 406.299,1707.84 C 406.16,1707.84 406.16,1707.84 406.16,1707.84 C 401.297,1712.71 396.165,1717.29 390.785,1721.57 C 390.315,1721.89 389.851,1722.21 389.397,1722.55 C 389.12,1722.75 388.845,1722.96 388.563,1723.15 C 388.303,1723.33 388.069,1723.3 387.792,1723.22 L 388.616,1722.52 C 389.713,1721.59 390.667,1720.55 391.637,1719.48 C 394.185,1716.68 396.407,1713.69 398.747,1710.73 C 399.065,1710.33 399.353,1709.91 399.599,1709.46 C 399.864,1709.11 400.128,1708.75 400.395,1708.39 C 400.825,1707.75 401.276,1707.12 401.737,1706.5 C 402.02,1706.11 402.295,1705.71 402.556,1705.3 C 402.592,1705.1 402.865,1704.83 402.865,1704.83 L 403.413,1704.27 L 402.865,1703.45 L 405.609,1700.43 C 405.388,1700.34 404.871,1700.54 404.461,1700.88 C 403.939,1701.32 403.396,1701.72 402.837,1702.11 L 402.164,1702.64 C 399.736,1704.57 397.209,1706.4 394.628,1708.12 C 393.041,1709.22 391.344,1710.19 389.44,1710.59 C 389.955,1710.21 390.493,1709.96 391.088,1709.74 C 391.941,1708.88 392.857,1708.11 393.776,1707.32 C 397.155,1703.95 400.005,1700.13 402.865,1696.31 C 403.216,1695.8 403.575,1695.29 403.964,1694.8 C 404.251,1694.44 404.559,1694.01 404.651,1693.84 C 404.971,1693.26 405.444,1692.74 405.857,1692.22 C 407.023,1690.51 408.26,1688.72 409.729,1687.25 C 411.369,1685.61 413.5,1684.21 415.617,1683.29 C 415.771,1683.13 416.319,1682.86 416.595,1682.86 Z "/>
		<path id="dp_path021" fill="#e7e100" fill-rule="evenodd" stroke="none" stroke-width="0" d="M 424.005,1691.1 L 420.712,1694.39 L 410.279,1704.83 L 410.279,1704.55 L 410.003,1704.55 L 410.003,1704.83 C 410.003,1705.1 409.729,1705.65 409.469,1705.91 C 409.089,1706.67 408.732,1707.45 408.384,1708.23 C 407.041,1711.25 405.853,1714.45 403.964,1717.18 C 403.475,1717.91 402.993,1718.65 402.469,1719.36 C 402.129,1719.81 401.729,1720.22 401.541,1720.76 L 401.376,1721.24 C 404.604,1718.21 407.927,1715.29 411.377,1712.51 C 414.523,1709.89 417.625,1707.18 420.191,1703.97 C 420.589,1703.47 420.968,1702.95 421.4,1702.47 L 421.568,1702.29 C 421.832,1701.85 422.095,1701.42 422.36,1700.98 C 422.917,1699.78 423.476,1698.58 424.035,1697.38 C 424.821,1695.81 425.311,1694.2 425.653,1692.47 L 424.984,1691.61 L 424.657,1691.35 C 424.477,1691.21 424.257,1691.1 424.169,1691.1 C 424.005,1691.1 424.005,1691.1 424.005,1691.1 Z "/>
		<path id="dp_path022" fill="#e7e100" fill-rule="evenodd" stroke="none" stroke-width="0" d="M 416.595,1682.86 C 416.319,1682.86 415.771,1683.13 415.617,1683.29 C 413.5,1684.21 411.369,1685.61 409.729,1687.25 C 408.26,1688.72 407.023,1690.51 405.857,1692.22 C 405.444,1692.74 404.971,1693.26 404.651,1693.84 C 404.559,1694.01 404.251,1694.44 403.964,1694.8 C 403.575,1695.29 403.216,1695.8 402.865,1696.31 C 400.005,1700.13 397.155,1703.95 393.776,1707.32 C 392.857,1708.11 391.941,1708.88 391.088,1709.74 C 390.493,1709.96 389.955,1710.21 389.44,1710.59 C 391.344,1710.19 393.041,1709.22 394.628,1708.12 C 397.209,1706.4 399.736,1704.57 402.164,1702.64 L 402.837,1702.11 C 403.396,1701.72 403.939,1701.32 404.461,1700.88 C 404.871,1700.54 405.388,1700.34 405.609,1700.43 L 408.905,1697.14 L 414.123,1691.64 L 413.847,1691.64 C 412.317,1692.91 410.763,1694.18 409.167,1695.37 C 408.209,1696.08 407.252,1696.6 406.171,1697.13 C 405.244,1697.59 404.373,1697.9 404.237,1697.82 C 403.853,1697.61 404.223,1697.56 404.528,1697.4 C 405.213,1697.02 405.651,1696.45 406.173,1695.87 C 408.577,1693.2 410.761,1690.37 412.996,1687.56 C 414.047,1686.24 415.149,1685 416.469,1683.94 C 416.595,1683.68 416.868,1683.41 417.143,1683.41 Z "/>
		<path id="dp_path023" fill="#e7e100" fill-rule="evenodd" stroke="none" stroke-width="0" d="M 406.16,1707.84 C 401.297,1712.71 396.165,1717.29 390.785,1721.57 C 390.315,1721.89 389.851,1722.21 389.397,1722.55 C 389.12,1722.75 388.845,1722.96 388.563,1723.15 C 388.303,1723.33 388.069,1723.3 387.792,1723.22 L 388.616,1722.52 C 389.713,1721.59 390.667,1720.55 391.637,1719.48 C 394.185,1716.68 396.407,1713.69 398.747,1710.73 C 399.065,1710.33 399.353,1709.91 399.599,1709.46 C 399.864,1709.11 400.128,1708.75 400.395,1708.39 C 400.825,1707.75 401.276,1707.12 401.737,1706.5 C 402.02,1706.11 402.295,1705.71 402.556,1705.3 C 402.592,1705.1 402.865,1704.83 402.865,1704.83 C 402.865,1704.83 402.865,1704.83 402.865,1704.96 L 402.865,1705.1 L 403.172,1704.95 C 403.339,1704.86 404.04,1705.34 404.729,1706 C 405.417,1706.66 406.061,1707.49 406.16,1707.84 Z "/>
		<path id="dp_path024" fill="#e7e100" fill-rule="evenodd" stroke="none" stroke-width="0" d="M 417.143,1689.17 C 416.595,1689.17 416.595,1689.17 415.495,1690.27 C 415.771,1690.27 415.771,1690.27 416.044,1690.27 Z "/>
		<path id="dp_path025" fill="#fefe00" fill-rule="evenodd" stroke="none" stroke-width="0" d="M 410.279,1704.55 C 420.436,1694.39 420.436,1694.39 420.712,1694.39 L 410.279,1704.83 Z "/>
		<path id="dp_path026" fill="#fefe00" fill-rule="evenodd" stroke="none" stroke-width="0" d="M 415.495,1690.27 C 414.397,1690.82 414.397,1690.82 413.847,1691.64 L 414.123,1691.64 L 408.905,1697.14 C 409.181,1697.14 409.181,1697.14 416.044,1690.27 C 415.771,1690.27 415.771,1690.27 415.495,1690.27 Z "/>
		<path id="dp_path027" fill="#fefe00" fill-rule="evenodd" stroke="none" stroke-width="0" d="M 403.413,1704.27 L 402.865,1704.83 C 402.865,1704.83 402.865,1704.83 402.865,1704.96 L 402.865,1705.1 L 403.172,1704.95 C 403.339,1704.86 404.04,1705.34 404.729,1706 C 405.417,1706.66 406.061,1707.49 406.16,1707.84 C 406.16,1707.84 406.16,1707.84 406.299,1707.84 L 406.433,1707.84 C 406.433,1707.75 406.433,1707.66 406.433,1707.57 L 406.709,1707.57 Z "/>
		<path id="dp_path028" fill="#fefe00" fill-rule="evenodd" stroke="none" stroke-width="0" d="M 425.929,1692.19 L 424.556,1690.55 L 424.005,1691.1 C 424.005,1691.1 424.005,1691.1 424.169,1691.1 C 424.257,1691.1 424.477,1691.21 424.657,1691.35 L 424.984,1691.61 L 425.653,1692.47 L 425.653,1692.19 Z "/>
		<path id="dp_path029" fill="#47704c" fill-rule="evenodd" stroke="none" stroke-width="0" d="M 520.652,1593.63 L 520.377,1592.55 C 520.173,1592 519.305,1592.08 518.804,1592.05 L 517.387,1591.98 L 517.233,1591.84 C 517.084,1591.7 517.084,1591.7 517.084,1591.7 L 520.652,1591.7 Z "/>
		<path id="dp_path030" fill="#cbcbcb" fill-rule="evenodd" stroke="none" stroke-width="0" d="M 446.521,1691.92 C 446.64,1691.09 446.713,1691.01 447.116,1691.3 C 447.767,1691.78 448.617,1691.14 449.239,1690.85 C 450.996,1690.1 452.755,1689.35 454.511,1688.6 C 454.951,1688.24 455.389,1687.88 455.828,1687.53 L 456.515,1687.29 C 457.152,1687.06 457.637,1686.68 458.147,1686.26 C 459.233,1686.07 460.149,1685.35 461.072,1684.78 C 461.773,1684.42 462.295,1684.11 462.857,1683.54 C 463.432,1682.97 463.991,1682.46 464.779,1682.19 C 465.123,1682.07 465.365,1681.92 465.879,1681.5 C 466.827,1680.73 467.941,1680.1 469.035,1679.55 C 470.061,1679.04 470.875,1678.19 471.78,1677.51 C 472.512,1676.95 473.245,1676.41 473.976,1675.86 C 474.581,1675.41 475.224,1675.03 475.869,1674.64 C 475.913,1674.48 475.956,1674.32 476.001,1674.16 C 476.413,1673.95 476.829,1673.75 477.243,1673.54 C 477.423,1672.88 478.087,1672.58 478.617,1672.18 C 479.4,1671.58 480.116,1670.95 480.813,1670.26 C 481.12,1669.95 481.459,1669.68 481.803,1669.41 C 482.391,1668.94 482.921,1668.43 483.451,1667.9 C 484.28,1667.06 485.208,1666.31 486.087,1665.53 C 487.108,1664.51 488.097,1663.47 489.079,1662.4 C 490.156,1661.23 490.787,1660.56 490.972,1660.37 C 491.751,1659.59 492.452,1658.74 493.168,1657.9 C 493.753,1657.59 493.956,1657.1 494.295,1656.53 C 494.385,1656.4 494.504,1656.29 494.619,1656.17 C 495.353,1655.45 496.043,1654.65 496.519,1653.73 C 496.957,1653.29 497.396,1652.85 497.836,1652.41 C 498.052,1651.84 498.309,1651.36 498.703,1650.87 C 499.027,1650.47 499.311,1650.07 499.54,1649.61 C 499.977,1649.17 500.416,1648.73 500.855,1648.29 C 500.956,1648.02 501.059,1647.74 501.16,1647.47 C 501.212,1646.84 501.685,1646.13 502.103,1645.69 C 502.551,1645.21 503.051,1644.61 503.251,1643.99 C 503.623,1642.81 504.356,1641.93 505.047,1640.95 C 505.26,1640.64 505.273,1640.42 505.087,1640.27 C 504.924,1640.14 504.119,1640.78 503.136,1641.81 C 501.52,1643.51 499.859,1645.09 498.109,1646.65 C 497.58,1647.17 497.051,1647.71 496.519,1648.24 C 496.119,1648.64 495.697,1649.01 495.256,1649.36 C 494.431,1650.03 493.7,1650.78 492.949,1651.53 C 492.641,1651.84 492.304,1652.11 491.961,1652.38 C 490.916,1653.21 489.883,1654.05 488.94,1654.99 C 488.321,1655.61 487.724,1656.11 486.917,1656.46 C 486.689,1657.3 485.507,1657.95 484.823,1658.42 C 484.113,1658.91 483.535,1659.57 482.929,1660.18 C 482.563,1660.54 482.499,1660.59 482.351,1660.62 C 481.851,1660.71 481.281,1661.33 480.881,1661.64 C 480.645,1662.11 479.928,1662.43 479.508,1662.74 C 479.356,1663.04 479.188,1663.07 478.859,1663.2 C 478.407,1663.37 478.164,1663.57 477.82,1663.91 C 477.085,1664.65 476.181,1665.21 475.351,1665.83 C 474.832,1666.19 474.332,1666.55 473.84,1666.93 C 473.479,1667.22 473.047,1667.53 472.879,1667.62 C 472.288,1667.95 471.443,1668.43 471.131,1669.06 C 470.352,1669.22 469.892,1669.92 469.337,1670.48 L 468.927,1670.63 L 468.513,1670.78 C 467.8,1670.84 467.028,1671.64 466.427,1672.01 C 466.065,1672.24 465.571,1672.49 465.328,1672.58 C 464.587,1672.83 463.919,1673.37 463.269,1673.8 C 461.536,1674.79 459.808,1675.79 458.081,1676.79 C 457.213,1677.22 456.347,1677.65 455.457,1678.04 C 454.853,1678.3 454.373,1678.57 454.195,1678.74 C 453.784,1679.13 453.076,1679.14 452.541,1679.27 C 452.865,1677.61 453.175,1675.99 453.309,1674.31 C 453.417,1672.94 453.201,1671.68 452.848,1670.37 C 452.988,1670.37 452.604,1669.44 452.545,1669.27 C 452.547,1669.27 452.547,1669.27 452.547,1669.27 C 452.365,1668.59 452.183,1667.91 452,1667.24 C 451.467,1666.63 450.899,1666.05 450.343,1665.46 C 447.644,1668.15 444.947,1670.84 442.251,1673.52 L 442.052,1673.52 C 442.128,1673.52 441.853,1673.52 441.853,1673.52 L 438.559,1676.82 L 438.269,1677.78 C 438.273,1677.83 438.28,1677.87 438.284,1677.92 C 438.583,1678.25 438.472,1678.88 438.507,1679.31 C 438.561,1680 438.475,1681.05 438.313,1681.64 C 438.155,1682.24 438.075,1682.75 438.14,1682.79 C 438.321,1682.9 438.141,1682.92 437.996,1683 C 438.008,1683.13 437.735,1683.13 437.735,1683.13 C 437.735,1683.41 437.735,1683.41 437.735,1683.68 C 442.952,1688.9 442.952,1688.9 442.952,1689.17 L 445.697,1691.92 L 446.245,1691.64 Z "/>
		<path id="dp_path031" fill="#cbcbcb" fill-rule="evenodd" stroke="none" stroke-width="0" d="M 474.087,1629.04 C 473.541,1629.04 472.993,1628.96 472.453,1628.91 C 471.629,1628.83 470.812,1628.83 470.636,1628.91 C 470.303,1629.05 470.025,1629.04 469.661,1629.04 C 468.7,1629.04 467.795,1629.35 466.868,1629.59 C 466.127,1629.59 465.307,1630.31 464.671,1630.66 C 464.04,1631.11 463.383,1631.44 462.705,1631.8 C 461.967,1632.2 461.485,1632.85 460.92,1633.47 C 459.779,1634.72 458.857,1635.92 458.052,1637.42 C 457.372,1638.69 456.887,1640.01 456.433,1641.37 L 456.411,1641.73 L 456.389,1642.09 C 456.393,1642.09 456.4,1642.09 456.404,1642.09 L 456.404,1644.23 C 456.404,1646.42 457.056,1648.36 457.915,1650.34 C 458.631,1651.98 460.017,1653.09 461.319,1654.28 C 461.629,1654.77 462.479,1655.16 463.008,1655.29 C 463.453,1655.4 463.655,1655.51 463.985,1655.83 C 464.324,1656.16 464.419,1656.23 464.533,1656.23 C 464.777,1656.23 465.004,1656.39 465.22,1656.5 C 465.955,1656.5 466.689,1656.67 467.416,1656.78 C 469.611,1657.09 471.932,1656.87 474.005,1656.09 C 474.76,1655.81 475.469,1655.49 476.187,1655.13 C 476.909,1654.76 477.363,1654.49 477.547,1654.3 C 478,1653.85 478.617,1653.55 479.165,1653.22 C 479.255,1652.73 479.661,1652.34 479.957,1651.95 C 480.817,1651.49 481.205,1650.83 481.633,1649.97 C 482.153,1649.65 482.324,1649.39 482.612,1648.81 C 482.885,1648.27 483.027,1647.74 483.067,1647.14 C 483.332,1646.43 483.596,1645.71 483.861,1645 C 483.976,1644.85 484.089,1644.71 484.204,1644.56 C 483.904,1644.56 484.192,1644 484.239,1643.79 C 484.333,1643.36 484.347,1642.81 484.268,1642.54 C 484.109,1642.01 484.329,1641.48 484.501,1640.99 C 484.485,1640.99 484.471,1640.99 484.456,1640.99 L 484.16,1639.39 C 483.995,1638.52 483.62,1637.38 483.328,1636.87 C 482.904,1636.13 482.649,1635.37 482.448,1634.55 L 482.236,1634.49 C 481.804,1634.37 481.599,1633.58 481.404,1633.19 C 480.82,1633.09 480.133,1632.55 479.943,1632.01 C 479.673,1631.22 478.503,1630.66 477.849,1630.17 C 476.664,1629.87 475.476,1629.59 474.281,1629.32 L 474.251,1629.18 C 474.224,1629.05 474.221,1629.04 474.087,1629.04 Z M 470.652,1630.55 C 470.352,1630.63 469.988,1630.63 469.844,1630.55 C 469.701,1630.48 469.157,1630.54 468.639,1630.69 C 467.368,1631.06 466.052,1631.45 465.04,1632.31 C 464.321,1632.92 463.529,1633.32 462.691,1633.74 C 462.024,1634.41 461.356,1635.08 460.689,1635.74 C 459.337,1637.09 458.693,1639.17 458.283,1640.99 C 458.265,1640.99 458.251,1640.99 458.235,1640.99 C 458.173,1642.21 458.113,1643.44 458.052,1644.67 C 457.749,1645.33 458.128,1646.06 458.307,1646.75 C 458.239,1646.75 458.427,1647.55 458.451,1647.66 C 458.581,1648.32 458.753,1648.77 459.105,1649.35 L 459.579,1650.13 L 459.653,1650.17 C 459.948,1650.35 460.171,1650.75 460.387,1651.01 C 460.748,1651.45 461.119,1651.88 461.211,1651.97 C 461.439,1652.2 461.668,1652.43 461.896,1652.66 C 462.487,1653.25 463.097,1653.71 463.893,1653.98 C 464.451,1654.18 464.868,1654.51 465.368,1654.79 C 465.916,1655.08 466.8,1655.04 467.416,1655.13 C 469.481,1655.42 471.569,1655.15 473.595,1654.7 C 475.199,1654.35 476.388,1653.27 477.517,1652.14 L 477.877,1652.02 C 478.735,1651.73 479.424,1650.52 479.997,1649.83 C 480.624,1649.07 481.249,1648.15 481.512,1647.19 C 481.627,1646.78 481.819,1646.5 482.124,1646.23 C 482.339,1645.07 482.551,1643.9 482.764,1642.74 C 482.764,1641.79 482.764,1640.84 482.764,1639.89 C 482.785,1639.89 482.808,1639.89 482.832,1639.89 C 482.603,1639.43 482.375,1638.98 482.145,1638.52 C 482.419,1638.52 482.271,1638.25 482.243,1638.02 C 482.08,1636.64 480.872,1635.34 480.017,1634.29 L 480.004,1634.26 C 479.661,1633.58 478.712,1633.09 478.123,1632.64 C 476.575,1631.52 474.787,1631.02 472.965,1630.52 C 472.496,1630.64 472.233,1630.67 471.752,1630.55 C 471.449,1630.48 470.956,1630.48 470.652,1630.55 Z "/>
		<path id="dp_path032" fill="#cbcbcb" fill-rule="evenodd" stroke="none" stroke-width="0" d="M 433.117,1682.6 C 432.923,1682.38 432.797,1682.31 432.519,1682.31 L 429.301,1685.6 L 426.085,1688.9 C 427.855,1690.72 429.623,1692.54 431.392,1694.36 L 433.575,1696.61 C 435.345,1698.43 435.869,1698.82 436.348,1698.68 C 437.303,1698.41 438.195,1697.88 439.079,1697.44 C 439.995,1697.07 440.911,1696.71 441.825,1696.34 C 442.649,1695.98 443.471,1695.61 444.295,1695.24 L 444.765,1695.07 L 445.233,1694.9 C 441.279,1690.89 437.324,1686.89 433.369,1682.89 Z M 437.921,1688.2 L 432.923,1683.13 C 432.787,1683.13 432.652,1683.13 432.519,1683.13 C 430.616,1685.04 428.672,1686.9 426.74,1688.77 C 428.219,1690.28 429.697,1691.8 431.173,1693.32 L 433.343,1695.63 C 434.977,1697.37 435.564,1697.99 435.729,1698.19 C 435.863,1698.35 436.345,1698.25 436.964,1697.95 C 437.661,1697.6 438.352,1697.3 439.079,1697.03 C 440.865,1696.36 442.596,1695.54 444.352,1694.79 L 443.639,1694.03 C 441.776,1692.04 439.835,1690.13 437.921,1688.2 Z "/>
		<path id="dp_path033" fill="#cbcbcb" fill-rule="evenodd" stroke="none" stroke-width="0" d="M 416.044,1666.11 L 415.22,1667.76 C 414.671,1669.68 414.671,1669.68 414.123,1670.23 C 413.023,1672.43 413.023,1672.43 413.023,1672.7 L 412.475,1674.9 L 413.299,1675.72 L 414.947,1677.37 L 422.084,1684.51 L 422.084,1684.23 L 415.343,1677.34 L 415.152,1676.95 C 414.919,1676.49 415.523,1676.11 415.868,1675.93 C 416.116,1675.79 416.336,1675.61 416.565,1675.45 C 416.143,1675.26 416.509,1674.79 416.663,1674.49 C 416.823,1674.44 416.981,1674.39 417.143,1674.35 C 416.865,1674.04 416.933,1674.05 417.293,1673.8 C 417.559,1673.61 417.825,1673.43 418.089,1673.25 L 418.485,1672.97 C 418.064,1672.79 418.431,1672.32 418.583,1672.01 C 418.744,1671.97 418.905,1671.92 419.064,1671.88 C 418.835,1671.63 419.568,1670.88 419.737,1670.64 C 419.871,1670.69 420.003,1670.73 420.133,1670.78 L 420.353,1670.64 C 420.475,1670.57 422.273,1672.2 424.351,1674.28 L 428.125,1678.04 L 428.125,1677.84 C 428.125,1677.92 428.125,1677.64 428.125,1677.64 L 418.791,1668.31 C 416.319,1666.11 416.319,1666.11 416.044,1666.11 Z "/>
		<path id="dp_path034" fill="#ebebeb" fill-rule="evenodd" stroke="none" stroke-width="0" d="M 476.724,1602.96 C 469.704,1606.16 463.055,1610.28 458.823,1613.29 C 456.105,1615.22 455.843,1614.84 453.248,1616.93 C 451.308,1618.49 448.793,1621.22 446.521,1623.01 C 444.688,1624.44 441.012,1630.14 439.384,1630.14 C 439.296,1630.65 432.573,1639.11 430.943,1640.78 C 429.655,1642.1 430.459,1642.66 429.115,1643.93 C 426.104,1646.76 420.82,1657.34 420.569,1657.79 C 419.867,1659.05 419.079,1660.57 418.425,1661.99 C 418.316,1662.23 417.772,1663.02 417.967,1663.37 C 419.464,1666.01 427.673,1672.96 430.46,1675.71 C 435.259,1670.94 441.523,1664.09 446.572,1660.56 C 447.804,1661.84 449.188,1663.27 450.529,1664.7 C 446.712,1667.32 444.5,1670.88 441.853,1673.52 C 442.829,1673.52 449.128,1666.67 450.343,1665.46 C 451.12,1666.28 451.659,1666.73 452.001,1667.24 C 452.208,1667.55 452.249,1668.17 452.348,1668.53 C 452.413,1668.78 452.799,1669.27 452.545,1669.27 C 452.581,1669.36 452.7,1669.68 452.771,1669.88 C 452.825,1670.03 453.008,1670.33 452.848,1670.37 C 453.752,1673.87 453.263,1675.59 452.581,1679.06 C 452.681,1679.36 453.075,1679.42 454.383,1678.6 C 455.457,1677.92 456.796,1677.48 458.083,1676.79 C 462.171,1674.59 464.768,1673.04 469.337,1670.48 C 469.368,1670.46 472.085,1668.07 472.647,1667.75 C 479.965,1663.57 492.648,1652.04 496.519,1648.24 C 498.999,1645.8 500.901,1644.13 502.984,1641.97 C 503.336,1641.6 503.577,1641.34 503.991,1640.97 C 504.312,1640.68 504.712,1640.05 505.087,1640.27 C 505.353,1640.53 505.121,1640.84 505.047,1640.95 C 504.919,1641.13 504.789,1641.31 504.656,1641.49 C 504.087,1642.29 503.879,1643.67 502.443,1645.31 C 502.032,1645.78 501.132,1647.86 500.855,1648.29 C 498.627,1651.79 496.512,1654.44 493.168,1657.9 C 489.641,1661.55 484.169,1667.29 481.171,1669.92 C 479.657,1671.25 479.555,1672.05 477.241,1673.54 C 474.109,1675.55 468.956,1679.41 465.396,1681.87 C 461.06,1684.86 457.523,1687.31 453.357,1689.09 C 451.86,1689.73 449.993,1690.46 448.736,1691.11 C 448.105,1691.44 445.579,1690.92 446.783,1692.2 C 446.985,1692.42 447.556,1693.27 447.832,1693.32 C 449.292,1693.58 460.475,1686.55 462.307,1685.47 C 475.336,1677.74 489.268,1665.95 498.639,1653.39 C 500.673,1650.67 502.117,1647.11 504.219,1644.08 C 504.471,1643.72 504.56,1643.87 505.001,1643.87 C 505.001,1642.07 506.089,1640.75 506.748,1639.49 C 507.401,1638.24 508.876,1636.17 508.571,1635.63 C 506.963,1632.78 502.744,1629.82 500.564,1627.61 C 494.892,1621.87 489.912,1616.37 484.136,1610.68 C 486.307,1616.68 481.308,1616.86 477.168,1619.58 C 468.056,1625.58 457.348,1630.19 448.415,1634.29 C 447.609,1634.66 436.916,1639.48 435.177,1637.88 C 434.844,1637.51 436.095,1635.59 436.693,1634.83 C 437.163,1634.25 437.341,1634.12 437.684,1633.74 C 439.84,1631.34 441.953,1628.97 443.995,1626.89 C 449.776,1620.99 466.763,1606.19 474.997,1605.61 C 477.384,1605.44 478.409,1606.69 480.229,1607.13 C 480.559,1607.2 479.388,1606.03 479.132,1605.76 C 478.308,1604.89 477.644,1603.88 476.724,1602.96 Z M 474.085,1629.04 C 472.104,1628.97 469.743,1628.67 466.444,1629.66 C 465.193,1630.04 465.309,1630.31 464.193,1630.98 C 463.659,1631.3 463.263,1631.36 462.315,1632.05 C 459.716,1633.96 457.771,1637.61 456.783,1640.36 C 456.323,1641.64 456.385,1642.87 456.404,1644.23 C 456.441,1646.92 457.087,1650.22 459.625,1652.71 C 460.189,1653.27 460.504,1653.49 461.319,1654.28 C 462.224,1655.15 462.356,1654.95 463.427,1655.43 C 464.009,1655.68 463.86,1655.9 464.424,1656.2 C 465.441,1656.74 465.513,1656.49 466.045,1656.56 C 466.504,1656.62 466.956,1656.71 467.416,1656.78 C 467.9,1656.85 468.385,1656.89 468.871,1656.91 C 472.951,1657.05 474.896,1656.12 478.012,1653.92 C 478.679,1653.45 478.764,1653.54 479.165,1653.22 C 479.427,1653.01 479.644,1652.26 479.957,1651.95 C 480.203,1651.71 480.729,1651.39 480.857,1651.23 C 481.2,1650.83 481.357,1650.32 481.633,1649.97 C 481.968,1649.55 482.536,1648.96 482.611,1648.81 C 482.88,1648.28 482.907,1647.7 483.067,1647.14 C 483.303,1646.32 483.635,1645.2 484.177,1644.55 C 484.215,1644.51 484.057,1644.48 484.069,1644.42 C 484.096,1644.3 484.097,1644.22 484.128,1644.12 C 484.379,1643.35 484.099,1642.17 484.371,1641.37 C 484.517,1640.93 484.357,1640.45 484.259,1639.93 C 484.063,1638.87 482.859,1635.02 482.237,1634.49 C 481.555,1633.91 481.891,1633.66 481.404,1633.19 C 480.999,1632.8 480.72,1632.94 480.428,1632.68 C 480.283,1632.55 479.876,1631.76 479.595,1631.46 C 478.14,1629.88 477.073,1629.97 475.891,1629.69 C 475.417,1629.58 474.7,1629.55 474.281,1629.32 C 474.183,1629.27 474.197,1629.05 474.085,1629.04 Z "/>
		<path id="dp_path035" fill="#ebebeb" fill-rule="evenodd" stroke="none" stroke-width="0" d="M 437.921,1688.2 L 432.923,1683.13 C 432.787,1683.13 432.652,1683.13 432.519,1683.13 C 430.616,1685.04 428.672,1686.9 426.74,1688.77 C 428.219,1690.28 429.697,1691.8 431.173,1693.32 L 433.343,1695.63 C 434.977,1697.37 435.564,1697.99 435.729,1698.19 C 435.863,1698.35 436.345,1698.25 436.964,1697.95 C 437.661,1697.6 438.352,1697.3 439.079,1697.03 C 440.865,1696.36 442.596,1695.54 444.352,1694.79 L 443.639,1694.03 C 441.776,1692.04 439.835,1690.13 437.921,1688.2 Z "/>
		<path id="dp_path036" fill="#ebebeb" fill-rule="evenodd" stroke="none" stroke-width="0" d="M 422.084,1684.23 L 415.343,1677.34 L 415.152,1676.95 C 414.919,1676.49 415.523,1676.11 415.868,1675.93 C 416.116,1675.79 416.336,1675.61 416.565,1675.45 C 416.143,1675.26 416.509,1674.79 416.663,1674.49 C 416.823,1674.44 416.981,1674.39 417.143,1674.35 C 416.865,1674.04 416.933,1674.05 417.293,1673.8 C 417.559,1673.61 417.825,1673.43 418.089,1673.25 L 418.485,1672.97 C 418.064,1672.79 418.431,1672.32 418.583,1672.01 C 418.744,1671.97 418.905,1671.92 419.064,1671.88 C 418.835,1671.63 419.568,1670.88 419.737,1670.64 C 419.871,1670.69 420.003,1670.73 420.133,1670.78 L 420.353,1670.64 C 420.475,1670.57 422.273,1672.2 424.351,1674.28 L 428.125,1678.04 L 428.125,1677.84 C 428.125,1677.92 428.125,1677.64 428.125,1677.64 C 428.125,1677.64 428.399,1677.64 428.447,1677.8 L 428.771,1677.97 C 426.568,1680.09 424.359,1682.19 422.084,1684.23 Z "/>
		<path id="dp_path037" fill="#ebebeb" fill-rule="evenodd" stroke="none" stroke-width="0" d="M 417.143,1683.41 C 416.868,1683.41 416.595,1683.68 416.469,1683.94 C 415.149,1685 414.047,1686.24 412.996,1687.56 C 410.761,1690.37 408.577,1693.2 406.173,1695.87 C 405.651,1696.45 405.213,1697.02 404.528,1697.4 C 404.223,1697.56 403.853,1697.61 404.237,1697.82 C 404.373,1697.9 405.244,1697.59 406.171,1697.13 C 407.252,1696.6 408.209,1696.08 409.167,1695.37 C 410.763,1694.18 412.317,1692.91 413.847,1691.64 C 414.397,1690.82 414.397,1690.82 415.495,1690.27 C 416.595,1689.17 416.595,1689.17 417.143,1689.17 L 417.416,1689.17 L 417.416,1688.9 C 416.611,1688.61 416.476,1688.65 415.489,1689.55 C 413.371,1691.48 411.191,1693.38 408.891,1695.09 C 407.952,1695.79 407.035,1696.23 405.915,1696.59 L 406.736,1695.75 C 409.131,1693.31 411.147,1690.5 413.271,1687.83 C 414.321,1686.52 415.423,1685.27 416.745,1684.22 C 416.868,1683.96 417.143,1683.68 417.416,1683.68 L 417.416,1683.41 Z "/>
		<path id="dp_path038" fill="#ebebeb" fill-rule="evenodd" stroke="none" stroke-width="0" d="M 438.559,1676.82 L 436.087,1679.29 C 435.263,1680.39 435.263,1680.39 435.263,1680.94 L 435.812,1681.49 L 437.735,1683.13 C 437.735,1683.13 438.008,1683.13 437.996,1683 C 438.141,1682.92 438.321,1682.9 438.14,1682.79 C 438.075,1682.75 438.155,1682.24 438.313,1681.64 C 438.475,1681.05 438.561,1680 438.507,1679.31 C 438.472,1678.88 438.583,1678.25 438.284,1677.92 C 438.28,1677.87 438.273,1677.83 438.269,1677.78 Z "/>
		<path id="dp_path039" fill="#ebebeb" fill-rule="evenodd" stroke="none" stroke-width="0" d="M 437.735,1683.68 C 438.008,1684.51 438.008,1684.51 442.952,1689.17 C 442.952,1688.9 442.952,1688.9 437.735,1683.68 Z "/>
		<path id="dp_path040" fill="#ebebeb" fill-rule="evenodd" stroke="none" stroke-width="0" d="M 418.791,1668.31 C 418.689,1667.95 418.071,1667.15 417.415,1666.52 L 416.22,1665.38 L 416.132,1665.74 C 416.044,1665.83 416.044,1666.11 416.044,1666.11 C 416.319,1666.11 416.319,1666.11 418.791,1668.31 Z "/>
		<path id="dp_path041" fill="#ebebeb" fill-rule="evenodd" stroke="none" stroke-width="0" d="M 415.22,1667.76 C 414.123,1669.95 414.123,1669.95 414.123,1670.23 C 414.671,1669.68 414.671,1669.68 415.22,1667.76 Z "/>
		<path id="dp_path042" fill="#ebebeb" fill-rule="evenodd" stroke="none" stroke-width="0" d="M 413.023,1672.7 L 411.927,1674.62 L 412.475,1674.9 Z "/>
		<path id="dp_path043" fill="#ebebeb" fill-rule="evenodd" stroke="none" stroke-width="0" d="M 413.299,1675.72 C 413.413,1676.12 413.756,1676.65 414.061,1676.9 C 414.459,1677.24 414.663,1677.37 414.781,1677.37 C 414.947,1677.37 414.947,1677.37 414.947,1677.37 Z "/>
		<path id="dp_path044" fill="#fefefe" fill-rule="evenodd" stroke="none" stroke-width="0" d="M 486.333,1612.84 L 484.136,1610.68 L 484.548,1611.81 C 484.775,1612.44 484.96,1613.36 484.96,1613.85 C 484.96,1615.08 483.791,1615.55 482.9,1616.14 C 482.488,1616.41 482.076,1616.69 481.664,1616.96 C 481.428,1617.13 481.188,1617.29 480.951,1617.46 C 480.347,1617.68 479.839,1617.94 479.331,1618.35 C 478.817,1618.77 478.576,1618.92 478.233,1619.04 C 477.489,1619.29 476.825,1619.83 476.172,1620.26 C 474.571,1621.17 472.969,1622.09 471.368,1623.01 C 469.153,1624.27 466.895,1625.47 464.656,1626.7 C 461.651,1628.34 458.62,1629.94 455.444,1631.24 C 453.723,1631.94 452.028,1632.7 450.336,1633.47 C 449.696,1633.74 449.055,1634.01 448.415,1634.29 C 447.875,1634.55 447.335,1634.82 446.795,1635.08 C 446.337,1635.27 445.879,1635.45 445.421,1635.63 C 444.139,1636.22 442.819,1636.64 441.473,1637.08 C 439.609,1637.69 437.777,1638.04 435.833,1638.15 L 435.381,1638 C 434.577,1637.72 435.532,1636.65 435.799,1636.32 C 436.2,1635.83 436.363,1635.57 436.447,1635.31 C 436.547,1635.01 436.628,1634.89 437.025,1634.46 C 437.911,1633.5 438.764,1632.52 439.629,1631.54 C 444.341,1626.31 449.389,1621.37 454.893,1616.96 C 456.541,1615.65 458.253,1614.41 459.945,1613.15 C 460.333,1612.94 460.68,1612.72 461.032,1612.45 C 461.295,1612.24 461.729,1611.99 461.993,1611.9 C 462.367,1611.76 462.621,1611.6 463.131,1611.18 C 463.644,1610.77 463.888,1610.61 464.231,1610.5 C 464.472,1610.41 465.336,1609.93 466.152,1609.41 C 467.46,1608.59 468.784,1607.81 470.272,1607.35 C 470.816,1607.19 471.705,1606.81 472.252,1606.51 C 473.552,1605.81 474.859,1605.38 476.34,1605.71 C 477.185,1605.89 477.871,1606.13 478.644,1606.52 C 479.235,1606.81 479.82,1607.07 480.471,1607.18 C 479.863,1606.54 479.255,1605.89 478.644,1605.24 L 478.644,1605.06 C 478.644,1604.88 478.644,1604.88 478.644,1604.88 C 486.057,1612.02 486.057,1612.02 486.333,1612.84 Z "/>
		<path id="dp_path045" fill="#fefefe" fill-rule="evenodd" stroke="none" stroke-width="0" d="M 516.535,1594.18 L 515.133,1594.18 C 513.928,1593.87 512.677,1593.98 511.445,1594.06 C 507.988,1594.27 504.547,1594.57 501.131,1595.13 C 498.551,1595.57 496,1596.11 493.441,1596.65 C 492.455,1597 491.467,1597.36 490.48,1597.71 C 488.548,1598.2 486.643,1598.74 484.744,1599.34 C 483.999,1599.58 483.249,1599.76 482.488,1599.95 L 482.488,1600.08 C 482.488,1600.21 482.488,1600.21 482.488,1600.21 C 482.764,1600.21 483.312,1600.21 483.6,1600.2 L 484.712,1600.19 C 490.196,1599.53 495.665,1598.83 501.131,1598.05 C 503.943,1597.8 506.731,1597.56 509.52,1597.12 C 512.115,1596.7 514.839,1596.34 517.244,1595.23 L 517.312,1594.98 C 517.351,1594.85 516.999,1594.48 516.535,1594.18 Z "/>
		<path id="dp_path046" fill="#fefefe" fill-rule="evenodd" stroke="none" stroke-width="0" d="M 417.416,1688.9 C 416.611,1688.61 416.476,1688.65 415.489,1689.55 C 413.371,1691.48 411.191,1693.38 408.891,1695.09 C 407.952,1695.79 407.035,1696.23 405.915,1696.59 L 406.736,1695.75 C 409.131,1693.31 411.147,1690.5 413.271,1687.83 C 414.321,1686.52 415.423,1685.27 416.745,1684.22 C 416.868,1683.96 417.143,1683.68 417.416,1683.68 L 420.164,1686.43 Z "/>
		<path id="dp_path047" fill="#fefefe" fill-rule="evenodd" stroke="none" stroke-width="0" d="M 476.723,1602.96 C 475.6,1602.96 474.493,1603.62 473.457,1604.03 C 470.896,1605.19 468.455,1606.51 466.013,1607.9 C 465.383,1608.23 464.785,1608.57 464.231,1609.01 C 463.745,1609.41 463.273,1609.65 462.691,1609.85 C 462.252,1610.29 461.813,1610.73 461.375,1611.17 L 461.087,1611.32 C 460.503,1611.63 459.969,1612.03 459.44,1612.42 C 459.075,1612.69 458.74,1612.83 458.297,1612.87 C 457.859,1613.31 457.421,1613.75 456.983,1614.19 C 456.781,1614.21 456.577,1614.23 456.376,1614.25 C 455.887,1614.74 455.399,1615.23 454.909,1615.71 C 454.759,1615.87 454.483,1616.14 454.483,1616.14 C 454.483,1616.14 454.483,1616.14 454.648,1616.14 C 454.745,1616.14 455.025,1615.97 455.335,1615.73 C 455.975,1615.22 456.649,1614.8 457.228,1614.22 L 457.749,1613.7 C 458.192,1613.66 458.524,1613.51 458.891,1613.24 C 460.024,1612.4 461.223,1611.55 462.475,1610.89 C 463.072,1610.3 463.597,1609.68 464.353,1609.29 C 464.779,1609.07 465.192,1608.84 465.603,1608.59 C 468.057,1607.12 470.56,1605.73 473.181,1604.58 Z "/>
		<path id="dp_path048" fill="#fefefe" fill-rule="evenodd" stroke="none" stroke-width="0" d="M 420.712,1666.11 C 420.799,1666.43 423.033,1668.85 425.675,1671.49 L 430.476,1676.27 C 431.98,1674.72 433.459,1673.13 434.991,1671.6 C 434.991,1671.6 434.715,1671.6 434.791,1671.6 L 434.593,1671.6 C 433.215,1672.97 431.839,1674.34 430.46,1675.71 Z "/>
		<path id="dp_path049" fill="#fefefe" fill-rule="evenodd" stroke="none" stroke-width="0" d="M 426.477,1647.44 C 425.987,1647.93 425.501,1648.53 425.255,1649.19 C 425.116,1649.56 424.956,1649.81 424.541,1650.32 C 424.124,1650.83 423.973,1651.08 423.855,1651.42 C 423.599,1652.17 423.063,1652.83 422.633,1653.48 C 420.824,1656.65 419.117,1659.86 417.416,1663.09 L 417.692,1663.23 C 417.692,1663.37 417.967,1663.37 417.967,1663.37 C 417.967,1663.37 417.967,1663.09 417.967,1663.11 C 417.967,1662.97 418.528,1661.72 419.216,1660.35 C 420.015,1658.75 420.868,1657.19 421.809,1655.68 C 422.309,1654.8 422.803,1653.93 423.319,1653.07 C 423.853,1652.18 424.616,1651.3 424.952,1650.32 C 425.071,1649.98 425.224,1649.74 425.639,1649.23 C 425.933,1648.86 426.311,1648.06 426.477,1647.44 Z "/>
		<path id="dp_path050" fill="#fefefe" fill-rule="evenodd" stroke="none" stroke-width="0" d="M 458.6,1687.8 C 458.925,1687.43 459.187,1687.23 459.632,1687.01 C 460.553,1686.55 461.424,1686 462.307,1685.47 C 462.9,1685.11 463.507,1684.79 464.12,1684.48 C 464.559,1684.04 465,1683.6 465.437,1683.16 C 467.251,1682.21 469.024,1680.94 470.668,1679.71 C 471.176,1679.34 471.737,1679.05 472.3,1678.77 L 472.453,1678.76 C 472.604,1678.74 472.604,1678.74 472.604,1678.74 C 472.604,1678.74 472.604,1678.74 472.591,1678.76 C 472.145,1679.2 471.703,1679.64 471.26,1680.09 C 470.817,1680.13 470.483,1680.27 470.119,1680.54 C 468.984,1681.38 467.787,1682.23 466.535,1682.89 C 466.096,1683.33 465.659,1683.77 465.22,1684.2 C 464.637,1684.4 464.165,1684.65 463.68,1685.04 C 463.127,1685.49 462.528,1685.83 461.896,1686.15 C 461.356,1686.51 460.816,1686.87 460.279,1687.22 Z "/>
		<path id="dp_path051" fill="#fefefe" fill-rule="evenodd" stroke="none" stroke-width="0" d="M 456.68,1688.9 C 456.131,1689.17 455.307,1689.45 454.881,1689.74 L 453.081,1690.57 C 451.331,1691.49 449.581,1692.41 447.832,1693.32 L 446.521,1691.92 L 446.245,1691.64 L 445.697,1691.92 C 446.352,1692.57 447.051,1693.17 447.752,1693.77 C 449.537,1692.88 451.323,1691.99 453.111,1691.1 C 454.301,1690.46 455.489,1689.81 456.68,1689.17 L 456.68,1689.04 C 456.68,1688.9 456.68,1688.9 456.68,1688.9 Z "/>
		<path id="dp_path052" fill="#fefefe" fill-rule="evenodd" stroke="none" stroke-width="0" d="M 506.375,1633.44 C 498.688,1625.75 498.688,1625.75 498.688,1625.47 C 506.101,1632.61 506.101,1632.61 506.375,1633.44 Z "/>
		<path id="dp_path053" fill="#fefefe" fill-rule="evenodd" stroke="none" stroke-width="0" d="M 496.492,1623.28 C 488.803,1615.59 488.803,1615.59 488.803,1615.32 C 496.216,1622.45 496.216,1622.45 496.492,1623.28 Z "/>
		<path id="dp_path054" fill="#fefefe" fill-rule="evenodd" stroke="none" stroke-width="0" d="M 438.284,1668.31 L 445.697,1660.89 L 445.697,1661.17 C 439.108,1668.03 439.108,1668.03 438.284,1668.31 Z "/>
		<path id="dp_path055" fill="#fefefe" fill-rule="evenodd" stroke="none" stroke-width="0" d="M 505.001,1643.32 C 505.633,1641.67 506.364,1640.17 507.213,1638.62 C 508.045,1637.11 508.571,1636.05 508.571,1635.89 C 508.571,1635.91 508.571,1635.63 508.571,1635.63 C 508.571,1635.63 508.847,1635.63 508.847,1635.77 L 509.121,1635.91 C 508.207,1637.65 507.292,1639.39 506.375,1641.13 C 506.055,1641.86 505.749,1642.91 505.001,1643.32 Z "/>
		<path id="dp_path056" fill="#fefefe" fill-rule="evenodd" stroke="none" stroke-width="0" d="M 483.037,1670.23 C 487.431,1665.83 487.431,1665.83 487.705,1665.83 C 483.861,1669.95 483.861,1669.95 483.037,1670.23 Z "/>
		<path id="dp_path057" fill="#fefefe" fill-rule="evenodd" stroke="none" stroke-width="0" d="M 501.981,1648.26 C 502.149,1647.65 502.525,1646.84 502.82,1646.48 C 503.237,1645.97 503.388,1645.72 503.507,1645.38 C 503.761,1644.65 504.296,1643.99 504.729,1643.35 L 504.729,1643.61 C 504.729,1643.6 504.729,1643.87 504.729,1643.87 C 504.729,1643.87 504.729,1644.15 504.576,1644.3 C 504.089,1645.66 503.011,1647.24 501.981,1648.26 Z "/>
		<path id="dp_path058" fill="#fefefe" fill-rule="evenodd" stroke="none" stroke-width="0" d="M 442.401,1627.12 C 439.656,1629.87 439.656,1629.87 439.656,1630.14 C 442.128,1627.95 442.128,1627.95 442.401,1627.12 Z "/>
		<path id="dp_path059" fill="#fefefe" fill-rule="evenodd" stroke="none" stroke-width="0" d="M 449.267,1620.53 C 448.443,1620.81 448.443,1620.81 446.521,1623.01 C 446.795,1623.01 446.795,1623.01 449.267,1620.53 Z "/>
		<path id="dp_path060" fill="#fefefe" fill-rule="evenodd" stroke="none" stroke-width="0" d="M 430.595,1641.4 C 429.971,1642.03 429.453,1642.71 428.949,1643.44 C 428.799,1643.66 428.673,1643.91 428.673,1643.99 C 428.673,1644.15 428.673,1644.15 428.673,1644.15 C 428.673,1644.15 428.949,1644.15 428.895,1644.04 L 429.115,1643.93 C 429.227,1643.41 429.447,1643.05 429.785,1642.64 C 430.176,1642.16 430.396,1641.82 430.595,1641.4 Z "/>
		<path id="dp_path061" fill="#fefefe" fill-rule="evenodd" stroke="none" stroke-width="0" d="M 498.963,1652.66 C 499.163,1652.24 499.383,1651.9 499.772,1651.42 C 500.111,1651 500.332,1650.65 500.444,1650.13 L 500.664,1650.02 C 500.609,1649.91 500.884,1649.91 500.884,1649.91 C 500.884,1649.91 500.884,1649.91 500.884,1650.07 C 500.884,1650.15 500.76,1650.4 500.609,1650.61 C 500.105,1651.34 499.588,1652.03 498.963,1652.66 Z "/>
		<path id="dp_path062" fill="#fefefe" fill-rule="evenodd" stroke="none" stroke-width="0" d="M 474.8,1677.09 C 475.285,1676.61 475.769,1676.14 476.297,1675.71 C 476.789,1675.3 476.981,1675.17 477.107,1675.17 C 477.272,1675.17 477.272,1675.17 477.272,1675.17 C 477.272,1675.17 476.996,1675.45 476.845,1675.6 C 476.248,1676.19 475.567,1676.73 474.8,1677.09 Z "/>
		<path id="dp_path063" fill="#fefefe" fill-rule="evenodd" stroke="none" stroke-width="0" d="M 480.568,1672.43 C 482.488,1670.5 482.488,1670.5 482.764,1670.5 C 481.389,1672.15 481.389,1672.15 480.568,1672.43 Z "/>
		<path id="dp_path064" fill="#fefefe" fill-rule="evenodd" stroke="none" stroke-width="0" d="M 435.812,1681.49 C 436.087,1682.31 436.087,1682.31 437.735,1683.68 C 437.735,1683.41 437.735,1683.41 437.735,1683.13 Z "/>
		<path id="dp_path065" fill="#fefefe" fill-rule="evenodd" stroke="none" stroke-width="0" d="M 433.067,1638.11 C 432.624,1638.55 432.199,1638.98 431.817,1639.48 C 431.599,1639.76 431.419,1640.06 431.419,1640.15 C 431.419,1640.3 431.419,1640.3 431.419,1640.3 C 431.419,1640.3 431.695,1640.03 431.955,1639.77 C 432.493,1639.23 432.851,1638.85 433.067,1638.11 Z "/>
		<path id="dp_path066" fill="#fefefe" fill-rule="evenodd" stroke="none" stroke-width="0" d="M 489.901,1663.64 C 489.901,1663.37 489.901,1663.37 491.549,1661.72 C 491.549,1661.99 491.549,1661.99 489.901,1663.64 Z "/>
		<path id="dp_path067" fill="#fefefe" fill-rule="evenodd" stroke="none" stroke-width="0" d="M 439.383,1630.42 C 437.735,1632.06 437.735,1632.06 437.735,1632.34 C 439.108,1631.24 439.108,1631.24 439.383,1630.42 Z "/>
		<path id="dp_path068" fill="#fefefe" fill-rule="evenodd" stroke="none" stroke-width="0" d="M 451.463,1618.61 C 450.639,1618.89 450.639,1618.89 449.541,1620.26 C 449.815,1620.26 449.815,1620.26 451.463,1618.61 Z "/>
		<path id="dp_path069" fill="#fefefe" fill-rule="evenodd" stroke="none" stroke-width="0" d="M 492.099,1661.17 C 492.372,1660.35 492.372,1660.35 493.747,1659.25 C 493.747,1659.52 493.747,1659.52 492.099,1661.17 Z "/>
		<path id="dp_path070" fill="#fefefe" fill-rule="evenodd" stroke="none" stroke-width="0" d="M 436.087,1679.29 C 435.716,1679.4 434.251,1680.2 434.945,1680.71 C 434.991,1680.66 435.263,1680.94 435.263,1680.94 C 435.263,1680.39 435.263,1680.39 436.087,1679.29 Z "/>
		<g id="dp_dp071" clip-path="url(#clip_dp_001)">
			<g id="clip">
				<path id="dp_path072" fill="#d7dfff" stroke="none" stroke-width="0" d="M 384.725,1580.85 C 384.636,1580.34 384.415,1579.91 384.06,1579.56 C 383.273,1578.77 382.361,1578.6 381.323,1579.06 C 378.535,1580.35 375.644,1581 372.653,1581 C 368.903,1581 365.443,1580.07 362.275,1578.22 C 359.105,1576.37 356.596,1573.86 354.747,1570.7 C 352.895,1567.53 351.971,1564.07 351.971,1560.32 C 351.971,1557.4 352.548,1554.63 353.7,1552.01 C 354.853,1549.39 356.52,1547.08 358.7,1545.11 C 359.536,1544.32 359.727,1543.41 359.271,1542.37 C 358.84,1541.33 358.067,1540.84 356.952,1540.89 C 353.073,1541.04 349.399,1541.91 345.925,1543.49 C 342.453,1545.07 339.468,1547.16 336.972,1549.75 C 334.475,1552.33 332.497,1555.39 331.04,1558.93 C 329.583,1562.46 328.853,1566.17 328.853,1570.05 C 328.853,1574 329.627,1577.78 331.173,1581.38 C 332.72,1584.98 334.797,1588.08 337.408,1590.69 C 340.02,1593.31 343.124,1595.38 346.724,1596.93 C 350.324,1598.48 354.1,1599.25 358.055,1599.25 C 363.732,1599.25 368.972,1597.71 373.775,1594.63 C 378.579,1591.55 382.172,1587.44 384.555,1582.29 C 384.757,1581.84 384.815,1581.35 384.725,1580.85 Z M 368.453,1592.04 C 365.169,1593.6 361.704,1594.38 358.055,1594.38 C 354.759,1594.38 351.609,1593.74 348.605,1592.44 C 345.603,1591.15 343.016,1589.42 340.849,1587.25 C 338.683,1585.09 336.952,1582.5 335.66,1579.5 C 334.367,1576.49 333.72,1573.35 333.72,1570.05 C 333.72,1564.6 335.336,1559.73 338.568,1555.45 C 341.8,1551.17 345.964,1548.26 351.057,1546.74 C 348.423,1550.93 347.104,1555.45 347.104,1560.32 C 347.104,1564.93 348.244,1569.2 350.525,1573.13 C 352.807,1577.06 355.912,1580.16 359.84,1582.45 C 363.769,1584.73 368.04,1585.87 372.653,1585.87 C 374.073,1585.87 375.467,1585.75 376.836,1585.53 C 374.529,1588.31 371.735,1590.49 368.453,1592.04 Z "/>
			</g>
		</g>
	</g>
</svg>