<?xml version="1.0" encoding="UTF-8" standalone="no"?>
<svg version="1.1" xmlns="http://www.w3.org/2000/svg" xmlns:xlink="http://www.w3.org/1999/xlink" width="361.847" height="302.769">
	<g id="dp_dp001" transform="matrix(1,0,0,1,-1258.66,-3783.63)">
		<path id="dp_path002" fill="#a7cfe8" stroke="none" stroke-width="0" d="M 1578.5,4052.8 L 1545.85,4052.8 C 1536.55,4052.8 1529.02,4045.27 1529.02,4035.97 C 1529.02,4026.68 1536.55,4019.15 1545.85,4019.15 L 1557.07,4019.15 C 1566.37,4019.15 1573.91,4011.62 1573.91,4002.33 S 1566.37,3985.5 1557.07,3985.5 L 1489.74,3985.5 C 1480.44,3985.5 1472.91,3977.98 1472.91,3968.68 C 1472.91,3959.38 1480.44,3951.86 1489.74,3951.86 L 1602.98,3951.86 C 1612.28,3951.86 1619.82,3944.33 1619.82,3935.04 S 1612.28,3918.21 1602.98,3918.21 L 1522.39,3918.21 C 1513.09,3918.21 1505.55,3910.69 1505.55,3901.39 C 1505.55,3892.09 1513.09,3884.57 1522.39,3884.57 L 1552.99,3884.57 C 1562.29,3884.57 1569.83,3877.04 1569.83,3867.74 C 1569.83,3858.45 1562.29,3850.92 1552.99,3850.92 L 1485.66,3850.92 C 1476.37,3850.92 1468.83,3843.39 1468.83,3834.1 S 1476.37,3817.27 1485.66,3817.27 L 1495.86,3817.27 C 1505.16,3817.27 1512.7,3809.75 1512.7,3800.45 C 1512.7,3791.15 1505.16,3783.63 1495.86,3783.63 L 1393.84,3783.63 C 1384.55,3783.63 1377.01,3791.15 1377.01,3800.45 C 1377.01,3809.75 1384.55,3817.27 1393.84,3817.27 L 1399.96,3817.27 C 1409.26,3817.27 1416.8,3824.8 1416.8,3834.1 S 1409.26,3850.92 1399.96,3850.92 L 1388.74,3850.92 C 1379.44,3850.92 1371.91,3858.45 1371.91,3867.74 C 1371.91,3877.04 1379.44,3884.57 1388.74,3884.57 L 1386.7,3884.57 C 1396,3884.57 1403.53,3892.09 1403.53,3901.39 C 1403.53,3910.69 1396,3918.21 1386.7,3918.21 L 1275.5,3918.21 C 1266.2,3918.21 1258.66,3925.74 1258.66,3935.04 S 1266.2,3951.86 1275.5,3951.86 L 1304.06,3951.86 C 1313.36,3951.86 1320.89,3959.38 1320.89,3968.68 C 1320.89,3977.98 1313.36,3985.5 1304.06,3985.5 L 1299.98,3985.5 C 1290.68,3985.5 1283.15,3993.03 1283.15,4002.33 S 1290.68,4019.15 1299.98,4019.15 L 1376.49,4019.15 C 1385.79,4019.15 1393.33,4026.68 1393.33,4035.97 C 1393.33,4045.27 1385.79,4052.8 1376.49,4052.8 L 1337.73,4052.8 C 1328.43,4052.8 1320.89,4060.32 1320.89,4069.62 C 1320.89,4078.92 1328.43,4086.44 1337.73,4086.44 L 1578.48,4086.44 C 1587.78,4086.44 1595.32,4078.92 1595.32,4069.62 C 1595.32,4060.32 1587.78,4052.8 1578.48,4052.8 Z "/>
		<path id="dp_path003" fill="#305d8a" stroke="none" stroke-width="0" d="M 1282.03,3956.94 C 1281.83,3956.94 1281.63,3956.87 1281.46,3956.74 L 1278.65,3954.56 C 1278.46,3954.41 1278.33,3954.18 1278.3,3953.92 C 1278.27,3953.67 1278.35,3953.42 1278.51,3953.23 L 1308.21,3917.23 C 1308.37,3917.03 1308.61,3916.91 1308.86,3916.89 S 1309.37,3916.96 1309.56,3917.13 L 1312.27,3919.61 C 1312.64,3919.94 1312.68,3920.51 1312.36,3920.89 L 1282.75,3956.6 C 1282.57,3956.82 1282.3,3956.94 1282.03,3956.94 Z M 1280.56,3953.67 L 1281.89,3954.71 L 1310.36,3920.39 L 1309.03,3919.18 L 1280.56,3953.68 Z "/>
		<path id="dp_path004" fill="#305d8a" stroke="none" stroke-width="0" d="M 1301.19,4001.4 L 1297.46,4001.4 C 1297.11,4001.4 1296.79,4001.21 1296.62,4000.89 L 1279.04,3966.7 C 1278.81,3966.25 1278.98,3965.7 1279.42,3965.45 L 1282.4,3963.82 C 1282.63,3963.7 1282.89,3963.67 1283.13,3963.75 C 1283.37,3963.82 1283.57,3963.99 1283.69,3964.21 L 1302.03,4000.04 C 1302.17,4000.33 1302.16,4000.68 1301.99,4000.95 C 1301.82,4001.23 1301.52,4001.4 1301.19,4001.4 Z M 1298.03,3999.53 L 1299.67,3999.53 L 1282.46,3965.92 L 1281.12,3966.66 L 1298.03,3999.53 Z "/>
		<path id="dp_path005" fill="#9db6c9" stroke="none" stroke-width="0" d="M 1309.26,3890.12 C 1311.27,3892.13 1311.27,3895.38 1309.26,3897.39 C 1307.25,3899.39 1304,3899.39 1301.99,3897.39 C 1299.98,3895.38 1299.98,3892.13 1301.99,3890.12 C 1304,3888.11 1307.25,3888.11 1309.26,3890.12 Z "/>
		<path id="dp_path006" fill="#305d8a" stroke="none" stroke-width="0" d="M 1305.62,3899.83 C 1304,3899.83 1302.47,3899.2 1301.33,3898.05 C 1298.96,3895.68 1298.96,3891.83 1301.33,3889.46 C 1302.47,3888.31 1304,3887.68 1305.62,3887.68 S 1308.77,3888.31 1309.92,3889.46 C 1312.29,3891.83 1312.29,3895.68 1309.92,3898.05 C 1308.77,3899.2 1307.25,3899.83 1305.62,3899.83 Z M 1305.62,3889.55 C 1304.5,3889.55 1303.44,3889.99 1302.65,3890.78 C 1301.01,3892.42 1301.01,3895.09 1302.65,3896.73 C 1303.44,3897.52 1304.5,3897.96 1305.62,3897.96 C 1306.75,3897.96 1307.8,3897.52 1308.6,3896.73 C 1310.24,3895.09 1310.24,3892.42 1308.6,3890.78 C 1307.8,3889.99 1306.75,3889.55 1305.62,3889.55 Z "/>
		<path id="dp_path007" fill="white" stroke="none" stroke-width="0" d="M 1337.78,3913.14 C 1341.31,3916.67 1341.31,3922.39 1337.78,3925.92 C 1334.26,3929.44 1328.54,3929.44 1325.01,3925.92 C 1321.48,3922.39 1321.48,3916.67 1325.01,3913.14 C 1328.54,3909.61 1334.26,3909.61 1337.78,3913.14 Z "/>
		<path id="dp_path008" fill="#305d8a" stroke="none" stroke-width="0" d="M 1331.4,3929.49 C 1328.73,3929.49 1326.23,3928.46 1324.35,3926.57 C 1320.46,3922.69 1320.46,3916.37 1324.35,3912.48 C 1326.23,3910.6 1328.73,3909.56 1331.4,3909.56 C 1334.06,3909.56 1336.56,3910.6 1338.45,3912.48 C 1342.33,3916.37 1342.33,3922.69 1338.45,3926.57 C 1336.56,3928.46 1334.06,3929.49 1331.4,3929.49 Z M 1331.4,3911.43 C 1329.23,3911.43 1327.2,3912.27 1325.67,3913.8 C 1322.51,3916.96 1322.51,3922.1 1325.67,3925.25 C 1327.2,3926.78 1329.23,3927.63 1331.4,3927.63 S 1335.59,3926.78 1337.12,3925.25 C 1340.28,3922.1 1340.28,3916.96 1337.12,3913.8 C 1335.59,3912.27 1333.56,3911.43 1331.4,3911.43 Z "/>
		<path id="dp_path009" fill="#9db6c9" fill-rule="evenodd" stroke="none" stroke-width="0" d="M 1298.02,3899.37 L 1311.24,3886.15 L 1315.87,3890.77 L 1302.65,3903.99 Z "/>
		<path id="dp_path010" fill="#305d8a" stroke="none" stroke-width="0" d="M 1302.65,3904.93 C 1302.41,3904.93 1302.17,3904.84 1301.99,3904.66 L 1297.36,3900.03 C 1297,3899.67 1297,3899.08 1297.36,3898.71 L 1310.58,3885.49 C 1310.76,3885.32 1310.99,3885.22 1311.24,3885.22 C 1311.49,3885.22 1311.73,3885.32 1311.9,3885.49 L 1316.53,3890.12 C 1316.89,3890.49 1316.89,3891.08 1316.53,3891.44 L 1303.31,3904.66 C 1303.13,3904.84 1302.89,3904.93 1302.65,3904.93 Z M 1299.35,3899.37 L 1302.65,3902.68 L 1314.55,3890.78 L 1311.24,3887.48 Z "/>
		<path id="dp_path011" fill="#305d8a" stroke="none" stroke-width="0" d="M 1322.47,3935.04 L 1322.43,3935.04 C 1322.17,3935.04 1321.92,3935.05 1321.75,3934.85 L 1297.3,3905.18 C 1296.99,3904.81 1297.02,3904.3 1297.36,3903.96 L 1315.87,3885.47 C 1316.21,3885.13 1316.75,3885.12 1317.12,3885.42 L 1346.86,3909.88 C 1347.06,3910.05 1347.19,3910.29 1347.2,3910.56 C 1347.21,3910.82 1347.11,3911.08 1346.93,3911.27 L 1323.14,3934.91 C 1322.96,3935.09 1322.72,3935.04 1322.48,3935.04 Z M 1299.28,3904.72 L 1322.54,3933.01 L 1344.88,3910.67 L 1316.59,3887.41 L 1299.28,3904.72 Z "/>
		<path id="dp_path012" fill="#9db6c9" fill-rule="evenodd" fill-opacity="0.2" stroke="none" stroke-width="0" d="M 1305.29,3893.43 L 1311.24,3887.48 L 1312.56,3888.8 L 1306.61,3894.75 Z "/>
		<path id="dp_path013" fill="#9db6c9" fill-opacity="0.2" stroke="none" stroke-width="0" d="M 1306.39,3889.68 C 1306.39,3889.68 1303.69,3888.95 1301.82,3891.76 C 1301.82,3891.76 1303.25,3891.5 1303.97,3892.1 Z "/>
		<path id="dp_path014" fill="#9db6c9" stroke="none" stroke-width="0" d="M 1286.44,3959.62 C 1286.44,3963.29 1283.47,3966.26 1279.8,3966.26 S 1273.16,3963.29 1273.16,3959.62 C 1273.16,3955.95 1276.13,3952.98 1279.8,3952.98 S 1286.44,3955.95 1286.44,3959.62 Z "/>
		<path id="dp_path015" fill="#305d8a" stroke="none" stroke-width="0" d="M 1279.8,3967.21 C 1275.62,3967.21 1272.22,3963.81 1272.22,3959.63 C 1272.22,3955.45 1275.62,3952.05 1279.8,3952.05 S 1287.38,3955.45 1287.38,3959.63 C 1287.38,3963.81 1283.98,3967.21 1279.8,3967.21 Z M 1279.8,3953.92 C 1276.65,3953.92 1274.09,3956.48 1274.09,3959.63 C 1274.09,3962.78 1276.65,3965.34 1279.8,3965.34 S 1285.51,3962.78 1285.51,3959.63 C 1285.51,3956.48 1282.95,3953.92 1279.8,3953.92 Z "/>
		<path id="dp_path016" fill="#9db6c9" fill-opacity="0.2" stroke="none" stroke-width="0" d="M 1279.7,3953.93 L 1279.7,3965.34 C 1282.5,3965.34 1285.41,3962.79 1285.41,3959.64 C 1285.41,3956.48 1282.5,3953.93 1279.7,3953.93 Z "/>
		<path id="dp_path017" fill="#9db6c9" stroke="none" stroke-width="0" d="M 1282.85,3959.62 C 1282.85,3961.31 1281.49,3962.67 1279.8,3962.67 S 1276.75,3961.31 1276.75,3959.62 C 1276.75,3957.93 1278.11,3956.57 1279.8,3956.57 S 1282.85,3957.93 1282.85,3959.62 Z "/>
		<path id="dp_path018" fill="#305d8a" stroke="none" stroke-width="0" d="M 1279.8,3963.61 C 1277.6,3963.61 1275.81,3961.82 1275.81,3959.63 C 1275.81,3957.43 1277.6,3955.64 1279.8,3955.64 C 1282,3955.64 1283.79,3957.43 1283.79,3959.63 C 1283.79,3961.82 1282,3963.61 1279.8,3963.61 Z M 1279.8,3957.51 C 1278.63,3957.51 1277.68,3958.46 1277.68,3959.63 C 1277.68,3960.79 1278.63,3961.74 1279.8,3961.74 S 1281.92,3960.79 1281.92,3959.63 C 1281.92,3958.46 1280.97,3957.51 1279.8,3957.51 Z "/>
		<path id="dp_path019" fill="#9db6c9" stroke="none" stroke-width="0" d="M 1319.53,4020.1 C 1319.76,4018.94 1319.89,4017.75 1319.89,4016.53 C 1319.89,4006.37 1311.65,3998.13 1301.49,3998.13 S 1283.09,4006.37 1283.09,4016.53 C 1283.09,4017.75 1283.22,4018.94 1283.44,4020.1 L 1319.53,4020.1 Z "/>
		<path id="dp_path020" fill="#305d8a" stroke="none" stroke-width="0" d="M 1319.53,4021.03 L 1283.44,4021.03 C 1283,4021.03 1282.61,4020.71 1282.53,4020.28 C 1282.28,4019.03 1282.16,4017.77 1282.16,4016.53 C 1282.16,4005.87 1290.83,3997.2 1301.49,3997.2 S 1320.82,4005.87 1320.82,4016.53 C 1320.82,4017.76 1320.7,4019.02 1320.45,4020.28 C 1320.37,4020.71 1319.98,4021.03 1319.53,4021.03 Z M 1284.23,4019.16 L 1318.75,4019.16 C 1318.88,4018.28 1318.95,4017.4 1318.95,4016.53 C 1318.95,4006.9 1311.12,3999.07 1301.49,3999.07 C 1291.86,3999.07 1284.03,4006.9 1284.03,4016.53 C 1284.03,4017.4 1284.09,4018.28 1284.23,4019.16 Z "/>
		<path id="dp_path021" fill="#9db6c9" fill-opacity="0.2" stroke="none" stroke-width="0" d="M 1301.49,3998.13 C 1298.39,3998.13 1295.47,3998.91 1292.9,4000.26 C 1293.87,4000.11 1294.87,4000 1295.88,4000 C 1306.04,4000 1314.28,4008.24 1314.28,4018.4 C 1314.28,4018.97 1314.25,4019.54 1314.19,4020.1 L 1319.53,4020.1 C 1319.76,4018.94 1319.89,4017.75 1319.89,4016.53 C 1319.89,4006.37 1311.65,3998.13 1301.49,3998.13 Z "/>
		<path id="dp_path022" fill="#afddb5" stroke="none" stroke-width="0" d="M 1576.4,3921.7 C 1574.74,3924.97 1571.09,3926.45 1568.24,3925.01 C 1565.39,3923.57 1564.42,3919.75 1566.08,3916.48 C 1567.73,3913.21 1571.38,3911.73 1574.23,3913.17 C 1577.08,3914.61 1578.05,3918.43 1576.4,3921.7 Z "/>
		<path id="dp_path023" fill="#305d8a" stroke="none" stroke-width="0" d="M 1570.56,3926.49 C 1569.59,3926.49 1568.66,3926.27 1567.8,3925.84 C 1566.18,3925.02 1565.03,3923.53 1564.55,3921.66 C 1564.09,3919.83 1564.33,3917.84 1565.23,3916.05 C 1566.57,3913.4 1569.18,3911.68 1571.88,3911.68 C 1572.86,3911.68 1573.78,3911.9 1574.64,3912.33 C 1577.94,3914.01 1579.1,3918.4 1577.22,3922.12 C 1575.87,3924.78 1573.26,3926.49 1570.56,3926.49 Z M 1571.88,3913.55 C 1569.88,3913.55 1567.93,3914.87 1566.9,3916.9 C 1566.2,3918.28 1566.01,3919.8 1566.36,3921.2 C 1566.7,3922.54 1567.52,3923.6 1568.65,3924.17 C 1569.24,3924.47 1569.89,3924.62 1570.56,3924.62 C 1572.56,3924.62 1574.52,3923.31 1575.55,3921.28 C 1576.97,3918.47 1576.18,3915.21 1573.8,3914 C 1573.2,3913.7 1572.56,3913.55 1571.88,3913.55 Z "/>
		<path id="dp_path024" fill="#9db6c9" fill-opacity="0.380392" stroke="none" stroke-width="0" d="M 1574.23,3913.17 C 1574.11,3913.11 1573.99,3913.06 1573.87,3913.01 C 1574.62,3914.75 1574.59,3916.92 1573.59,3918.9 C 1572,3922.03 1568.58,3923.51 1565.79,3922.36 C 1566.28,3923.49 1567.11,3924.44 1568.24,3925.01 C 1571.09,3926.45 1574.74,3924.97 1576.39,3921.7 C 1578.05,3918.43 1577.08,3914.61 1574.23,3913.17 Z "/>
		<path id="dp_path025" fill="#afddb5" stroke="none" stroke-width="0" d="M 1571.29,3924.5 C 1575.07,3931.71 1573.07,3940.22 1566.81,3943.5 C 1560.55,3946.78 1552.41,3943.6 1548.63,3936.39 C 1544.85,3929.18 1546.85,3920.67 1553.11,3917.39 C 1559.36,3914.11 1567.5,3917.29 1571.29,3924.5 Z "/>
		<path id="dp_path026" fill="#305d8a" stroke="none" stroke-width="0" d="M 1561.53,3945.73 C 1556.04,3945.73 1550.66,3942.24 1547.83,3936.83 C 1545.89,3933.14 1545.32,3929.02 1546.22,3925.21 C 1547.12,3921.35 1549.43,3918.28 1552.69,3916.57 C 1554.47,3915.64 1556.39,3915.17 1558.43,3915.17 C 1563.92,3915.17 1569.3,3918.66 1572.13,3924.07 C 1574.07,3927.76 1574.64,3931.89 1573.74,3935.69 C 1572.83,3939.55 1570.53,3942.62 1567.27,3944.33 C 1565.49,3945.26 1563.57,3945.73 1561.53,3945.73 Z M 1558.43,3917.04 C 1556.7,3917.04 1555.06,3917.44 1553.56,3918.22 C 1550.78,3919.68 1548.82,3922.32 1548.03,3925.64 C 1547.24,3929.01 1547.75,3932.67 1549.48,3935.96 C 1552,3940.76 1556.73,3943.87 1561.53,3943.87 C 1563.26,3943.87 1564.9,3943.47 1566.4,3942.68 C 1569.18,3941.22 1571.14,3938.59 1571.92,3935.27 C 1572.72,3931.9 1572.21,3928.23 1570.48,3924.94 C 1567.96,3920.14 1563.23,3917.04 1558.43,3917.04 Z "/>
		<path id="dp_path027" fill="#9db6c9" fill-opacity="0.380392" stroke="none" stroke-width="0" d="M 1571.29,3924.5 C 1567.5,3917.29 1559.36,3914.11 1553.11,3917.39 C 1552.87,3917.51 1552.65,3917.66 1552.43,3917.8 C 1557.74,3918.26 1562.73,3922.36 1564.67,3928.43 C 1566.71,3934.83 1564.71,3941.39 1560.19,3944.71 C 1562.45,3944.95 1564.73,3944.59 1566.81,3943.5 C 1573.07,3940.22 1575.07,3931.71 1571.29,3924.5 Z "/>
		<path id="dp_path028" fill="#afddb5" fill-rule="evenodd" stroke="none" stroke-width="0" d="M 1551.08,3956.83 C 1555.24,3958.23 1557.84,3961.64 1556.9,3964.45 C 1555.95,3967.26 1551.81,3968.41 1547.65,3967.01 C 1543.5,3965.61 1540.89,3962.2 1541.84,3959.39 C 1542.78,3956.57 1546.92,3955.43 1551.08,3956.83 Z "/>
		<path id="dp_path029" fill="#305d8a" stroke="none" stroke-width="0" d="M 1551.14,3968.54 C 1549.88,3968.54 1548.59,3968.32 1547.32,3967.89 C 1542.6,3966.31 1539.79,3962.44 1540.91,3959.08 C 1541.7,3956.74 1544.23,3955.29 1547.52,3955.29 C 1548.78,3955.29 1550.07,3955.51 1551.34,3955.93 C 1556.06,3957.52 1558.87,3961.39 1557.75,3964.74 C 1556.96,3967.08 1554.43,3968.54 1551.14,3968.54 Z M 1547.52,3957.16 C 1545.1,3957.16 1543.2,3958.15 1542.69,3959.68 C 1541.92,3961.96 1544.31,3964.91 1547.92,3966.12 C 1548.99,3966.48 1550.08,3966.67 1551.14,3966.67 C 1553.56,3966.67 1555.46,3965.68 1555.97,3964.15 C 1556.74,3961.87 1554.35,3958.92 1550.75,3957.71 C 1549.67,3957.34 1548.58,3957.16 1547.52,3957.16 Z "/>
		<path id="dp_path030" fill="#9db6c9" fill-opacity="0.380392" stroke="none" stroke-width="0" d="M 1551.05,3956.82 C 1546.89,3955.42 1542.75,3956.57 1541.81,3959.38 C 1541.68,3959.76 1541.62,3960.15 1541.62,3960.54 C 1543.4,3959.8 1545.82,3959.74 1548.25,3960.56 C 1551.85,3961.77 1554.28,3964.49 1554.25,3967.02 C 1555.52,3966.49 1556.47,3965.62 1556.87,3964.45 C 1557.81,3961.63 1555.21,3958.22 1551.05,3956.82 Z "/>
		<path id="dp_path031" fill="#afddb5" stroke="none" stroke-width="0" d="M 1599.71,3938.55 C 1601.62,3941.43 1599.7,3946.05 1595.44,3948.86 C 1591.17,3951.68 1586.17,3951.62 1584.27,3948.73 C 1582.36,3945.85 1584.28,3941.23 1588.54,3938.41 C 1592.81,3935.6 1597.81,3935.66 1599.71,3938.55 Z "/>
		<path id="dp_path032" fill="#305d8a" stroke="none" stroke-width="0" d="M 1589.07,3951.87 C 1586.59,3951.87 1584.61,3950.94 1583.49,3949.25 C 1581.31,3945.94 1583.35,3940.73 1588.03,3937.63 C 1590.21,3936.2 1592.66,3935.41 1594.92,3935.41 C 1597.4,3935.41 1599.38,3936.34 1600.5,3938.03 C 1602.68,3941.34 1600.64,3946.55 1595.95,3949.65 C 1593.78,3951.08 1591.33,3951.87 1589.07,3951.87 Z M 1594.92,3937.28 C 1593.02,3937.28 1590.94,3937.96 1589.06,3939.2 C 1585.3,3941.68 1583.46,3945.81 1585.05,3948.22 C 1585.81,3949.37 1587.24,3950 1589.07,3950 C 1590.97,3950 1593.05,3949.32 1594.93,3948.09 C 1598.69,3945.6 1600.53,3941.47 1598.94,3939.06 C 1598.18,3937.91 1596.75,3937.28 1594.92,3937.28 Z "/>
		<path id="dp_path033" fill="#9db6c9" fill-opacity="0.380392" stroke="none" stroke-width="0" d="M 1599.71,3938.55 C 1599.28,3937.89 1598.68,3937.39 1597.97,3937.02 C 1598.99,3940.27 1595.99,3944.19 1591.21,3945.83 C 1588.41,3946.78 1585.62,3946.74 1583.55,3945.9 C 1583.5,3946.93 1583.72,3947.91 1584.27,3948.73 C 1586.17,3951.62 1591.17,3951.68 1595.44,3948.86 C 1599.7,3946.05 1601.62,3941.43 1599.71,3938.55 Z "/>
		<path id="dp_path034" fill="#afddb5" fill-rule="evenodd" stroke="none" stroke-width="0" d="M 1571.31,3934.57 C 1582.67,3934.57 1591.87,3945.77 1591.87,3959.57 C 1591.87,3973.38 1582.67,3984.57 1571.31,3984.57 C 1559.95,3984.57 1550.75,3973.38 1550.75,3959.57 C 1550.75,3945.77 1559.95,3934.57 1571.31,3934.57 Z "/>
		<path id="dp_path035" fill="#305d8a" stroke="none" stroke-width="0" d="M 1571.31,3985.51 C 1559.46,3985.51 1549.81,3973.87 1549.81,3959.57 S 1559.45,3933.63 1571.31,3933.63 S 1592.81,3945.27 1592.81,3959.57 S 1583.16,3985.51 1571.31,3985.51 Z M 1571.31,3935.5 C 1560.49,3935.5 1551.68,3946.3 1551.68,3959.57 C 1551.68,3972.84 1560.49,3983.64 1571.31,3983.64 S 1590.94,3972.84 1590.94,3959.57 C 1590.94,3946.3 1582.13,3935.5 1571.31,3935.5 Z "/>
		<path id="dp_path036" fill="#9db6c9" fill-opacity="0.380392" stroke="none" stroke-width="0" d="M 1571.31,3934.58 C 1569.87,3934.58 1568.46,3934.76 1567.1,3935.1 C 1576.44,3937.46 1583.46,3947.52 1583.46,3959.58 S 1576.44,3981.69 1567.1,3984.05 C 1568.46,3984.4 1569.87,3984.58 1571.31,3984.58 C 1582.67,3984.58 1591.87,3973.38 1591.87,3959.58 S 1582.67,3934.58 1571.31,3934.58 Z "/>
		<path id="dp_path037" fill="#e4c6aa" stroke="none" stroke-width="0" d="M 1595.61,4014.8 C 1595.61,4017.72 1593.23,4020.1 1590.31,4020.1 L 1553.24,4020.1 C 1550.31,4020.1 1547.94,4017.72 1547.94,4014.8 L 1543.27,3980.53 C 1543.27,3977.61 1545.64,3975.23 1548.57,3975.23 L 1594.98,3975.23 C 1597.91,3975.23 1600.28,3977.61 1600.28,3980.53 L 1595.61,4014.8 Z "/>
		<path id="dp_path038" fill="#305d8a" stroke="none" stroke-width="0" d="M 1590.31,4021.03 L 1553.24,4021.03 C 1549.83,4021.03 1547.04,4018.27 1547.01,4014.86 L 1542.34,3980.66 C 1542.34,3980.62 1542.33,3980.57 1542.33,3980.53 C 1542.33,3977.09 1545.13,3974.3 1548.57,3974.3 L 1594.98,3974.3 C 1598.42,3974.3 1601.21,3977.09 1601.21,3980.53 C 1601.21,3980.57 1601.21,3980.62 1601.21,3980.66 L 1596.54,4014.86 C 1596.51,4018.27 1593.72,4021.03 1590.31,4021.03 Z M 1544.2,3980.47 L 1548.87,4014.67 C 1548.87,4014.71 1548.88,4014.75 1548.88,4014.8 C 1548.88,4017.2 1550.83,4019.16 1553.24,4019.16 L 1590.31,4019.16 C 1592.71,4019.16 1594.67,4017.2 1594.67,4014.8 C 1594.67,4014.75 1594.68,4014.71 1594.68,4014.67 L 1599.35,3980.47 C 1599.31,3978.09 1597.37,3976.17 1594.98,3976.17 L 1548.57,3976.17 C 1546.18,3976.17 1544.24,3978.09 1544.2,3980.47 Z "/>
		<path id="dp_path039" fill="#aa9e80" fill-opacity="0.380392" stroke="none" stroke-width="0" d="M 1594.98,3975.24 L 1590.3,3975.24 C 1593.23,3975.24 1595.6,3977.61 1595.6,3980.53 L 1590.93,4014.8 C 1590.93,4017.73 1588.56,4020.1 1585.63,4020.1 L 1590.3,4020.1 C 1593.23,4020.1 1595.6,4017.73 1595.6,4014.8 L 1600.28,3980.53 C 1600.28,3977.61 1597.9,3975.24 1594.98,3975.24 Z "/>
		<path id="dp_path040" fill="white" stroke="none" stroke-width="0" d="M 1532.98,4007.33 C 1532.98,4010.26 1530.61,4012.63 1527.69,4012.63 L 1356.03,4012.63 C 1353.11,4012.63 1350.73,4010.26 1350.73,4007.33 L 1350.73,3891.75 C 1350.73,3888.83 1353.11,3886.45 1356.03,3886.45 L 1527.69,3886.45 C 1530.61,3886.45 1532.98,3888.83 1532.98,3891.75 Z "/>
		<path id="dp_path041" fill="#305d8a" stroke="none" stroke-width="0" d="M 1527.69,4013.56 L 1356.03,4013.56 C 1352.6,4013.56 1349.8,4010.77 1349.8,4007.33 L 1349.8,3891.75 C 1349.8,3888.31 1352.6,3885.52 1356.03,3885.52 L 1527.69,3885.52 C 1531.12,3885.52 1533.92,3888.31 1533.92,3891.75 L 1533.92,4007.33 C 1533.92,4010.77 1531.12,4013.56 1527.69,4013.56 Z M 1356.03,3887.39 C 1353.63,3887.39 1351.67,3889.35 1351.67,3891.75 L 1351.67,4007.33 C 1351.67,4009.73 1353.63,4011.69 1356.03,4011.69 L 1527.69,4011.69 C 1530.09,4011.69 1532.05,4009.73 1532.05,4007.33 L 1532.05,3891.75 C 1532.05,3889.35 1530.09,3887.39 1527.69,3887.39 Z "/>
		<path id="dp_path042" fill="#9db6c9" fill-opacity="0.2" stroke="none" stroke-width="0" d="M 1526.75,3886.45 L 1525.04,3886.45 C 1527.36,3886.45 1529.25,3888.33 1529.25,3890.65 L 1529.25,4005.14 L 1532.05,4005.14 L 1532.05,3891.74 C 1532.05,3888.82 1529.68,3886.44 1526.75,3886.44 Z "/>
		<path id="dp_path043" fill="#9db6c9" fill-opacity="0.2" stroke="none" stroke-width="0" d="M 1521.76,3979.27 C 1521.76,3982.2 1519.38,3984.57 1516.46,3984.57 L 1367.24,3984.57 C 1364.31,3984.57 1361.94,3982.2 1361.94,3979.27 L 1361.94,3899.21 C 1361.94,3896.29 1364.31,3893.91 1367.24,3893.91 L 1516.46,3893.91 C 1519.38,3893.91 1521.76,3896.29 1521.76,3899.21 Z "/>
		<path id="dp_path044" fill="#efefef" stroke="none" stroke-width="0" d="M 1521.76,4005.44 C 1521.76,4008.37 1519.38,4010.74 1516.46,4010.74 L 1367.24,4010.74 C 1364.31,4010.74 1361.94,4008.37 1361.94,4005.44 L 1361.94,3902.01 C 1361.94,3899.09 1364.31,3896.71 1367.24,3896.71 L 1516.46,3896.71 C 1519.38,3896.71 1521.76,3899.09 1521.76,3902.01 Z "/>
		<path id="dp_path045" fill="#305d8a" stroke="none" stroke-width="0" d="M 1516.46,4011.69 L 1367.24,4011.69 C 1363.8,4011.69 1361.01,4008.9 1361.01,4005.46 L 1361.01,3902.03 C 1361.01,3898.6 1363.8,3895.8 1367.24,3895.8 L 1516.46,3895.8 C 1519.9,3895.8 1522.69,3898.6 1522.69,3902.03 L 1522.69,4005.46 C 1522.69,4008.9 1519.9,4011.69 1516.46,4011.69 Z M 1367.24,3897.67 C 1364.83,3897.67 1362.87,3899.63 1362.87,3902.03 L 1362.87,4005.46 C 1362.87,4007.87 1364.83,4009.82 1367.24,4009.82 L 1516.46,4009.82 C 1518.87,4009.82 1520.82,4007.87 1520.82,4005.46 L 1520.82,3902.03 C 1520.82,3899.63 1518.87,3897.67 1516.46,3897.67 Z "/>
		<path id="dp_path046" fill="white" fill-opacity="0.411765" stroke="none" stroke-width="0" d="M 1516.23,3897.66 L 1415.33,3897.66 L 1520.83,3971.49 L 1520.83,3902.96 C 1520.83,3898.99 1518.82,3897.66 1516.23,3897.66 Z "/>
		<path id="dp_path047" fill="white" stroke="none" stroke-width="0" d="M 1564.47,4006.07 L 1320.17,4006.07 C 1317.24,4006.07 1315.9,4008.56 1316.74,4011.37 C 1317.01,4012.3 1317.59,4014.47 1317.83,4015.42 C 1318.55,4018.25 1320.98,4020.09 1323.9,4020.09 L 1560.74,4020.09 C 1563.67,4020.09 1566.09,4018.25 1566.82,4015.42 C 1567.06,4014.47 1567.63,4012.3 1567.91,4011.37 C 1568.75,4008.56 1567.4,4006.07 1564.48,4006.07 Z "/>
		<path id="dp_path048" fill="#305d8a" stroke="none" stroke-width="0" d="M 1560.74,4021.03 L 1323.9,4021.03 C 1320.55,4021.03 1317.74,4018.87 1316.92,4015.65 C 1316.69,4014.75 1316.11,4012.57 1315.84,4011.64 C 1315.3,4009.85 1315.53,4008.11 1316.45,4006.87 C 1317.28,4005.75 1318.6,4005.14 1320.16,4005.14 L 1564.47,4005.14 C 1566.03,4005.14 1567.35,4005.75 1568.17,4006.87 C 1569.1,4008.11 1569.33,4009.85 1568.79,4011.64 C 1568.51,4012.57 1567.94,4014.75 1567.71,4015.65 C 1566.89,4018.87 1564.08,4021.03 1560.73,4021.03 Z M 1320.17,4007.01 C 1319.19,4007.01 1318.43,4007.35 1317.95,4007.99 C 1317.38,4008.75 1317.27,4009.89 1317.63,4011.11 C 1317.92,4012.07 1318.49,4014.24 1318.73,4015.19 C 1319.35,4017.6 1321.38,4019.16 1323.9,4019.16 L 1560.74,4019.16 C 1563.27,4019.16 1565.3,4017.6 1565.91,4015.19 C 1566.15,4014.24 1566.73,4012.07 1567.01,4011.11 C 1567.38,4009.89 1567.26,4008.75 1566.69,4007.99 C 1566.21,4007.35 1565.45,4007.01 1564.48,4007.01 L 1320.17,4007.01 Z "/>
		<path id="dp_path049" fill="#9db6c9" fill-opacity="0.2" stroke="none" stroke-width="0" d="M 1457.87,4006.07 L 1416.16,4006.07 L 1416.16,4009.18 C 1416.16,4012.11 1418.53,4014.48 1421.46,4014.48 L 1462.27,4014.48 C 1465.19,4014.48 1467.56,4012.11 1467.56,4009.18 L 1467.56,4006.07 Z "/>
		<path id="dp_path050" fill="#9db6c9" stroke="none" stroke-width="0" d="M 1457.87,4006.07 L 1417.14,4006.07 C 1417.45,4008.7 1419.68,4010.74 1422.39,4010.74 L 1461.33,4010.74 C 1464.05,4010.74 1466.28,4008.7 1466.59,4006.07 L 1457.87,4006.07 Z "/>
		<path id="dp_path051" fill="#305d8a" stroke="none" stroke-width="0" d="M 1461.33,4011.69 L 1422.39,4011.69 C 1419.23,4011.69 1416.57,4009.33 1416.21,4006.2 C 1416.17,4005.93 1416.26,4005.66 1416.43,4005.47 C 1416.61,4005.27 1416.87,4005.15 1417.13,4005.15 L 1466.59,4005.15 C 1466.85,4005.15 1467.11,4005.27 1467.29,4005.47 C 1467.46,4005.66 1467.55,4005.93 1467.51,4006.2 C 1467.15,4009.33 1464.49,4011.69 1461.33,4011.69 Z M 1418.32,4007.02 C 1418.95,4008.67 1420.55,4009.83 1422.39,4009.83 L 1461.33,4009.83 C 1463.17,4009.83 1464.77,4008.67 1465.4,4007.02 L 1418.32,4007.02 Z "/>
		<path id="dp_path052" fill="#9db6c9" fill-opacity="0.2" stroke="none" stroke-width="0" d="M 1318.64,4016.36 C 1319.76,4018.11 1321.69,4019.17 1323.91,4019.17 L 1560.74,4019.17 C 1562.96,4019.17 1564.89,4018.11 1566.01,4016.36 L 1318.65,4016.36 Z "/>
		<path id="dp_path053" fill="#9db6c9" fill-opacity="0.329412" stroke="none" stroke-width="0" d="M 1516.46,3896.72 L 1367.24,3896.72 C 1364.31,3896.72 1361.94,3899.1 1361.94,3902.02 L 1361.94,3904.83 C 1361.94,3901.9 1364.31,3899.53 1367.24,3899.53 L 1516.46,3899.53 C 1519.39,3899.53 1521.76,3901.9 1521.76,3904.83 L 1521.76,3902.02 C 1521.76,3899.1 1519.39,3896.72 1516.46,3896.72 Z "/>
		<path id="dp_path054" fill="#9db6c9" fill-rule="evenodd" fill-opacity="0.2" stroke="none" stroke-width="0" d="M 1350.73,4003.27 L 1529.24,4003.27 L 1529.24,4005.14 L 1350.73,4005.14 Z "/>
		<path id="dp_path055" fill="#305d8a" fill-rule="evenodd" stroke="none" stroke-width="0" d="M 1442.33,3890.18 C 1442.91,3890.18 1443.38,3890.65 1443.38,3891.23 C 1443.38,3891.81 1442.91,3892.28 1442.33,3892.28 C 1441.75,3892.28 1441.28,3891.81 1441.28,3891.23 C 1441.28,3890.65 1441.75,3890.18 1442.33,3890.18 Z "/>
		<path id="dp_path056" fill="#9db6c9" fill-opacity="0.2" stroke="none" stroke-width="0" d="M 1525.49,3886.49 C 1525.65,3886.47 1525.8,3886.44 1525.96,3886.44 L 1525.49,3886.44 Z "/>
		<path id="dp_path057" fill="#305d8a" stroke="none" stroke-width="0" d="M 1619.9,4021.03 L 1615.23,4021.03 C 1614.71,4021.03 1614.3,4020.61 1614.3,4020.09 S 1614.71,4019.16 1615.23,4019.16 L 1619.9,4019.16 C 1620.42,4019.16 1620.84,4019.58 1620.84,4020.09 S 1620.42,4021.03 1619.9,4021.03 Z M 1607.75,4021.03 L 1600.28,4021.03 C 1599.76,4021.03 1599.34,4020.61 1599.34,4020.09 S 1599.76,4019.16 1600.28,4019.16 L 1607.75,4019.16 C 1608.27,4019.16 1608.69,4019.58 1608.69,4020.09 S 1608.27,4021.03 1607.75,4021.03 Z "/>
		<path id="dp_path058" fill="#305d8a" stroke="none" stroke-width="0" d="M 1600.27,4021.03 L 1294.65,4021.03 C 1294.14,4021.03 1293.72,4020.61 1293.72,4020.09 S 1294.14,4019.16 1294.65,4019.16 L 1600.27,4019.16 C 1600.79,4019.16 1601.21,4019.58 1601.21,4020.09 S 1600.79,4021.03 1600.27,4021.03 Z "/>
		<path id="dp_path059" fill="#305d8a" stroke="none" stroke-width="0" d="M 1293.73,4021.03 C 1293.21,4021.03 1292.79,4020.61 1292.79,4020.09 S 1293.2,4019.16 1293.72,4019.16 L 1293.73,4019.16 C 1294.24,4019.16 1294.66,4019.58 1294.66,4020.09 S 1294.24,4021.03 1293.73,4021.03 Z M 1286.24,4021.03 L 1278.76,4021.03 C 1278.25,4021.03 1277.83,4020.61 1277.83,4020.09 S 1278.25,4019.16 1278.76,4019.16 L 1286.24,4019.16 C 1286.76,4019.16 1287.17,4019.58 1287.17,4020.09 S 1286.76,4021.03 1286.24,4021.03 Z M 1271.29,4021.03 L 1263.81,4021.03 C 1263.29,4021.03 1262.87,4020.61 1262.87,4020.09 S 1263.29,4019.16 1263.81,4019.16 L 1271.29,4019.16 C 1271.8,4019.16 1272.22,4019.58 1272.22,4020.09 S 1271.8,4021.03 1271.29,4021.03 Z "/>
		<path id="dp_path060" fill="#305d8a" stroke="none" stroke-width="0" d="M 1579.25,3923.36 C 1579.11,3923.36 1578.98,3923.33 1578.85,3923.27 L 1573.75,3920.87 C 1573.28,3920.65 1573.08,3920.09 1573.3,3919.63 C 1573.52,3919.16 1574.08,3918.96 1574.55,3919.18 L 1579.65,3921.58 C 1580.11,3921.8 1580.31,3922.36 1580.09,3922.83 C 1579.93,3923.16 1579.59,3923.36 1579.25,3923.36 Z "/>
		<path id="dp_path061" fill="#305d8a" stroke="none" stroke-width="0" d="M 1571.24,3913.6 C 1570.76,3913.6 1570.35,3913.23 1570.31,3912.74 L 1570.03,3909.42 C 1569.99,3908.91 1570.37,3908.45 1570.89,3908.41 C 1571.41,3908.35 1571.85,3908.75 1571.89,3909.27 L 1572.17,3912.59 C 1572.21,3913.1 1571.83,3913.55 1571.32,3913.6 C 1571.29,3913.6 1571.26,3913.6 1571.24,3913.6 Z "/>
		<path id="dp_path062" fill="#305d8a" stroke="none" stroke-width="0" d="M 1568.16,3917.03 C 1568,3917.03 1567.84,3916.99 1567.69,3916.91 L 1563.36,3914.41 C 1562.92,3914.15 1562.76,3913.58 1563.02,3913.13 C 1563.28,3912.68 1563.85,3912.53 1564.3,3912.79 L 1568.63,3915.29 C 1569.07,3915.54 1569.23,3916.12 1568.97,3916.56 C 1568.79,3916.86 1568.48,3917.03 1568.16,3917.03 Z "/>
		<path id="dp_path063" fill="#305d8a" stroke="none" stroke-width="0" d="M 1577.19,3917.03 C 1576.74,3917.03 1576.34,3916.7 1576.27,3916.24 C 1576.19,3915.73 1576.54,3915.25 1577.05,3915.17 L 1579.09,3914.86 C 1579.61,3914.78 1580.08,3915.13 1580.16,3915.64 C 1580.24,3916.15 1579.89,3916.63 1579.38,3916.71 L 1577.33,3917.02 C 1577.29,3917.03 1577.24,3917.03 1577.19,3917.03 Z "/>
		<path id="dp_path064" fill="#305d8a" stroke="none" stroke-width="0" d="M 1579.25,3953.27 C 1579.03,3953.27 1578.81,3953.2 1578.63,3953.04 C 1578.24,3952.7 1578.2,3952.11 1578.54,3951.72 L 1581.7,3948.11 C 1582.04,3947.73 1582.64,3947.69 1583.02,3948.03 C 1583.41,3948.37 1583.45,3948.96 1583.11,3949.35 L 1579.95,3952.95 C 1579.76,3953.17 1579.5,3953.27 1579.25,3953.27 Z "/>
		<path id="dp_path065" fill="#305d8a" stroke="none" stroke-width="0" d="M 1600.27,3949.65 C 1600.08,3949.65 1599.88,3949.59 1599.71,3949.46 L 1594.57,3945.53 C 1594.16,3945.21 1594.08,3944.63 1594.39,3944.22 C 1594.71,3943.81 1595.3,3943.73 1595.7,3944.04 L 1600.84,3947.98 C 1601.25,3948.29 1601.33,3948.88 1601.02,3949.29 C 1600.83,3949.53 1600.56,3949.65 1600.27,3949.65 Z "/>
		<path id="dp_path066" fill="#305d8a" stroke="none" stroke-width="0" d="M 1594.21,3952.34 C 1593.82,3952.34 1593.46,3952.1 1593.32,3951.71 L 1592.79,3950.16 C 1592.62,3949.67 1592.88,3949.13 1593.37,3948.97 C 1593.86,3948.8 1594.39,3949.06 1594.56,3949.55 L 1595.09,3951.1 C 1595.26,3951.59 1595,3952.12 1594.51,3952.29 C 1594.41,3952.32 1594.31,3952.34 1594.21,3952.34 Z "/>
		<path id="dp_path067" fill="#305d8a" stroke="none" stroke-width="0" d="M 1589.12,3941 C 1588.71,3941 1588.33,3940.73 1588.22,3940.31 L 1586.91,3935.61 C 1586.77,3935.11 1587.07,3934.6 1587.56,3934.46 C 1588.06,3934.32 1588.58,3934.61 1588.71,3935.11 L 1590.02,3939.81 C 1590.16,3940.31 1589.87,3940.82 1589.37,3940.96 C 1589.29,3940.99 1589.2,3941 1589.12,3941 Z "/>
		<path id="dp_path068" fill="#305d8a" stroke="none" stroke-width="0" d="M 1594.67,3936.91 C 1594.53,3936.91 1594.39,3936.88 1594.26,3936.81 C 1593.79,3936.58 1593.61,3936.02 1593.84,3935.56 L 1594.77,3933.69 C 1595,3933.23 1595.57,3933.04 1596.03,3933.27 C 1596.49,3933.5 1596.68,3934.06 1596.45,3934.53 L 1595.51,3936.39 C 1595.35,3936.72 1595.02,3936.91 1594.67,3936.91 Z "/>
		<path id="dp_path069" fill="#305d8a" stroke="none" stroke-width="0" d="M 1598.41,3941 C 1597.99,3941 1597.61,3940.71 1597.5,3940.29 C 1597.38,3939.79 1597.68,3939.28 1598.18,3939.15 L 1603.32,3937.88 C 1603.82,3937.76 1604.33,3938.06 1604.46,3938.56 S 1604.27,3939.57 1603.77,3939.7 L 1598.63,3940.97 C 1598.56,3940.99 1598.48,3941 1598.41,3941 Z "/>
		<path id="dp_path070" fill="#305d8a" stroke="none" stroke-width="0" d="M 1601.98,3943.63 C 1601.95,3943.63 1601.92,3943.63 1601.9,3943.63 L 1600.18,3943.48 C 1599.67,3943.44 1599.29,3942.99 1599.33,3942.47 C 1599.38,3941.96 1599.82,3941.56 1600.34,3941.62 L 1602.06,3941.77 C 1602.57,3941.81 1602.95,3942.26 1602.91,3942.78 C 1602.87,3943.27 1602.46,3943.63 1601.98,3943.63 Z "/>
		<path id="dp_path071" fill="#305d8a" stroke="none" stroke-width="0" d="M 1556.35,3919.16 C 1556.29,3919.16 1556.23,3919.15 1556.16,3919.14 C 1555.66,3919.04 1555.33,3918.55 1555.43,3918.04 L 1556.37,3913.37 C 1556.47,3912.86 1556.96,3912.53 1557.47,3912.63 C 1557.97,3912.73 1558.3,3913.23 1558.2,3913.73 L 1557.26,3918.41 C 1557.17,3918.85 1556.78,3919.16 1556.35,3919.16 Z "/>
		<path id="dp_path072" fill="#305d8a" stroke="none" stroke-width="0" d="M 1552.38,3918.75 C 1552.18,3918.75 1551.98,3918.69 1551.82,3918.56 L 1549.55,3916.84 C 1549.14,3916.53 1549.06,3915.94 1549.37,3915.53 C 1549.68,3915.12 1550.27,3915.04 1550.68,3915.35 L 1552.95,3917.07 C 1553.36,3917.39 1553.44,3917.97 1553.12,3918.38 C 1552.94,3918.63 1552.66,3918.75 1552.38,3918.75 Z "/>
		<path id="dp_path073" fill="#305d8a" stroke="none" stroke-width="0" d="M 1546.73,3939.71 C 1546.31,3939.71 1545.93,3939.43 1545.83,3939 C 1545.7,3938.5 1546.01,3937.99 1546.51,3937.87 L 1552.16,3936.47 C 1552.66,3936.35 1553.17,3936.65 1553.29,3937.15 C 1553.41,3937.65 1553.11,3938.16 1552.61,3938.28 L 1546.96,3939.69 C 1546.88,3939.7 1546.81,3939.71 1546.73,3939.71 Z "/>
		<path id="dp_path074" fill="#305d8a" stroke="none" stroke-width="0" d="M 1556.35,3931.38 C 1556.25,3931.38 1556.15,3931.36 1556.05,3931.33 L 1552.09,3930.01 C 1551.6,3929.85 1551.33,3929.32 1551.5,3928.83 C 1551.66,3928.34 1552.19,3928.08 1552.68,3928.24 L 1556.64,3929.56 C 1557.13,3929.72 1557.4,3930.25 1557.23,3930.74 C 1557.1,3931.13 1556.74,3931.38 1556.35,3931.38 Z "/>
		<path id="dp_path075" fill="#305d8a" stroke="none" stroke-width="0" d="M 1559.97,3924.92 C 1559.91,3924.92 1559.85,3924.91 1559.79,3924.9 C 1559.29,3924.81 1558.95,3924.32 1559.05,3923.81 L 1559.78,3919.85 C 1559.87,3919.35 1560.36,3919.01 1560.87,3919.1 C 1561.38,3919.2 1561.71,3919.69 1561.62,3920.19 L 1560.88,3924.15 C 1560.8,3924.61 1560.41,3924.92 1559.97,3924.92 Z "/>
		<path id="dp_path076" fill="#305d8a" stroke="none" stroke-width="0" d="M 1567.41,3925.54 C 1567.24,3925.54 1567.06,3925.49 1566.91,3925.39 C 1566.47,3925.11 1566.35,3924.53 1566.63,3924.1 L 1569.59,3919.52 C 1569.87,3919.08 1570.45,3918.96 1570.88,3919.24 C 1571.31,3919.52 1571.44,3920.1 1571.16,3920.53 L 1568.2,3925.11 C 1568.02,3925.39 1567.72,3925.54 1567.41,3925.54 Z "/>
		<path id="dp_path077" fill="#305d8a" stroke="none" stroke-width="0" d="M 1575.04,3930.72 C 1575.01,3930.72 1574.97,3930.72 1574.93,3930.71 L 1569.63,3930.05 C 1569.12,3929.99 1568.75,3929.52 1568.82,3929.01 C 1568.88,3928.5 1569.34,3928.14 1569.86,3928.2 L 1575.16,3928.86 C 1575.67,3928.92 1576.03,3929.39 1575.97,3929.9 C 1575.91,3930.37 1575.51,3930.72 1575.04,3930.72 Z "/>
		<path id="dp_path078" fill="#305d8a" stroke="none" stroke-width="0" d="M 1547.34,3934.04 C 1547.26,3934.04 1547.18,3934.03 1547.1,3934.01 L 1542.09,3932.68 C 1541.59,3932.55 1541.29,3932.03 1541.42,3931.53 C 1541.56,3931.04 1542.07,3930.74 1542.57,3930.87 L 1547.58,3932.2 C 1548.08,3932.33 1548.37,3932.84 1548.24,3933.34 C 1548.13,3933.76 1547.75,3934.04 1547.34,3934.04 Z "/>
		<path id="dp_path079" fill="#305d8a" stroke="none" stroke-width="0" d="M 1544.82,3927.72 C 1544.37,3927.72 1543.97,3927.39 1543.89,3926.93 C 1543.81,3926.42 1544.17,3925.94 1544.67,3925.86 L 1546.57,3925.57 C 1547.09,3925.49 1547.56,3925.84 1547.64,3926.35 C 1547.72,3926.86 1547.37,3927.34 1546.86,3927.42 L 1544.96,3927.71 C 1544.91,3927.72 1544.87,3927.72 1544.82,3927.72 Z "/>
		<path id="dp_path080" fill="#305d8a" stroke="none" stroke-width="0" d="M 1562.88,3933.37 C 1562.78,3933.37 1562.67,3933.36 1562.57,3933.32 C 1562.09,3933.15 1561.83,3932.61 1562,3932.13 L 1562.94,3929.47 C 1563.11,3928.99 1563.64,3928.73 1564.13,3928.9 C 1564.61,3929.07 1564.87,3929.61 1564.7,3930.09 L 1563.76,3932.75 C 1563.63,3933.13 1563.27,3933.37 1562.88,3933.37 Z "/>
		<path id="dp_path081" fill="#305d8a" stroke="none" stroke-width="0" d="M 1550.75,3923.36 C 1550.51,3923.36 1550.27,3923.27 1550.09,3923.1 L 1547.63,3920.69 C 1547.26,3920.33 1547.25,3919.74 1547.61,3919.37 C 1547.97,3919 1548.56,3919 1548.93,3919.35 L 1551.4,3921.76 C 1551.77,3922.12 1551.77,3922.71 1551.41,3923.08 C 1551.23,3923.27 1550.99,3923.36 1550.75,3923.36 Z "/>
		<path id="dp_path082" fill="#305d8a" stroke="none" stroke-width="0" d="M 1558.38,3936.91 C 1558.26,3936.91 1558.14,3936.89 1558.03,3936.85 L 1556.47,3936.22 C 1555.99,3936.03 1555.76,3935.49 1555.95,3935.01 C 1556.15,3934.53 1556.69,3934.29 1557.17,3934.49 L 1558.73,3935.11 C 1559.21,3935.3 1559.44,3935.85 1559.25,3936.32 C 1559.1,3936.69 1558.75,3936.91 1558.38,3936.91 Z "/>
		<path id="dp_path083" fill="#305d8a" stroke="none" stroke-width="0" d="M 1548.27,3959.18 C 1547.99,3959.18 1547.71,3959.05 1547.53,3958.81 L 1544.09,3954.29 C 1543.77,3953.88 1543.85,3953.3 1544.27,3952.98 C 1544.68,3952.67 1545.26,3952.75 1545.57,3953.16 L 1549.01,3957.68 C 1549.33,3958.09 1549.25,3958.67 1548.84,3958.99 C 1548.67,3959.12 1548.47,3959.18 1548.27,3959.18 Z "/>
		<path id="dp_path084" fill="#305d8a" stroke="none" stroke-width="0" d="M 1543.25,3958.38 C 1543.03,3958.38 1542.81,3958.31 1542.63,3958.15 L 1540.99,3956.69 C 1540.6,3956.34 1540.56,3955.75 1540.91,3955.37 C 1541.25,3954.98 1541.84,3954.95 1542.23,3955.29 L 1543.87,3956.75 C 1544.26,3957.09 1544.29,3957.68 1543.95,3958.07 C 1543.77,3958.28 1543.51,3958.38 1543.25,3958.38 Z "/>
		<path id="dp_path085" fill="#305d8a" stroke="none" stroke-width="0" d="M 1540.62,3964.48 C 1540.24,3964.48 1539.89,3964.25 1539.75,3963.88 C 1539.56,3963.4 1539.8,3962.86 1540.28,3962.67 L 1544.5,3961.03 C 1544.98,3960.85 1545.52,3961.09 1545.71,3961.57 C 1545.89,3962.05 1545.65,3962.59 1545.17,3962.78 L 1540.95,3964.41 C 1540.84,3964.46 1540.73,3964.48 1540.62,3964.48 Z "/>
		<path id="dp_path086" fill="#305d8a" stroke="none" stroke-width="0" d="M 1543.25,3968.54 C 1543.05,3968.54 1542.85,3968.47 1542.67,3968.33 C 1542.27,3968.01 1542.2,3967.43 1542.52,3967.02 L 1544.09,3965.04 C 1544.41,3964.64 1545,3964.57 1545.41,3964.89 C 1545.81,3965.21 1545.88,3965.8 1545.56,3966.2 L 1543.99,3968.18 C 1543.8,3968.42 1543.53,3968.54 1543.25,3968.54 Z "/>
		<path id="dp_path087" fill="#305d8a" stroke="none" stroke-width="0" d="M 1547.34,3969.47 C 1547.28,3969.47 1547.21,3969.47 1547.15,3969.45 C 1546.64,3969.35 1546.32,3968.85 1546.42,3968.35 L 1547.36,3963.83 C 1547.46,3963.33 1547.95,3963 1548.46,3963.1 C 1548.97,3963.21 1549.29,3963.7 1549.19,3964.21 L 1548.25,3968.73 C 1548.16,3969.17 1547.77,3969.47 1547.34,3969.47 Z "/>
		<path id="dp_path088" fill="#305d8a" stroke="none" stroke-width="0" d="M 1579.87,3941 C 1579.77,3941 1579.67,3940.98 1579.57,3940.95 C 1579.08,3940.78 1578.82,3940.25 1578.99,3939.76 L 1580.86,3934.28 C 1581.03,3933.79 1581.56,3933.53 1582.05,3933.7 C 1582.53,3933.87 1582.8,3934.4 1582.63,3934.89 L 1580.76,3940.36 C 1580.63,3940.75 1580.26,3941 1579.87,3941 Z "/>
		<path id="dp_path089" fill="#305d8a" stroke="none" stroke-width="0" d="M 1576.4,3936.28 C 1576.36,3936.28 1576.32,3936.28 1576.28,3936.27 C 1575.77,3936.21 1575.4,3935.74 1575.47,3935.23 L 1575.75,3932.98 C 1575.82,3932.46 1576.28,3932.11 1576.8,3932.17 C 1577.31,3932.23 1577.67,3932.7 1577.61,3933.21 L 1577.32,3935.46 C 1577.26,3935.94 1576.86,3936.28 1576.4,3936.28 Z "/>
		<path id="dp_path090" fill="#305d8a" stroke="none" stroke-width="0" d="M 1559.97,3943.63 C 1559.78,3943.63 1559.6,3943.58 1559.43,3943.47 L 1554.72,3940.19 C 1554.29,3939.89 1554.19,3939.31 1554.48,3938.89 C 1554.78,3938.46 1555.36,3938.36 1555.78,3938.65 L 1560.5,3941.93 C 1560.92,3942.23 1561.03,3942.81 1560.73,3943.23 C 1560.55,3943.49 1560.26,3943.63 1559.97,3943.63 Z "/>
		<path id="dp_path091" fill="#305d8a" stroke="none" stroke-width="0" d="M 1567.55,3935.98 C 1567.45,3935.98 1567.35,3935.96 1567.26,3935.93 C 1566.77,3935.77 1566.5,3935.24 1566.67,3934.75 L 1567.6,3931.94 C 1567.76,3931.45 1568.29,3931.19 1568.78,3931.35 C 1569.27,3931.52 1569.54,3932.05 1569.37,3932.53 L 1568.44,3935.34 C 1568.31,3935.73 1567.94,3935.98 1567.55,3935.98 Z "/>
		<path id="dp_path092" fill="#305d8a" stroke="none" stroke-width="0" d="M 1567.41,3942 C 1567.15,3942 1566.89,3941.89 1566.7,3941.68 L 1565.29,3940.04 C 1564.95,3939.65 1564.99,3939.05 1565.38,3938.72 C 1565.77,3938.38 1566.36,3938.42 1566.7,3938.81 L 1568.12,3940.45 C 1568.46,3940.84 1568.41,3941.43 1568.02,3941.77 C 1567.85,3941.93 1567.63,3942 1567.41,3942 Z "/>
		<path id="dp_path093" fill="#305d8a" stroke="none" stroke-width="0" d="M 1570.96,3944.57 C 1570.92,3944.57 1570.88,3944.56 1570.84,3944.56 C 1570.33,3944.5 1569.97,3944.03 1570.03,3943.52 L 1570.64,3938.67 C 1570.7,3938.15 1571.16,3937.8 1571.68,3937.85 C 1572.2,3937.92 1572.56,3938.39 1572.49,3938.9 L 1571.89,3943.75 C 1571.83,3944.22 1571.42,3944.57 1570.96,3944.57 Z "/>
		<path id="dp_path094" fill="#305d8a" stroke="none" stroke-width="0" d="M 1585.78,3946.41 C 1585.43,3946.41 1585.1,3946.22 1584.94,3945.89 C 1584.71,3945.43 1584.9,3944.87 1585.36,3944.64 L 1589.1,3942.79 C 1589.57,3942.56 1590.13,3942.75 1590.35,3943.21 C 1590.58,3943.68 1590.39,3944.24 1589.93,3944.47 L 1586.19,3946.31 C 1586.06,3946.38 1585.92,3946.41 1585.78,3946.41 Z "/>
		<path id="dp_path095" fill="#305d8a" stroke="none" stroke-width="0" d="M 1590.91,3949.07 L 1588.11,3949.07 C 1587.59,3949.07 1587.18,3948.65 1587.18,3948.14 C 1587.18,3947.62 1587.59,3947.2 1588.11,3947.2 L 1590.91,3947.2 C 1591.43,3947.2 1591.85,3947.62 1591.85,3948.14 C 1591.85,3948.65 1591.43,3949.07 1590.91,3949.07 Z "/>
		<path id="dp_path096" fill="#305d8a" stroke="none" stroke-width="0" d="M 1553.08,3956.24 C 1552.88,3956.24 1552.67,3956.17 1552.5,3956.04 L 1548.76,3953.08 C 1548.36,3952.76 1548.29,3952.17 1548.61,3951.76 C 1548.93,3951.36 1549.51,3951.29 1549.92,3951.61 L 1553.66,3954.57 C 1554.07,3954.89 1554.13,3955.48 1553.81,3955.88 C 1553.63,3956.12 1553.35,3956.24 1553.08,3956.24 Z "/>
		<path id="dp_path097" fill="#305d8a" stroke="none" stroke-width="0" d="M 1552.38,3950.71 C 1552.32,3950.71 1552.27,3950.7 1552.21,3950.69 L 1550.88,3950.45 C 1550.37,3950.36 1550.03,3949.87 1550.13,3949.36 C 1550.22,3948.85 1550.7,3948.52 1551.21,3948.61 L 1552.55,3948.85 C 1553.05,3948.94 1553.39,3949.43 1553.3,3949.94 C 1553.22,3950.39 1552.82,3950.71 1552.38,3950.71 Z "/>
		<path id="dp_path098" fill="#305d8a" stroke="none" stroke-width="0" d="M 1560.34,3950.47 C 1560.14,3950.47 1559.93,3950.41 1559.76,3950.27 L 1556.24,3947.5 C 1555.83,3947.18 1555.76,3946.59 1556.08,3946.19 C 1556.4,3945.78 1556.99,3945.71 1557.39,3946.03 L 1560.92,3948.8 C 1561.32,3949.12 1561.39,3949.71 1561.07,3950.12 C 1560.89,3950.35 1560.62,3950.47 1560.34,3950.47 Z "/>
		<path id="dp_path099" fill="#305d8a" stroke="none" stroke-width="0" d="M 1565.26,3950.78 C 1564.95,3950.78 1564.64,3950.62 1564.47,3950.33 L 1563.02,3947.99 C 1562.75,3947.55 1562.89,3946.97 1563.33,3946.7 C 1563.77,3946.43 1564.34,3946.57 1564.61,3947.01 L 1566.06,3949.35 C 1566.33,3949.79 1566.19,3950.37 1565.75,3950.64 C 1565.6,3950.73 1565.43,3950.78 1565.26,3950.78 Z "/>
		<path id="dp_path100" fill="#305d8a" stroke="none" stroke-width="0" d="M 1580.83,3962.14 C 1580.61,3962.14 1580.38,3962.06 1580.2,3961.9 C 1579.82,3961.55 1579.79,3960.96 1580.14,3960.58 L 1582.86,3957.62 C 1583.21,3957.24 1583.8,3957.21 1584.18,3957.56 C 1584.56,3957.91 1584.58,3958.5 1584.24,3958.88 L 1581.52,3961.84 C 1581.34,3962.04 1581.09,3962.14 1580.83,3962.14 Z "/>
		<path id="dp_path101" fill="#305d8a" stroke="none" stroke-width="0" d="M 1585.78,3963.66 C 1585.38,3963.66 1585.01,3963.4 1584.89,3963 C 1584.73,3962.51 1585.01,3961.99 1585.5,3961.83 L 1587.37,3961.25 C 1587.86,3961.09 1588.39,3961.37 1588.54,3961.86 C 1588.7,3962.35 1588.42,3962.88 1587.93,3963.03 L 1586.06,3963.62 C 1585.97,3963.65 1585.87,3963.66 1585.78,3963.66 Z "/>
		<path id="dp_path102" fill="#305d8a" stroke="none" stroke-width="0" d="M 1588.46,3957.66 C 1588,3957.66 1587.6,3957.32 1587.54,3956.85 C 1587.47,3956.34 1587.83,3955.87 1588.34,3955.8 L 1593.81,3955.07 C 1594.33,3955.01 1594.79,3955.36 1594.86,3955.87 C 1594.93,3956.38 1594.57,3956.85 1594.06,3956.92 L 1588.59,3957.65 C 1588.55,3957.66 1588.51,3957.66 1588.46,3957.66 Z "/>
		<path id="dp_path103" fill="#305d8a" stroke="none" stroke-width="0" d="M 1591.99,3962.14 C 1591.63,3962.14 1591.28,3961.93 1591.13,3961.58 C 1590.93,3961.11 1591.14,3960.55 1591.62,3960.35 L 1592.88,3959.8 C 1593.36,3959.6 1593.91,3959.82 1594.11,3960.29 C 1594.31,3960.77 1594.1,3961.32 1593.62,3961.52 L 1592.36,3962.07 C 1592.24,3962.12 1592.11,3962.14 1591.99,3962.14 Z "/>
		<path id="dp_path104" fill="#305d8a" stroke="none" stroke-width="0" d="M 1550.75,3972.44 C 1550.47,3972.44 1550.21,3972.32 1550.02,3972.09 C 1549.69,3971.69 1549.75,3971.1 1550.15,3970.78 L 1553.78,3967.82 C 1554.18,3967.49 1554.77,3967.55 1555.09,3967.95 C 1555.42,3968.35 1555.36,3968.94 1554.96,3969.26 L 1551.34,3972.22 C 1551.16,3972.37 1550.95,3972.44 1550.75,3972.44 Z "/>
		<path id="dp_path105" fill="#305d8a" stroke="none" stroke-width="0" d="M 1559.97,3965.57 C 1559.91,3965.57 1559.86,3965.57 1559.81,3965.56 L 1556.18,3964.94 C 1555.67,3964.85 1555.33,3964.37 1555.42,3963.86 C 1555.51,3963.35 1555.99,3963.01 1556.5,3963.1 L 1560.12,3963.72 C 1560.63,3963.81 1560.97,3964.29 1560.89,3964.8 C 1560.81,3965.25 1560.41,3965.57 1559.97,3965.57 Z "/>
		<path id="dp_path106" fill="#305d8a" stroke="none" stroke-width="0" d="M 1558.57,3971.81 C 1558.26,3971.81 1557.96,3971.66 1557.78,3971.39 C 1557.5,3970.95 1557.62,3970.38 1558.05,3970.09 L 1561.58,3967.75 C 1562.01,3967.47 1562.59,3967.59 1562.88,3968.02 C 1563.16,3968.45 1563.04,3969.03 1562.61,3969.31 L 1559.08,3971.65 C 1558.92,3971.75 1558.74,3971.81 1558.57,3971.81 Z "/>
		<path id="dp_path107" fill="#305d8a" stroke="none" stroke-width="0" d="M 1567.41,3970.94 C 1567.3,3970.94 1567.18,3970.92 1567.07,3970.88 C 1566.59,3970.69 1566.35,3970.14 1566.54,3969.66 L 1568.02,3965.93 C 1568.21,3965.44 1568.76,3965.21 1569.23,3965.4 C 1569.71,3965.59 1569.95,3966.13 1569.76,3966.61 L 1568.28,3970.35 C 1568.13,3970.72 1567.78,3970.94 1567.41,3970.94 Z "/>
		<path id="dp_path108" fill="#305d8a" stroke="none" stroke-width="0" d="M 1573.2,3972.44 C 1572.85,3972.44 1572.51,3972.23 1572.35,3971.89 L 1571.53,3970.1 C 1571.31,3969.63 1571.52,3969.07 1571.99,3968.86 C 1572.46,3968.65 1573.01,3968.85 1573.23,3969.32 L 1574.05,3971.11 C 1574.26,3971.58 1574.06,3972.13 1573.59,3972.35 C 1573.46,3972.41 1573.33,3972.44 1573.2,3972.44 Z "/>
		<path id="dp_path109" fill="#305d8a" stroke="none" stroke-width="0" d="M 1563.35,3958.38 C 1563.26,3958.38 1563.17,3958.37 1563.08,3958.34 L 1558.3,3956.88 C 1557.8,3956.73 1557.53,3956.21 1557.68,3955.71 C 1557.83,3955.22 1558.35,3954.94 1558.85,3955.09 L 1563.62,3956.56 C 1564.12,3956.71 1564.39,3957.23 1564.24,3957.72 C 1564.12,3958.13 1563.75,3958.38 1563.35,3958.38 Z "/>
		<path id="dp_path110" fill="#305d8a" stroke="none" stroke-width="0" d="M 1575.04,3963.38 C 1574.92,3963.38 1574.79,3963.35 1574.67,3963.3 C 1574.2,3963.09 1573.98,3962.54 1574.19,3962.07 L 1574.97,3960.3 C 1575.17,3959.82 1575.72,3959.61 1576.2,3959.82 C 1576.67,3960.02 1576.89,3960.58 1576.68,3961.05 L 1575.9,3962.82 C 1575.75,3963.17 1575.4,3963.38 1575.04,3963.38 Z "/>
		<path id="dp_path111" fill="#305d8a" stroke="none" stroke-width="0" d="M 1583.75,3969.7 C 1583.69,3969.7 1583.62,3969.7 1583.56,3969.69 L 1580.6,3969.06 C 1580.09,3968.95 1579.77,3968.46 1579.87,3967.95 C 1579.98,3967.45 1580.48,3967.12 1580.98,3967.23 L 1583.94,3967.86 C 1584.45,3967.96 1584.77,3968.46 1584.66,3968.96 C 1584.57,3969.4 1584.18,3969.7 1583.75,3969.7 Z "/>
		<path id="dp_path112" fill="#305d8a" stroke="none" stroke-width="0" d="M 1599.34,3987.37 L 1544.2,3987.37 C 1543.68,3987.37 1543.26,3986.95 1543.26,3986.44 C 1543.26,3985.92 1543.68,3985.5 1544.2,3985.5 L 1599.34,3985.5 C 1599.86,3985.5 1600.28,3985.92 1600.28,3986.44 C 1600.28,3986.95 1599.86,3987.37 1599.34,3987.37 Z "/>
		<path id="dp_path113" fill="#eae8e1" stroke="none" stroke-width="0" d="M 1353.22,4000.7 C 1353.22,3993.63 1347.51,3987.9 1340.45,3987.85 L 1340.45,3986.14 C 1340.45,3983.21 1338.07,3980.84 1335.15,3980.84 L 1313.97,3980.84 C 1311.04,3980.84 1308.67,3983.21 1308.67,3986.14 L 1308.67,4014.79 C 1308.67,4017.72 1311.04,4020.09 1313.97,4020.09 L 1335.15,4020.09 C 1338.07,4020.09 1340.45,4017.72 1340.45,4014.79 L 1340.45,4013.55 C 1347.51,4013.51 1353.22,4007.77 1353.22,4000.7 Z M 1340.45,4007.94 L 1340.45,3993.46 C 1344.41,3993.5 1347.61,3996.73 1347.61,4000.7 S 1344.41,4007.9 1340.45,4007.94 Z "/>
		<path id="dp_path114" fill="#305d8a" stroke="none" stroke-width="0" d="M 1335.15,4021.03 L 1313.97,4021.03 C 1310.53,4021.03 1307.74,4018.23 1307.74,4014.8 L 1307.74,3986.14 C 1307.74,3982.7 1310.53,3979.91 1313.97,3979.91 L 1335.15,3979.91 C 1338.59,3979.91 1341.38,3982.7 1341.38,3986.14 L 1341.38,3986.96 C 1348.51,3987.48 1354.15,3993.46 1354.15,4000.7 S 1348.51,4013.93 1341.38,4014.45 L 1341.38,4014.8 C 1341.38,4018.23 1338.59,4021.03 1335.15,4021.03 Z M 1313.97,3981.78 C 1311.56,3981.78 1309.61,3983.73 1309.61,3986.14 L 1309.61,4014.8 C 1309.61,4017.2 1311.56,4019.16 1313.97,4019.16 L 1335.15,4019.16 C 1337.55,4019.16 1339.51,4017.2 1339.51,4014.8 L 1339.51,4013.55 C 1339.51,4013.04 1339.93,4012.62 1340.44,4012.62 C 1346.97,4012.58 1352.29,4007.23 1352.29,4000.71 S 1346.97,3988.83 1340.44,3988.79 C 1339.93,3988.79 1339.51,3988.37 1339.51,3987.86 L 1339.51,3986.14 C 1339.51,3983.73 1337.55,3981.78 1335.15,3981.78 Z M 1340.45,4008.88 C 1340.2,4008.88 1339.97,4008.79 1339.79,4008.61 C 1339.61,4008.44 1339.51,4008.2 1339.51,4007.95 L 1339.51,3993.46 C 1339.51,3993.21 1339.61,3992.97 1339.79,3992.8 C 1339.97,3992.62 1340.22,3992.51 1340.46,3992.53 C 1344.92,3992.58 1348.55,3996.25 1348.55,4000.71 C 1348.55,4005.17 1344.92,4008.83 1340.46,4008.88 C 1340.45,4008.88 1340.45,4008.88 1340.45,4008.88 Z M 1341.38,3994.48 L 1341.38,4006.93 C 1344.38,4006.44 1346.68,4003.83 1346.68,4000.71 S 1344.38,3994.97 1341.38,3994.48 Z "/>
		<path id="dp_path115" fill="#9db6c9" fill-opacity="0.2" stroke="none" stroke-width="0" d="M 1340.45,3987.86 L 1340.45,3986.15 C 1340.45,3983.22 1338.08,3980.85 1335.15,3980.85 L 1328.3,3980.85 L 1328.3,4020.1 L 1335.15,4020.1 C 1338.08,4020.1 1340.45,4017.73 1340.45,4014.81 L 1340.45,4013.56 C 1347.51,4013.52 1353.22,4007.78 1353.22,4000.71 S 1347.51,3987.91 1340.45,3987.86 Z M 1340.45,4007.95 L 1340.45,3993.47 C 1344.41,3993.51 1347.61,3996.74 1347.61,4000.71 S 1344.41,4007.91 1340.45,4007.95 Z "/>
		<path id="dp_path116" fill="#305d8a" stroke="none" stroke-width="0" d="M 1334.84,3985.51 L 1314.28,3985.51 C 1313.76,3985.51 1313.34,3985.09 1313.34,3984.57 C 1313.34,3984.05 1313.76,3983.64 1314.28,3983.64 L 1334.84,3983.64 C 1335.36,3983.64 1335.77,3984.05 1335.77,3984.57 C 1335.77,3985.09 1335.36,3985.51 1334.84,3985.51 Z "/>
	</g>
</svg>