<?xml version="1.0" encoding="UTF-8" standalone="no"?>
<!DOCTYPE svg PUBLIC "-//W3C//DTD SVG 1.1//EN" "http://www.w3.org/Graphics/SVG/1.1/DTD/svg11.dtd">
<svg width="100%" height="100%" viewBox="0 0 399 440" version="1.1" xmlns="http://www.w3.org/2000/svg" xmlns:xlink="http://www.w3.org/1999/xlink" xml:space="preserve" xmlns:serif="http://www.serif.com/" style="fill-rule:evenodd;clip-rule:evenodd;">
    <path d="M334.9,218.1C334.4,218.4 316.6,215.4 294.2,213.9C276,212.7 254.7,212.7 237.5,213.9C223.5,214.8 205.1,207.8 202.9,216.2C194.7,247.6 176.9,274.9 154.4,296.1C137.4,312.1 118,324.2 97,331.7C72,318.9 60.2,290.3 70.8,265.3C79.2,245.4 89.1,223.6 70.9,218.6C57.7,215 50.4,227.6 45.4,241.1C35.7,267 17.2,293.8 11.9,325.6C6.3,359.1 11.9,394.7 40.9,414.9C108.5,461.7 181.8,385.9 259.1,366.8C287.1,359.9 317.9,361 342.6,346.7C361.1,336 373.4,318.2 376.8,298.2C382.4,266 365.7,234.1 334.9,218.1Z" style="fill:rgb(153,66,91);fill-rule:nonzero;stroke:white;stroke-width:20px;"/>
    <path d="M202.9,216.2C194.7,247.6 176.9,274.9 154.4,296.1C137.4,312.1 118,324.2 97,331.7C72,318.9 60.2,290.3 70.8,265.3C79.2,245.4 89.1,223.6 70.9,218.6C57.7,215 50.4,227.6 45.4,241.1C35.7,267 17.2,293.8 11.9,325.6C6.3,359.1 11.9,394.7 40.9,414.9C108.5,461.7 181.8,385.9 259.1,366.8C287.1,359.9 317.9,361 342.6,346.7C361.1,336 373.4,318.2 376.8,298.2C382.4,266.1 365.7,234.1 334.9,218.2" style="fill:none;fill-rule:nonzero;stroke:white;stroke-width:20px;"/>
    <path d="M264.9,91.2L319.2,202L384.3,10L145.3,10L210.3,201.6L264.9,91.2Z" style="fill:rgb(153,66,91);fill-rule:nonzero;"/>
    <path d="M264.9,91.2L319.2,202L384.3,10L145.3,10L210.3,201.6L264.9,91.2Z" style="fill:none;fill-rule:nonzero;stroke:white;stroke-width:20px;"/>
    <circle cx="199" cy="216.6" r="40.9" style="fill:rgb(153,66,91);"/>
    <g>
        <circle cx="199" cy="216.6" r="40.9" style="fill:none;stroke:white;stroke-width:20px;"/>
        <circle cx="332.4" cy="216.6" r="40.9" style="fill:rgb(153,66,91);stroke:white;stroke-width:20px;"/>
        <circle cx="332.4" cy="216.6" r="40.9" style="fill:none;stroke:white;stroke-width:20px;"/>
    </g>
    <circle cx="65.1" cy="216.9" r="40.9" style="fill:rgb(153,66,91);"/>
    <circle cx="65.1" cy="216.9" r="40.9" style="fill:none;stroke:white;stroke-width:20px;"/>
</svg>
