<?xml version="1.0" encoding="UTF-8"?>
<svg xmlns="http://www.w3.org/2000/svg" xmlns:xlink="http://www.w3.org/1999/xlink" width="245.33pt" height="245.33pt" viewBox="0 0 245.33 245.33" version="1.1">
<defs>
<clipPath id="clip1">
  <path d="M 0 0 L 245.328125 0 L 245.328125 245.328125 L 0 245.328125 Z M 0 0 "/>
</clipPath>
<clipPath id="clip2">
  <path d="M 0 0 L 245.328125 0 L 245.328125 101 L 0 101 Z M 0 0 "/>
</clipPath>
</defs>
<g id="surface1">
<g clip-path="url(#clip1)" clip-rule="nonzero">
<path style=" stroke:none;fill-rule:evenodd;fill:rgb(8.198547%,75.299072%,88.198853%);fill-opacity:1;" d="M 0 44.03125 L 0 201.296875 C 0 225.566406 19.761719 245.328125 44.035156 245.328125 L 201.296875 245.328125 C 225.570313 245.328125 245.328125 225.566406 245.328125 201.296875 L 245.328125 44.03125 C 245.328125 19.761719 225.570313 0 201.296875 0 L 44.035156 0 C 19.761719 0 0 19.761719 0 44.03125 "/>
</g>
<g clip-path="url(#clip2)" clip-rule="nonzero">
<path style=" stroke:none;fill-rule:nonzero;fill:rgb(31.799316%,78.399658%,91.799927%);fill-opacity:1;" d="M 0.0078125 83.242188 C 33.867188 94.054688 76.738281 100.519531 123.378906 100.519531 C 169.351563 100.519531 211.683594 94.234375 245.320313 83.691406 L 245.320313 43.058594 C 244.964844 21.433594 228.9375 3.535156 208.125 0.285156 C 206.542969 0.101563 204.9375 0 203.308594 0 L 41.554688 0 C 40.46875 0 39.394531 0.0546875 38.328125 0.136719 C 16.742188 2.949219 0.0078125 21.453125 0.0078125 43.785156 L 0.0078125 83.242188 "/>
</g>
<path style=" stroke:none;fill-rule:nonzero;fill:rgb(63.499451%,86.698914%,93.299866%);fill-opacity:1;" d="M 197.683594 239.699219 L 47.644531 239.699219 C 24.484375 239.699219 5.632813 220.847656 5.632813 197.683594 L 5.632813 84.972656 C 8.328125 85.773438 11.078125 86.546875 13.878906 87.289063 L 13.878906 194.691406 C 13.878906 215.015625 30.316406 231.453125 50.640625 231.453125 L 194.691406 231.453125 C 215.015625 231.453125 231.453125 215.015625 231.453125 194.691406 L 231.453125 87.667969 C 234.25 86.9375 236.996094 86.175781 239.699219 85.390625 L 239.699219 197.683594 C 239.699219 220.847656 220.84375 239.699219 197.683594 239.699219 "/>
<path style=" stroke:none;fill-rule:nonzero;fill:rgb(68.598938%,88.198853%,95.698547%);fill-opacity:1;" d="M 231.453125 87.667969 L 231.453125 50.585938 C 231.453125 30.3125 215.015625 13.824219 194.691406 13.824219 L 50.640625 13.824219 C 30.316406 13.824219 13.878906 30.3125 13.878906 50.585938 L 13.878906 87.289063 C 11.078125 86.546875 8.328125 85.773438 5.632813 84.972656 L 5.632813 47.644531 C 5.632813 24.484375 24.484375 5.632813 47.644531 5.632813 L 197.683594 5.632813 C 220.84375 5.632813 239.699219 24.484375 239.699219 47.644531 L 239.699219 85.390625 C 236.996094 86.175781 234.25 86.9375 231.453125 87.667969 "/>
<path style=" stroke:none;fill-rule:evenodd;fill:rgb(100%,100%,100%);fill-opacity:1;" d="M 119.300781 104.203125 C 125.554688 84.683594 133.199219 72.03125 141.992188 62.859375 C 148.554688 56.015625 151.941406 53.84375 148.089844 61.378906 C 149.792969 60.015625 152.242188 58.199219 154.140625 57.230469 C 164.78125 52.210938 164.027344 56.421875 156.695313 60.933594 C 176.707031 53.773438 176.011719 62.890625 154.847656 67.429688 C 172.152344 67.757813 190.550781 78.769531 195.84375 102.191406 C 196.578125 105.433594 195.699219 105.125 199.019531 105.714844 C 206.1875 106.980469 212.929688 106.902344 219.503906 104.816406 C 218.792969 109.660156 212.390625 112.8125 202.40625 114.890625 C 198.707031 115.660156 197.949219 115.460938 202.382813 116.457031 C 207.84375 117.683594 213.953125 118.003906 220.410156 117.699219 C 215.378906 123.492188 207.359375 126.449219 197.441406 126.574219 C 191.238281 149.226563 177.0625 165.449219 159.121094 175.632813 C 116.992188 199.542969 55.667969 196.074219 24.917969 152.621094 C 45.097656 168.453125 74.988281 171.941406 97.191406 149.871094 C 82.648438 149.875 78.882813 138.984375 90.410156 133.101563 C 79.492188 132.988281 72.550781 129.535156 68.476563 123.28125 C 66.929688 120.90625 66.914063 120.722656 69.4375 118.898438 C 72.210938 116.894531 75.992188 116.003906 79.898438 115.703125 C 68.59375 112.46875 61.683594 106.5625 59.289063 98.644531 C 58.5 96.023438 58.375 96.15625 61.042969 95.480469 C 63.648438 94.820313 67 94.46875 70.007813 94.320313 C 61.132813 88.9375 55.828125 82.339844 54.476563 75.042969 C 53.203125 68.15625 54.515625 69.925781 59.671875 71.898438 C 82.71875 80.714844 105.695313 90.183594 119.300781 104.203125 "/>
</g>
</svg>
